<?xml version="1.0" encoding="utf-8" standalone="no"?>
<!DOCTYPE svg PUBLIC "-//W3C//DTD SVG 1.1//EN"
  "http://www.w3.org/Graphics/SVG/1.1/DTD/svg11.dtd">
<!-- Created with matplotlib (https://matplotlib.org/) -->
<svg height="720pt" version="1.1" viewBox="0 0 720 720" width="720pt" xmlns="http://www.w3.org/2000/svg" xmlns:xlink="http://www.w3.org/1999/xlink">
 <defs>
  <style type="text/css">
*{stroke-linecap:butt;stroke-linejoin:round;}
  </style>
 </defs>
 <g id="figure_1">
  <g id="patch_1">
   <path d="M 0 720 
L 720 720 
L 720 0 
L 0 0 
z
" style="fill:#ffffff;"/>
  </g>
  <g id="axes_1">
   <g id="patch_2">
    <path d="M 90 630 
L 648 630 
L 648 86.4 
L 90 86.4 
z
" style="fill:#ffffff;"/>
   </g>
   <g id="PathCollection_1">
    <defs>
     <path d="M 0 1.581139 
C 0.419323 1.581139 0.821528 1.41454 1.118034 1.118034 
C 1.41454 0.821528 1.581139 0.419323 1.581139 0 
C 1.581139 -0.419323 1.41454 -0.821528 1.118034 -1.118034 
C 0.821528 -1.41454 0.419323 -1.581139 0 -1.581139 
C -0.419323 -1.581139 -0.821528 -1.41454 -1.118034 -1.118034 
C -1.41454 -0.821528 -1.581139 -0.419323 -1.581139 0 
C -1.581139 0.419323 -1.41454 0.821528 -1.118034 1.118034 
C -0.821528 1.41454 -0.419323 1.581139 0 1.581139 
z
" id="m8ac7e5693a" style="stroke:#1f77b4;"/>
    </defs>
    <g clip-path="url(#pe9653cbb85)">
     <use style="fill:#1f77b4;stroke:#1f77b4;" x="379.872" xlink:href="#m8ac7e5693a" y="341.892"/>
     <use style="fill:#1f77b4;stroke:#1f77b4;" x="271.152" xlink:href="#m8ac7e5693a" y="401.688"/>
     <use style="fill:#1f77b4;stroke:#1f77b4;" x="450.54" xlink:href="#m8ac7e5693a" y="260.352"/>
     <use style="fill:#1f77b4;stroke:#1f77b4;" x="320.076" xlink:href="#m8ac7e5693a" y="336.456"/>
     <use style="fill:#1f77b4;stroke:#1f77b4;" x="417.924" xlink:href="#m8ac7e5693a" y="396.252"/>
     <use style="fill:#1f77b4;stroke:#1f77b4;" x="347.256" xlink:href="#m8ac7e5693a" y="309.276"/>
     <use style="fill:#1f77b4;stroke:#1f77b4;" x="379.872" xlink:href="#m8ac7e5693a" y="303.84"/>
     <use style="fill:#1f77b4;stroke:#1f77b4;" x="379.872" xlink:href="#m8ac7e5693a" y="341.892"/>
     <use style="fill:#1f77b4;stroke:#1f77b4;" x="428.796" xlink:href="#m8ac7e5693a" y="314.712"/>
     <use style="fill:#1f77b4;stroke:#1f77b4;" x="390.744" xlink:href="#m8ac7e5693a" y="309.276"/>
     <use style="fill:#1f77b4;stroke:#1f77b4;" x="374.436" xlink:href="#m8ac7e5693a" y="309.276"/>
     <use style="fill:#1f77b4;stroke:#1f77b4;" x="363.564" xlink:href="#m8ac7e5693a" y="341.892"/>
     <use style="fill:#1f77b4;stroke:#1f77b4;" x="439.668" xlink:href="#m8ac7e5693a" y="303.84"/>
     <use style="fill:#1f77b4;stroke:#1f77b4;" x="455.976" xlink:href="#m8ac7e5693a" y="298.404"/>
     <use style="fill:#1f77b4;stroke:#1f77b4;" x="271.152" xlink:href="#m8ac7e5693a" y="358.2"/>
     <use style="fill:#1f77b4;stroke:#1f77b4;" x="320.076" xlink:href="#m8ac7e5693a" y="363.636"/>
     <use style="fill:#1f77b4;stroke:#1f77b4;" x="423.36" xlink:href="#m8ac7e5693a" y="276.66"/>
     <use style="fill:#1f77b4;stroke:#1f77b4;" x="423.36" xlink:href="#m8ac7e5693a" y="314.712"/>
     <use style="fill:#1f77b4;stroke:#1f77b4;" x="369" xlink:href="#m8ac7e5693a" y="336.456"/>
     <use style="fill:#1f77b4;stroke:#1f77b4;" x="396.18" xlink:href="#m8ac7e5693a" y="276.66"/>
    </g>
   </g>
   <g id="PathCollection_2">
    <defs>
     <path d="M 0 1.581139 
C 0.419323 1.581139 0.821528 1.41454 1.118034 1.118034 
C 1.41454 0.821528 1.581139 0.419323 1.581139 0 
C 1.581139 -0.419323 1.41454 -0.821528 1.118034 -1.118034 
C 0.821528 -1.41454 0.419323 -1.581139 0 -1.581139 
C -0.419323 -1.581139 -0.821528 -1.41454 -1.118034 -1.118034 
C -1.41454 -0.821528 -1.581139 -0.419323 -1.581139 0 
C -1.581139 0.419323 -1.41454 0.821528 -1.118034 1.118034 
C -0.821528 1.41454 -0.419323 1.581139 0 1.581139 
z
" id="mf557ec824d" style="stroke:#ff7f0e;"/>
    </defs>
    <g clip-path="url(#pe9653cbb85)">
     <use style="fill:#ff7f0e;stroke:#ff7f0e;" x="591.876" xlink:href="#mf557ec824d" y="331.02"/>
     <use style="fill:#ff7f0e;stroke:#ff7f0e;" x="510.336" xlink:href="#mf557ec824d" y="390.816"/>
     <use style="fill:#ff7f0e;stroke:#ff7f0e;" x="542.952" xlink:href="#mf557ec824d" y="363.636"/>
     <use style="fill:#ff7f0e;stroke:#ff7f0e;" x="515.772" xlink:href="#mf557ec824d" y="385.38"/>
     <use style="fill:#ff7f0e;stroke:#ff7f0e;" x="581.004" xlink:href="#mf557ec824d" y="347.328"/>
     <use style="fill:#ff7f0e;stroke:#ff7f0e;" x="455.976" xlink:href="#mf557ec824d" y="428.868"/>
     <use style="fill:#ff7f0e;stroke:#ff7f0e;" x="472.284" xlink:href="#mf557ec824d" y="412.56"/>
     <use style="fill:#ff7f0e;stroke:#ff7f0e;" x="602.748" xlink:href="#mf557ec824d" y="331.02"/>
     <use style="fill:#ff7f0e;stroke:#ff7f0e;" x="635.364" xlink:href="#mf557ec824d" y="309.276"/>
     <use style="fill:#ff7f0e;stroke:#ff7f0e;" x="521.208" xlink:href="#mf557ec824d" y="374.508"/>
     <use style="fill:#ff7f0e;stroke:#ff7f0e;" x="591.876" xlink:href="#mf557ec824d" y="336.456"/>
     <use style="fill:#ff7f0e;stroke:#ff7f0e;" x="575.568" xlink:href="#mf557ec824d" y="347.328"/>
     <use style="fill:#ff7f0e;stroke:#ff7f0e;" x="553.824" xlink:href="#mf557ec824d" y="363.636"/>
     <use style="fill:#ff7f0e;stroke:#ff7f0e;" x="591.876" xlink:href="#mf557ec824d" y="331.02"/>
     <use style="fill:#ff7f0e;stroke:#ff7f0e;" x="602.748" xlink:href="#mf557ec824d" y="331.02"/>
     <use style="fill:#ff7f0e;stroke:#ff7f0e;" x="542.952" xlink:href="#mf557ec824d" y="374.508"/>
     <use style="fill:#ff7f0e;stroke:#ff7f0e;" x="575.568" xlink:href="#mf557ec824d" y="352.764"/>
     <use style="fill:#ff7f0e;stroke:#ff7f0e;" x="613.62" xlink:href="#mf557ec824d" y="331.02"/>
     <use style="fill:#ff7f0e;stroke:#ff7f0e;" x="591.876" xlink:href="#mf557ec824d" y="347.328"/>
     <use style="fill:#ff7f0e;stroke:#ff7f0e;" x="515.772" xlink:href="#mf557ec824d" y="374.508"/>
     <use style="fill:#ff7f0e;stroke:#ff7f0e;" x="570.132" xlink:href="#mf557ec824d" y="352.764"/>
    </g>
   </g>
   <g id="PathCollection_3">
    <defs>
     <path d="M 0 0.866025 
C 0.229673 0.866025 0.449969 0.774776 0.612372 0.612372 
C 0.774776 0.449969 0.866025 0.229673 0.866025 0 
C 0.866025 -0.229673 0.774776 -0.449969 0.612372 -0.612372 
C 0.449969 -0.774776 0.229673 -0.866025 0 -0.866025 
C -0.229673 -0.866025 -0.449969 -0.774776 -0.612372 -0.612372 
C -0.774776 -0.449969 -0.866025 -0.229673 -0.866025 0 
C -0.866025 0.229673 -0.774776 0.449969 -0.612372 0.612372 
C -0.449969 0.774776 -0.229673 0.866025 0 0.866025 
z
" id="m3f620bbb5a" style="stroke:#ff0000;"/>
    </defs>
    <g clip-path="url(#pe9653cbb85)"/>
   </g>
   <g id="patch_3">
    <path clip-path="url(#pe9653cbb85)" d="M 367.476686 302.446082 
C 353.657702 310.287789 341.737535 320.161417 334.341463 329.892414 
C 326.945391 339.623411 324.67727 348.417285 328.036628 354.337285 
C 331.395986 360.257286 340.108546 362.820073 352.255468 361.461222 
C 364.40239 360.10237 378.991931 354.932825 392.810914 347.091118 
C 406.629898 339.249411 418.550065 329.375783 425.946137 319.644786 
C 433.342209 309.913789 435.61033 301.119915 432.250972 295.199915 
C 428.891614 289.279914 420.179054 286.717127 408.032132 288.075978 
C 395.88521 289.43483 381.295669 294.604375 367.476686 302.446082 
z
" style="fill:none;stroke:#b22222;stroke-linejoin:miter;"/>
   </g>
   <g id="patch_4">
    <path clip-path="url(#pe9653cbb85)" d="M 354.809571 280.123564 
C 327.171604 295.806979 303.33127 315.554235 288.539126 335.016229 
C 273.746981 354.478223 269.21074 372.065969 275.929456 383.905971 
C 282.648172 395.745973 300.073292 400.871546 324.367136 398.153843 
C 348.660979 395.436141 377.840062 385.09705 405.478029 369.413636 
C 433.115996 353.730221 456.95633 333.982965 471.748474 314.520971 
C 486.540619 295.058977 491.07686 277.471231 484.358144 265.631229 
C 477.639428 253.791227 460.214308 248.665654 435.920464 251.383357 
C 411.626621 254.101059 382.447538 264.44015 354.809571 280.123564 
z
" style="fill:none;stroke:#b22222;stroke-linejoin:miter;"/>
   </g>
   <g id="patch_5">
    <path clip-path="url(#pe9653cbb85)" d="M 342.142457 257.801047 
C 300.685506 281.326168 264.925005 310.947052 242.736789 340.140043 
C 220.548572 369.333034 213.74421 395.714654 223.822284 413.474656 
C 233.900358 431.234659 260.038038 438.923019 296.478803 434.846465 
C 332.919569 430.769911 376.688192 415.261274 418.145143 391.736153 
C 459.602094 368.211032 495.362595 338.590148 517.550811 309.397157 
C 539.739028 280.204166 546.54339 253.822546 536.465316 236.062544 
C 526.387242 218.302541 500.249562 210.614181 463.808797 214.690735 
C 427.368031 218.767289 383.599408 234.275926 342.142457 257.801047 
z
" style="fill:none;stroke:#b22222;stroke-linejoin:miter;"/>
   </g>
   <g id="patch_6">
    <path clip-path="url(#pe9653cbb85)" d="M 557.430694 354.189176 
C 544.962009 361.988888 533.249628 369.865525 524.873066 376.084348 
C 516.496504 382.303172 512.139671 386.356444 512.762108 387.351477 
C 513.384545 388.34651 518.935433 386.202065 528.192254 381.390431 
C 537.449075 376.578796 549.65605 369.492821 562.124735 361.69311 
C 574.593419 353.893398 586.305801 346.016761 594.682363 339.797937 
C 603.058925 333.579114 607.415758 329.525842 606.793321 328.530809 
C 606.170884 327.535776 600.619995 329.680221 591.363174 334.491855 
C 582.106353 339.303489 569.899378 346.389464 557.430694 354.189176 
z
" style="fill:none;stroke:#0000ff;stroke-linejoin:miter;"/>
   </g>
   <g id="patch_7">
    <path clip-path="url(#pe9653cbb85)" d="M 555.083673 350.437209 
C 530.146304 366.036633 506.721541 381.789906 489.968417 394.227554 
C 473.215294 406.665201 464.501627 414.771744 465.746501 416.761811 
C 466.991375 418.751877 478.093152 414.462987 496.606794 404.839718 
C 515.120436 395.21645 539.534386 381.0445 564.471755 365.445076 
C 589.409125 349.845653 612.833887 334.09238 629.587011 321.654732 
C 646.340135 309.217084 655.053802 301.110541 653.808928 299.120475 
C 652.564053 297.130408 641.462276 301.419299 622.948635 311.042567 
C 604.434993 320.665836 580.021042 334.837786 555.083673 350.437209 
z
" style="fill:none;stroke:#0000ff;stroke-linejoin:miter;"/>
   </g>
   <g id="patch_8">
    <path clip-path="url(#pe9653cbb85)" d="M 552.736653 346.685243 
C 515.330599 370.084378 480.193455 393.714288 455.063769 412.370759 
C 429.934083 431.027231 416.863583 443.187045 418.730894 446.172145 
C 420.598206 449.157244 437.250871 442.723909 465.021334 428.289006 
C 492.791797 413.854103 529.412722 392.596178 566.818776 369.197043 
C 604.22483 345.797908 639.361974 322.167998 664.491659 303.511526 
C 689.621345 284.855055 702.691845 272.695241 700.824534 269.710141 
C 698.957223 266.725041 682.304558 273.158377 654.534095 287.59328 
C 626.763632 302.028183 590.142707 323.286107 552.736653 346.685243 
z
" style="fill:none;stroke:#0000ff;stroke-linejoin:miter;"/>
   </g>
   <g id="matplotlib.axis_1">
    <g id="xtick_1">
     <g id="line2d_1">
      <path clip-path="url(#pe9653cbb85)" d="M 97.2 630 
L 97.2 86.4 
" style="fill:none;stroke:#b0b0b0;stroke-linecap:square;stroke-width:0.8;"/>
     </g>
     <g id="line2d_2">
      <defs>
       <path d="M 0 0 
L 0 3.5 
" id="me6f702d4c0" style="stroke:#000000;stroke-width:0.8;"/>
      </defs>
      <g>
       <use style="stroke:#000000;stroke-width:0.8;" x="97.2" xlink:href="#me6f702d4c0" y="630"/>
      </g>
     </g>
     <g id="text_1">
      <!-- 100 -->
      <defs>
       <path d="M 12.40625 8.296875 
L 28.515625 8.296875 
L 28.515625 63.921875 
L 10.984375 60.40625 
L 10.984375 69.390625 
L 28.421875 72.90625 
L 38.28125 72.90625 
L 38.28125 8.296875 
L 54.390625 8.296875 
L 54.390625 0 
L 12.40625 0 
z
" id="DejaVuSans-49"/>
       <path d="M 31.78125 66.40625 
Q 24.171875 66.40625 20.328125 58.90625 
Q 16.5 51.421875 16.5 36.375 
Q 16.5 21.390625 20.328125 13.890625 
Q 24.171875 6.390625 31.78125 6.390625 
Q 39.453125 6.390625 43.28125 13.890625 
Q 47.125 21.390625 47.125 36.375 
Q 47.125 51.421875 43.28125 58.90625 
Q 39.453125 66.40625 31.78125 66.40625 
z
M 31.78125 74.21875 
Q 44.046875 74.21875 50.515625 64.515625 
Q 56.984375 54.828125 56.984375 36.375 
Q 56.984375 17.96875 50.515625 8.265625 
Q 44.046875 -1.421875 31.78125 -1.421875 
Q 19.53125 -1.421875 13.0625 8.265625 
Q 6.59375 17.96875 6.59375 36.375 
Q 6.59375 54.828125 13.0625 64.515625 
Q 19.53125 74.21875 31.78125 74.21875 
z
" id="DejaVuSans-48"/>
      </defs>
      <g transform="translate(87.65625 644.598438)scale(0.1 -0.1)">
       <use xlink:href="#DejaVuSans-49"/>
       <use x="63.623047" xlink:href="#DejaVuSans-48"/>
       <use x="127.246094" xlink:href="#DejaVuSans-48"/>
      </g>
     </g>
    </g>
    <g id="xtick_2">
     <g id="line2d_3">
      <path clip-path="url(#pe9653cbb85)" d="M 205.92 630 
L 205.92 86.4 
" style="fill:none;stroke:#b0b0b0;stroke-linecap:square;stroke-width:0.8;"/>
     </g>
     <g id="line2d_4">
      <g>
       <use style="stroke:#000000;stroke-width:0.8;" x="205.92" xlink:href="#me6f702d4c0" y="630"/>
      </g>
     </g>
     <g id="text_2">
      <!-- 120 -->
      <defs>
       <path d="M 19.1875 8.296875 
L 53.609375 8.296875 
L 53.609375 0 
L 7.328125 0 
L 7.328125 8.296875 
Q 12.9375 14.109375 22.625 23.890625 
Q 32.328125 33.6875 34.8125 36.53125 
Q 39.546875 41.84375 41.421875 45.53125 
Q 43.3125 49.21875 43.3125 52.78125 
Q 43.3125 58.59375 39.234375 62.25 
Q 35.15625 65.921875 28.609375 65.921875 
Q 23.96875 65.921875 18.8125 64.3125 
Q 13.671875 62.703125 7.8125 59.421875 
L 7.8125 69.390625 
Q 13.765625 71.78125 18.9375 73 
Q 24.125 74.21875 28.421875 74.21875 
Q 39.75 74.21875 46.484375 68.546875 
Q 53.21875 62.890625 53.21875 53.421875 
Q 53.21875 48.921875 51.53125 44.890625 
Q 49.859375 40.875 45.40625 35.40625 
Q 44.1875 33.984375 37.640625 27.21875 
Q 31.109375 20.453125 19.1875 8.296875 
z
" id="DejaVuSans-50"/>
      </defs>
      <g transform="translate(196.37625 644.598438)scale(0.1 -0.1)">
       <use xlink:href="#DejaVuSans-49"/>
       <use x="63.623047" xlink:href="#DejaVuSans-50"/>
       <use x="127.246094" xlink:href="#DejaVuSans-48"/>
      </g>
     </g>
    </g>
    <g id="xtick_3">
     <g id="line2d_5">
      <path clip-path="url(#pe9653cbb85)" d="M 314.64 630 
L 314.64 86.4 
" style="fill:none;stroke:#b0b0b0;stroke-linecap:square;stroke-width:0.8;"/>
     </g>
     <g id="line2d_6">
      <g>
       <use style="stroke:#000000;stroke-width:0.8;" x="314.64" xlink:href="#me6f702d4c0" y="630"/>
      </g>
     </g>
     <g id="text_3">
      <!-- 140 -->
      <defs>
       <path d="M 37.796875 64.3125 
L 12.890625 25.390625 
L 37.796875 25.390625 
z
M 35.203125 72.90625 
L 47.609375 72.90625 
L 47.609375 25.390625 
L 58.015625 25.390625 
L 58.015625 17.1875 
L 47.609375 17.1875 
L 47.609375 0 
L 37.796875 0 
L 37.796875 17.1875 
L 4.890625 17.1875 
L 4.890625 26.703125 
z
" id="DejaVuSans-52"/>
      </defs>
      <g transform="translate(305.09625 644.598438)scale(0.1 -0.1)">
       <use xlink:href="#DejaVuSans-49"/>
       <use x="63.623047" xlink:href="#DejaVuSans-52"/>
       <use x="127.246094" xlink:href="#DejaVuSans-48"/>
      </g>
     </g>
    </g>
    <g id="xtick_4">
     <g id="line2d_7">
      <path clip-path="url(#pe9653cbb85)" d="M 423.36 630 
L 423.36 86.4 
" style="fill:none;stroke:#b0b0b0;stroke-linecap:square;stroke-width:0.8;"/>
     </g>
     <g id="line2d_8">
      <g>
       <use style="stroke:#000000;stroke-width:0.8;" x="423.36" xlink:href="#me6f702d4c0" y="630"/>
      </g>
     </g>
     <g id="text_4">
      <!-- 160 -->
      <defs>
       <path d="M 33.015625 40.375 
Q 26.375 40.375 22.484375 35.828125 
Q 18.609375 31.296875 18.609375 23.390625 
Q 18.609375 15.53125 22.484375 10.953125 
Q 26.375 6.390625 33.015625 6.390625 
Q 39.65625 6.390625 43.53125 10.953125 
Q 47.40625 15.53125 47.40625 23.390625 
Q 47.40625 31.296875 43.53125 35.828125 
Q 39.65625 40.375 33.015625 40.375 
z
M 52.59375 71.296875 
L 52.59375 62.3125 
Q 48.875 64.0625 45.09375 64.984375 
Q 41.3125 65.921875 37.59375 65.921875 
Q 27.828125 65.921875 22.671875 59.328125 
Q 17.53125 52.734375 16.796875 39.40625 
Q 19.671875 43.65625 24.015625 45.921875 
Q 28.375 48.1875 33.59375 48.1875 
Q 44.578125 48.1875 50.953125 41.515625 
Q 57.328125 34.859375 57.328125 23.390625 
Q 57.328125 12.15625 50.6875 5.359375 
Q 44.046875 -1.421875 33.015625 -1.421875 
Q 20.359375 -1.421875 13.671875 8.265625 
Q 6.984375 17.96875 6.984375 36.375 
Q 6.984375 53.65625 15.1875 63.9375 
Q 23.390625 74.21875 37.203125 74.21875 
Q 40.921875 74.21875 44.703125 73.484375 
Q 48.484375 72.75 52.59375 71.296875 
z
" id="DejaVuSans-54"/>
      </defs>
      <g transform="translate(413.81625 644.598438)scale(0.1 -0.1)">
       <use xlink:href="#DejaVuSans-49"/>
       <use x="63.623047" xlink:href="#DejaVuSans-54"/>
       <use x="127.246094" xlink:href="#DejaVuSans-48"/>
      </g>
     </g>
    </g>
    <g id="xtick_5">
     <g id="line2d_9">
      <path clip-path="url(#pe9653cbb85)" d="M 532.08 630 
L 532.08 86.4 
" style="fill:none;stroke:#b0b0b0;stroke-linecap:square;stroke-width:0.8;"/>
     </g>
     <g id="line2d_10">
      <g>
       <use style="stroke:#000000;stroke-width:0.8;" x="532.08" xlink:href="#me6f702d4c0" y="630"/>
      </g>
     </g>
     <g id="text_5">
      <!-- 180 -->
      <defs>
       <path d="M 31.78125 34.625 
Q 24.75 34.625 20.71875 30.859375 
Q 16.703125 27.09375 16.703125 20.515625 
Q 16.703125 13.921875 20.71875 10.15625 
Q 24.75 6.390625 31.78125 6.390625 
Q 38.8125 6.390625 42.859375 10.171875 
Q 46.921875 13.96875 46.921875 20.515625 
Q 46.921875 27.09375 42.890625 30.859375 
Q 38.875 34.625 31.78125 34.625 
z
M 21.921875 38.8125 
Q 15.578125 40.375 12.03125 44.71875 
Q 8.5 49.078125 8.5 55.328125 
Q 8.5 64.0625 14.71875 69.140625 
Q 20.953125 74.21875 31.78125 74.21875 
Q 42.671875 74.21875 48.875 69.140625 
Q 55.078125 64.0625 55.078125 55.328125 
Q 55.078125 49.078125 51.53125 44.71875 
Q 48 40.375 41.703125 38.8125 
Q 48.828125 37.15625 52.796875 32.3125 
Q 56.78125 27.484375 56.78125 20.515625 
Q 56.78125 9.90625 50.3125 4.234375 
Q 43.84375 -1.421875 31.78125 -1.421875 
Q 19.734375 -1.421875 13.25 4.234375 
Q 6.78125 9.90625 6.78125 20.515625 
Q 6.78125 27.484375 10.78125 32.3125 
Q 14.796875 37.15625 21.921875 38.8125 
z
M 18.3125 54.390625 
Q 18.3125 48.734375 21.84375 45.5625 
Q 25.390625 42.390625 31.78125 42.390625 
Q 38.140625 42.390625 41.71875 45.5625 
Q 45.3125 48.734375 45.3125 54.390625 
Q 45.3125 60.0625 41.71875 63.234375 
Q 38.140625 66.40625 31.78125 66.40625 
Q 25.390625 66.40625 21.84375 63.234375 
Q 18.3125 60.0625 18.3125 54.390625 
z
" id="DejaVuSans-56"/>
      </defs>
      <g transform="translate(522.53625 644.598438)scale(0.1 -0.1)">
       <use xlink:href="#DejaVuSans-49"/>
       <use x="63.623047" xlink:href="#DejaVuSans-56"/>
       <use x="127.246094" xlink:href="#DejaVuSans-48"/>
      </g>
     </g>
    </g>
    <g id="xtick_6">
     <g id="line2d_11">
      <path clip-path="url(#pe9653cbb85)" d="M 640.8 630 
L 640.8 86.4 
" style="fill:none;stroke:#b0b0b0;stroke-linecap:square;stroke-width:0.8;"/>
     </g>
     <g id="line2d_12">
      <g>
       <use style="stroke:#000000;stroke-width:0.8;" x="640.8" xlink:href="#me6f702d4c0" y="630"/>
      </g>
     </g>
     <g id="text_6">
      <!-- 200 -->
      <g transform="translate(631.25625 644.598438)scale(0.1 -0.1)">
       <use xlink:href="#DejaVuSans-50"/>
       <use x="63.623047" xlink:href="#DejaVuSans-48"/>
       <use x="127.246094" xlink:href="#DejaVuSans-48"/>
      </g>
     </g>
    </g>
    <g id="text_7">
     <!-- X (cm) -->
     <defs>
      <path d="M 6.296875 72.90625 
L 16.890625 72.90625 
L 35.015625 45.796875 
L 53.21875 72.90625 
L 63.8125 72.90625 
L 40.375 37.890625 
L 65.375 0 
L 54.78125 0 
L 34.28125 31 
L 13.625 0 
L 2.984375 0 
L 29 38.921875 
z
" id="DejaVuSans-88"/>
      <path id="DejaVuSans-32"/>
      <path d="M 31 75.875 
Q 24.46875 64.65625 21.28125 53.65625 
Q 18.109375 42.671875 18.109375 31.390625 
Q 18.109375 20.125 21.3125 9.0625 
Q 24.515625 -2 31 -13.1875 
L 23.1875 -13.1875 
Q 15.875 -1.703125 12.234375 9.375 
Q 8.59375 20.453125 8.59375 31.390625 
Q 8.59375 42.28125 12.203125 53.3125 
Q 15.828125 64.359375 23.1875 75.875 
z
" id="DejaVuSans-40"/>
      <path d="M 48.78125 52.59375 
L 48.78125 44.1875 
Q 44.96875 46.296875 41.140625 47.34375 
Q 37.3125 48.390625 33.40625 48.390625 
Q 24.65625 48.390625 19.8125 42.84375 
Q 14.984375 37.3125 14.984375 27.296875 
Q 14.984375 17.28125 19.8125 11.734375 
Q 24.65625 6.203125 33.40625 6.203125 
Q 37.3125 6.203125 41.140625 7.25 
Q 44.96875 8.296875 48.78125 10.40625 
L 48.78125 2.09375 
Q 45.015625 0.34375 40.984375 -0.53125 
Q 36.96875 -1.421875 32.421875 -1.421875 
Q 20.0625 -1.421875 12.78125 6.34375 
Q 5.515625 14.109375 5.515625 27.296875 
Q 5.515625 40.671875 12.859375 48.328125 
Q 20.21875 56 33.015625 56 
Q 37.15625 56 41.109375 55.140625 
Q 45.0625 54.296875 48.78125 52.59375 
z
" id="DejaVuSans-99"/>
      <path d="M 52 44.1875 
Q 55.375 50.25 60.0625 53.125 
Q 64.75 56 71.09375 56 
Q 79.640625 56 84.28125 50.015625 
Q 88.921875 44.046875 88.921875 33.015625 
L 88.921875 0 
L 79.890625 0 
L 79.890625 32.71875 
Q 79.890625 40.578125 77.09375 44.375 
Q 74.3125 48.1875 68.609375 48.1875 
Q 61.625 48.1875 57.5625 43.546875 
Q 53.515625 38.921875 53.515625 30.90625 
L 53.515625 0 
L 44.484375 0 
L 44.484375 32.71875 
Q 44.484375 40.625 41.703125 44.40625 
Q 38.921875 48.1875 33.109375 48.1875 
Q 26.21875 48.1875 22.15625 43.53125 
Q 18.109375 38.875 18.109375 30.90625 
L 18.109375 0 
L 9.078125 0 
L 9.078125 54.6875 
L 18.109375 54.6875 
L 18.109375 46.1875 
Q 21.1875 51.21875 25.484375 53.609375 
Q 29.78125 56 35.6875 56 
Q 41.65625 56 45.828125 52.96875 
Q 50 49.953125 52 44.1875 
z
" id="DejaVuSans-109"/>
      <path d="M 8.015625 75.875 
L 15.828125 75.875 
Q 23.140625 64.359375 26.78125 53.3125 
Q 30.421875 42.28125 30.421875 31.390625 
Q 30.421875 20.453125 26.78125 9.375 
Q 23.140625 -1.703125 15.828125 -13.1875 
L 8.015625 -13.1875 
Q 14.5 -2 17.703125 9.0625 
Q 20.90625 20.125 20.90625 31.390625 
Q 20.90625 42.671875 17.703125 53.65625 
Q 14.5 64.65625 8.015625 75.875 
z
" id="DejaVuSans-41"/>
     </defs>
     <g transform="translate(352.464844 658.276562)scale(0.1 -0.1)">
      <use xlink:href="#DejaVuSans-88"/>
      <use x="68.505859" xlink:href="#DejaVuSans-32"/>
      <use x="100.292969" xlink:href="#DejaVuSans-40"/>
      <use x="139.306641" xlink:href="#DejaVuSans-99"/>
      <use x="194.287109" xlink:href="#DejaVuSans-109"/>
      <use x="291.699219" xlink:href="#DejaVuSans-41"/>
     </g>
    </g>
   </g>
   <g id="matplotlib.axis_2">
    <g id="ytick_1">
     <g id="line2d_13">
      <path clip-path="url(#pe9653cbb85)" d="M 90 630 
L 648 630 
" style="fill:none;stroke:#b0b0b0;stroke-linecap:square;stroke-width:0.8;"/>
     </g>
     <g id="line2d_14">
      <defs>
       <path d="M 0 0 
L -3.5 0 
" id="m1413e40c29" style="stroke:#000000;stroke-width:0.8;"/>
      </defs>
      <g>
       <use style="stroke:#000000;stroke-width:0.8;" x="90" xlink:href="#m1413e40c29" y="630"/>
      </g>
     </g>
     <g id="text_8">
      <!-- 300 -->
      <defs>
       <path d="M 40.578125 39.3125 
Q 47.65625 37.796875 51.625 33 
Q 55.609375 28.21875 55.609375 21.1875 
Q 55.609375 10.40625 48.1875 4.484375 
Q 40.765625 -1.421875 27.09375 -1.421875 
Q 22.515625 -1.421875 17.65625 -0.515625 
Q 12.796875 0.390625 7.625 2.203125 
L 7.625 11.71875 
Q 11.71875 9.328125 16.59375 8.109375 
Q 21.484375 6.890625 26.8125 6.890625 
Q 36.078125 6.890625 40.9375 10.546875 
Q 45.796875 14.203125 45.796875 21.1875 
Q 45.796875 27.640625 41.28125 31.265625 
Q 36.765625 34.90625 28.71875 34.90625 
L 20.21875 34.90625 
L 20.21875 43.015625 
L 29.109375 43.015625 
Q 36.375 43.015625 40.234375 45.921875 
Q 44.09375 48.828125 44.09375 54.296875 
Q 44.09375 59.90625 40.109375 62.90625 
Q 36.140625 65.921875 28.71875 65.921875 
Q 24.65625 65.921875 20.015625 65.03125 
Q 15.375 64.15625 9.8125 62.3125 
L 9.8125 71.09375 
Q 15.4375 72.65625 20.34375 73.4375 
Q 25.25 74.21875 29.59375 74.21875 
Q 40.828125 74.21875 47.359375 69.109375 
Q 53.90625 64.015625 53.90625 55.328125 
Q 53.90625 49.265625 50.4375 45.09375 
Q 46.96875 40.921875 40.578125 39.3125 
z
" id="DejaVuSans-51"/>
      </defs>
      <g transform="translate(63.9125 633.799219)scale(0.1 -0.1)">
       <use xlink:href="#DejaVuSans-51"/>
       <use x="63.623047" xlink:href="#DejaVuSans-48"/>
       <use x="127.246094" xlink:href="#DejaVuSans-48"/>
      </g>
     </g>
    </g>
    <g id="ytick_2">
     <g id="line2d_15">
      <path clip-path="url(#pe9653cbb85)" d="M 90 521.28 
L 648 521.28 
" style="fill:none;stroke:#b0b0b0;stroke-linecap:square;stroke-width:0.8;"/>
     </g>
     <g id="line2d_16">
      <g>
       <use style="stroke:#000000;stroke-width:0.8;" x="90" xlink:href="#m1413e40c29" y="521.28"/>
      </g>
     </g>
     <g id="text_9">
      <!-- 320 -->
      <g transform="translate(63.9125 525.079219)scale(0.1 -0.1)">
       <use xlink:href="#DejaVuSans-51"/>
       <use x="63.623047" xlink:href="#DejaVuSans-50"/>
       <use x="127.246094" xlink:href="#DejaVuSans-48"/>
      </g>
     </g>
    </g>
    <g id="ytick_3">
     <g id="line2d_17">
      <path clip-path="url(#pe9653cbb85)" d="M 90 412.56 
L 648 412.56 
" style="fill:none;stroke:#b0b0b0;stroke-linecap:square;stroke-width:0.8;"/>
     </g>
     <g id="line2d_18">
      <g>
       <use style="stroke:#000000;stroke-width:0.8;" x="90" xlink:href="#m1413e40c29" y="412.56"/>
      </g>
     </g>
     <g id="text_10">
      <!-- 340 -->
      <g transform="translate(63.9125 416.359219)scale(0.1 -0.1)">
       <use xlink:href="#DejaVuSans-51"/>
       <use x="63.623047" xlink:href="#DejaVuSans-52"/>
       <use x="127.246094" xlink:href="#DejaVuSans-48"/>
      </g>
     </g>
    </g>
    <g id="ytick_4">
     <g id="line2d_19">
      <path clip-path="url(#pe9653cbb85)" d="M 90 303.84 
L 648 303.84 
" style="fill:none;stroke:#b0b0b0;stroke-linecap:square;stroke-width:0.8;"/>
     </g>
     <g id="line2d_20">
      <g>
       <use style="stroke:#000000;stroke-width:0.8;" x="90" xlink:href="#m1413e40c29" y="303.84"/>
      </g>
     </g>
     <g id="text_11">
      <!-- 360 -->
      <g transform="translate(63.9125 307.639219)scale(0.1 -0.1)">
       <use xlink:href="#DejaVuSans-51"/>
       <use x="63.623047" xlink:href="#DejaVuSans-54"/>
       <use x="127.246094" xlink:href="#DejaVuSans-48"/>
      </g>
     </g>
    </g>
    <g id="ytick_5">
     <g id="line2d_21">
      <path clip-path="url(#pe9653cbb85)" d="M 90 195.12 
L 648 195.12 
" style="fill:none;stroke:#b0b0b0;stroke-linecap:square;stroke-width:0.8;"/>
     </g>
     <g id="line2d_22">
      <g>
       <use style="stroke:#000000;stroke-width:0.8;" x="90" xlink:href="#m1413e40c29" y="195.12"/>
      </g>
     </g>
     <g id="text_12">
      <!-- 380 -->
      <g transform="translate(63.9125 198.919219)scale(0.1 -0.1)">
       <use xlink:href="#DejaVuSans-51"/>
       <use x="63.623047" xlink:href="#DejaVuSans-56"/>
       <use x="127.246094" xlink:href="#DejaVuSans-48"/>
      </g>
     </g>
    </g>
    <g id="ytick_6">
     <g id="line2d_23">
      <path clip-path="url(#pe9653cbb85)" d="M 90 86.4 
L 648 86.4 
" style="fill:none;stroke:#b0b0b0;stroke-linecap:square;stroke-width:0.8;"/>
     </g>
     <g id="line2d_24">
      <g>
       <use style="stroke:#000000;stroke-width:0.8;" x="90" xlink:href="#m1413e40c29" y="86.4"/>
      </g>
     </g>
     <g id="text_13">
      <!-- 400 -->
      <g transform="translate(63.9125 90.199219)scale(0.1 -0.1)">
       <use xlink:href="#DejaVuSans-52"/>
       <use x="63.623047" xlink:href="#DejaVuSans-48"/>
       <use x="127.246094" xlink:href="#DejaVuSans-48"/>
      </g>
     </g>
    </g>
    <g id="text_14">
     <!-- Y (cm) -->
     <defs>
      <path d="M -0.203125 72.90625 
L 10.40625 72.90625 
L 30.609375 42.921875 
L 50.6875 72.90625 
L 61.28125 72.90625 
L 35.5 34.71875 
L 35.5 0 
L 25.59375 0 
L 25.59375 34.71875 
z
" id="DejaVuSans-89"/>
     </defs>
     <g transform="translate(57.832812 374.364062)rotate(-90)scale(0.1 -0.1)">
      <use xlink:href="#DejaVuSans-89"/>
      <use x="61.083984" xlink:href="#DejaVuSans-32"/>
      <use x="92.871094" xlink:href="#DejaVuSans-40"/>
      <use x="131.884766" xlink:href="#DejaVuSans-99"/>
      <use x="186.865234" xlink:href="#DejaVuSans-109"/>
      <use x="284.277344" xlink:href="#DejaVuSans-41"/>
     </g>
    </g>
   </g>
   <g id="patch_9">
    <path d="M 90 630 
L 90 86.4 
" style="fill:none;stroke:#000000;stroke-linecap:square;stroke-linejoin:miter;stroke-width:0.8;"/>
   </g>
   <g id="patch_10">
    <path d="M 648 630 
L 648 86.4 
" style="fill:none;stroke:#000000;stroke-linecap:square;stroke-linejoin:miter;stroke-width:0.8;"/>
   </g>
   <g id="patch_11">
    <path d="M 90 630 
L 648 630 
" style="fill:none;stroke:#000000;stroke-linecap:square;stroke-linejoin:miter;stroke-width:0.8;"/>
   </g>
   <g id="patch_12">
    <path d="M 90 86.4 
L 648 86.4 
" style="fill:none;stroke:#000000;stroke-linecap:square;stroke-linejoin:miter;stroke-width:0.8;"/>
   </g>
   <g id="text_15">
    <!-- Uncertainty Ellipse for Measurements of good right [zoomed in] Run -->
    <defs>
     <path d="M 8.6875 72.90625 
L 18.609375 72.90625 
L 18.609375 28.609375 
Q 18.609375 16.890625 22.84375 11.734375 
Q 27.09375 6.59375 36.625 6.59375 
Q 46.09375 6.59375 50.34375 11.734375 
Q 54.59375 16.890625 54.59375 28.609375 
L 54.59375 72.90625 
L 64.5 72.90625 
L 64.5 27.390625 
Q 64.5 13.140625 57.4375 5.859375 
Q 50.390625 -1.421875 36.625 -1.421875 
Q 22.796875 -1.421875 15.734375 5.859375 
Q 8.6875 13.140625 8.6875 27.390625 
z
" id="DejaVuSans-85"/>
     <path d="M 54.890625 33.015625 
L 54.890625 0 
L 45.90625 0 
L 45.90625 32.71875 
Q 45.90625 40.484375 42.875 44.328125 
Q 39.84375 48.1875 33.796875 48.1875 
Q 26.515625 48.1875 22.3125 43.546875 
Q 18.109375 38.921875 18.109375 30.90625 
L 18.109375 0 
L 9.078125 0 
L 9.078125 54.6875 
L 18.109375 54.6875 
L 18.109375 46.1875 
Q 21.34375 51.125 25.703125 53.5625 
Q 30.078125 56 35.796875 56 
Q 45.21875 56 50.046875 50.171875 
Q 54.890625 44.34375 54.890625 33.015625 
z
" id="DejaVuSans-110"/>
     <path d="M 56.203125 29.59375 
L 56.203125 25.203125 
L 14.890625 25.203125 
Q 15.484375 15.921875 20.484375 11.0625 
Q 25.484375 6.203125 34.421875 6.203125 
Q 39.59375 6.203125 44.453125 7.46875 
Q 49.3125 8.734375 54.109375 11.28125 
L 54.109375 2.78125 
Q 49.265625 0.734375 44.1875 -0.34375 
Q 39.109375 -1.421875 33.890625 -1.421875 
Q 20.796875 -1.421875 13.15625 6.1875 
Q 5.515625 13.8125 5.515625 26.8125 
Q 5.515625 40.234375 12.765625 48.109375 
Q 20.015625 56 32.328125 56 
Q 43.359375 56 49.78125 48.890625 
Q 56.203125 41.796875 56.203125 29.59375 
z
M 47.21875 32.234375 
Q 47.125 39.59375 43.09375 43.984375 
Q 39.0625 48.390625 32.421875 48.390625 
Q 24.90625 48.390625 20.390625 44.140625 
Q 15.875 39.890625 15.1875 32.171875 
z
" id="DejaVuSans-101"/>
     <path d="M 41.109375 46.296875 
Q 39.59375 47.171875 37.8125 47.578125 
Q 36.03125 48 33.890625 48 
Q 26.265625 48 22.1875 43.046875 
Q 18.109375 38.09375 18.109375 28.8125 
L 18.109375 0 
L 9.078125 0 
L 9.078125 54.6875 
L 18.109375 54.6875 
L 18.109375 46.1875 
Q 20.953125 51.171875 25.484375 53.578125 
Q 30.03125 56 36.53125 56 
Q 37.453125 56 38.578125 55.875 
Q 39.703125 55.765625 41.0625 55.515625 
z
" id="DejaVuSans-114"/>
     <path d="M 18.3125 70.21875 
L 18.3125 54.6875 
L 36.8125 54.6875 
L 36.8125 47.703125 
L 18.3125 47.703125 
L 18.3125 18.015625 
Q 18.3125 11.328125 20.140625 9.421875 
Q 21.96875 7.515625 27.59375 7.515625 
L 36.8125 7.515625 
L 36.8125 0 
L 27.59375 0 
Q 17.1875 0 13.234375 3.875 
Q 9.28125 7.765625 9.28125 18.015625 
L 9.28125 47.703125 
L 2.6875 47.703125 
L 2.6875 54.6875 
L 9.28125 54.6875 
L 9.28125 70.21875 
z
" id="DejaVuSans-116"/>
     <path d="M 34.28125 27.484375 
Q 23.390625 27.484375 19.1875 25 
Q 14.984375 22.515625 14.984375 16.5 
Q 14.984375 11.71875 18.140625 8.90625 
Q 21.296875 6.109375 26.703125 6.109375 
Q 34.1875 6.109375 38.703125 11.40625 
Q 43.21875 16.703125 43.21875 25.484375 
L 43.21875 27.484375 
z
M 52.203125 31.203125 
L 52.203125 0 
L 43.21875 0 
L 43.21875 8.296875 
Q 40.140625 3.328125 35.546875 0.953125 
Q 30.953125 -1.421875 24.3125 -1.421875 
Q 15.921875 -1.421875 10.953125 3.296875 
Q 6 8.015625 6 15.921875 
Q 6 25.140625 12.171875 29.828125 
Q 18.359375 34.515625 30.609375 34.515625 
L 43.21875 34.515625 
L 43.21875 35.40625 
Q 43.21875 41.609375 39.140625 45 
Q 35.0625 48.390625 27.6875 48.390625 
Q 23 48.390625 18.546875 47.265625 
Q 14.109375 46.140625 10.015625 43.890625 
L 10.015625 52.203125 
Q 14.9375 54.109375 19.578125 55.046875 
Q 24.21875 56 28.609375 56 
Q 40.484375 56 46.34375 49.84375 
Q 52.203125 43.703125 52.203125 31.203125 
z
" id="DejaVuSans-97"/>
     <path d="M 9.421875 54.6875 
L 18.40625 54.6875 
L 18.40625 0 
L 9.421875 0 
z
M 9.421875 75.984375 
L 18.40625 75.984375 
L 18.40625 64.59375 
L 9.421875 64.59375 
z
" id="DejaVuSans-105"/>
     <path d="M 32.171875 -5.078125 
Q 28.375 -14.84375 24.75 -17.8125 
Q 21.140625 -20.796875 15.09375 -20.796875 
L 7.90625 -20.796875 
L 7.90625 -13.28125 
L 13.1875 -13.28125 
Q 16.890625 -13.28125 18.9375 -11.515625 
Q 21 -9.765625 23.484375 -3.21875 
L 25.09375 0.875 
L 2.984375 54.6875 
L 12.5 54.6875 
L 29.59375 11.921875 
L 46.6875 54.6875 
L 56.203125 54.6875 
z
" id="DejaVuSans-121"/>
     <path d="M 9.8125 72.90625 
L 55.90625 72.90625 
L 55.90625 64.59375 
L 19.671875 64.59375 
L 19.671875 43.015625 
L 54.390625 43.015625 
L 54.390625 34.71875 
L 19.671875 34.71875 
L 19.671875 8.296875 
L 56.78125 8.296875 
L 56.78125 0 
L 9.8125 0 
z
" id="DejaVuSans-69"/>
     <path d="M 9.421875 75.984375 
L 18.40625 75.984375 
L 18.40625 0 
L 9.421875 0 
z
" id="DejaVuSans-108"/>
     <path d="M 18.109375 8.203125 
L 18.109375 -20.796875 
L 9.078125 -20.796875 
L 9.078125 54.6875 
L 18.109375 54.6875 
L 18.109375 46.390625 
Q 20.953125 51.265625 25.265625 53.625 
Q 29.59375 56 35.59375 56 
Q 45.5625 56 51.78125 48.09375 
Q 58.015625 40.1875 58.015625 27.296875 
Q 58.015625 14.40625 51.78125 6.484375 
Q 45.5625 -1.421875 35.59375 -1.421875 
Q 29.59375 -1.421875 25.265625 0.953125 
Q 20.953125 3.328125 18.109375 8.203125 
z
M 48.6875 27.296875 
Q 48.6875 37.203125 44.609375 42.84375 
Q 40.53125 48.484375 33.40625 48.484375 
Q 26.265625 48.484375 22.1875 42.84375 
Q 18.109375 37.203125 18.109375 27.296875 
Q 18.109375 17.390625 22.1875 11.75 
Q 26.265625 6.109375 33.40625 6.109375 
Q 40.53125 6.109375 44.609375 11.75 
Q 48.6875 17.390625 48.6875 27.296875 
z
" id="DejaVuSans-112"/>
     <path d="M 44.28125 53.078125 
L 44.28125 44.578125 
Q 40.484375 46.53125 36.375 47.5 
Q 32.28125 48.484375 27.875 48.484375 
Q 21.1875 48.484375 17.84375 46.4375 
Q 14.5 44.390625 14.5 40.28125 
Q 14.5 37.15625 16.890625 35.375 
Q 19.28125 33.59375 26.515625 31.984375 
L 29.59375 31.296875 
Q 39.15625 29.25 43.1875 25.515625 
Q 47.21875 21.78125 47.21875 15.09375 
Q 47.21875 7.46875 41.1875 3.015625 
Q 35.15625 -1.421875 24.609375 -1.421875 
Q 20.21875 -1.421875 15.453125 -0.5625 
Q 10.6875 0.296875 5.421875 2 
L 5.421875 11.28125 
Q 10.40625 8.6875 15.234375 7.390625 
Q 20.0625 6.109375 24.8125 6.109375 
Q 31.15625 6.109375 34.5625 8.28125 
Q 37.984375 10.453125 37.984375 14.40625 
Q 37.984375 18.0625 35.515625 20.015625 
Q 33.0625 21.96875 24.703125 23.78125 
L 21.578125 24.515625 
Q 13.234375 26.265625 9.515625 29.90625 
Q 5.8125 33.546875 5.8125 39.890625 
Q 5.8125 47.609375 11.28125 51.796875 
Q 16.75 56 26.8125 56 
Q 31.78125 56 36.171875 55.265625 
Q 40.578125 54.546875 44.28125 53.078125 
z
" id="DejaVuSans-115"/>
     <path d="M 37.109375 75.984375 
L 37.109375 68.5 
L 28.515625 68.5 
Q 23.6875 68.5 21.796875 66.546875 
Q 19.921875 64.59375 19.921875 59.515625 
L 19.921875 54.6875 
L 34.71875 54.6875 
L 34.71875 47.703125 
L 19.921875 47.703125 
L 19.921875 0 
L 10.890625 0 
L 10.890625 47.703125 
L 2.296875 47.703125 
L 2.296875 54.6875 
L 10.890625 54.6875 
L 10.890625 58.5 
Q 10.890625 67.625 15.140625 71.796875 
Q 19.390625 75.984375 28.609375 75.984375 
z
" id="DejaVuSans-102"/>
     <path d="M 30.609375 48.390625 
Q 23.390625 48.390625 19.1875 42.75 
Q 14.984375 37.109375 14.984375 27.296875 
Q 14.984375 17.484375 19.15625 11.84375 
Q 23.34375 6.203125 30.609375 6.203125 
Q 37.796875 6.203125 41.984375 11.859375 
Q 46.1875 17.53125 46.1875 27.296875 
Q 46.1875 37.015625 41.984375 42.703125 
Q 37.796875 48.390625 30.609375 48.390625 
z
M 30.609375 56 
Q 42.328125 56 49.015625 48.375 
Q 55.71875 40.765625 55.71875 27.296875 
Q 55.71875 13.875 49.015625 6.21875 
Q 42.328125 -1.421875 30.609375 -1.421875 
Q 18.84375 -1.421875 12.171875 6.21875 
Q 5.515625 13.875 5.515625 27.296875 
Q 5.515625 40.765625 12.171875 48.375 
Q 18.84375 56 30.609375 56 
z
" id="DejaVuSans-111"/>
     <path d="M 9.8125 72.90625 
L 24.515625 72.90625 
L 43.109375 23.296875 
L 61.8125 72.90625 
L 76.515625 72.90625 
L 76.515625 0 
L 66.890625 0 
L 66.890625 64.015625 
L 48.09375 14.015625 
L 38.1875 14.015625 
L 19.390625 64.015625 
L 19.390625 0 
L 9.8125 0 
z
" id="DejaVuSans-77"/>
     <path d="M 8.5 21.578125 
L 8.5 54.6875 
L 17.484375 54.6875 
L 17.484375 21.921875 
Q 17.484375 14.15625 20.5 10.265625 
Q 23.53125 6.390625 29.59375 6.390625 
Q 36.859375 6.390625 41.078125 11.03125 
Q 45.3125 15.671875 45.3125 23.6875 
L 45.3125 54.6875 
L 54.296875 54.6875 
L 54.296875 0 
L 45.3125 0 
L 45.3125 8.40625 
Q 42.046875 3.421875 37.71875 1 
Q 33.40625 -1.421875 27.6875 -1.421875 
Q 18.265625 -1.421875 13.375 4.4375 
Q 8.5 10.296875 8.5 21.578125 
z
M 31.109375 56 
z
" id="DejaVuSans-117"/>
     <path d="M 45.40625 27.984375 
Q 45.40625 37.75 41.375 43.109375 
Q 37.359375 48.484375 30.078125 48.484375 
Q 22.859375 48.484375 18.828125 43.109375 
Q 14.796875 37.75 14.796875 27.984375 
Q 14.796875 18.265625 18.828125 12.890625 
Q 22.859375 7.515625 30.078125 7.515625 
Q 37.359375 7.515625 41.375 12.890625 
Q 45.40625 18.265625 45.40625 27.984375 
z
M 54.390625 6.78125 
Q 54.390625 -7.171875 48.1875 -13.984375 
Q 42 -20.796875 29.203125 -20.796875 
Q 24.46875 -20.796875 20.265625 -20.09375 
Q 16.0625 -19.390625 12.109375 -17.921875 
L 12.109375 -9.1875 
Q 16.0625 -11.328125 19.921875 -12.34375 
Q 23.78125 -13.375 27.78125 -13.375 
Q 36.625 -13.375 41.015625 -8.765625 
Q 45.40625 -4.15625 45.40625 5.171875 
L 45.40625 9.625 
Q 42.625 4.78125 38.28125 2.390625 
Q 33.9375 0 27.875 0 
Q 17.828125 0 11.671875 7.65625 
Q 5.515625 15.328125 5.515625 27.984375 
Q 5.515625 40.671875 11.671875 48.328125 
Q 17.828125 56 27.875 56 
Q 33.9375 56 38.28125 53.609375 
Q 42.625 51.21875 45.40625 46.390625 
L 45.40625 54.6875 
L 54.390625 54.6875 
z
" id="DejaVuSans-103"/>
     <path d="M 45.40625 46.390625 
L 45.40625 75.984375 
L 54.390625 75.984375 
L 54.390625 0 
L 45.40625 0 
L 45.40625 8.203125 
Q 42.578125 3.328125 38.25 0.953125 
Q 33.9375 -1.421875 27.875 -1.421875 
Q 17.96875 -1.421875 11.734375 6.484375 
Q 5.515625 14.40625 5.515625 27.296875 
Q 5.515625 40.1875 11.734375 48.09375 
Q 17.96875 56 27.875 56 
Q 33.9375 56 38.25 53.625 
Q 42.578125 51.265625 45.40625 46.390625 
z
M 14.796875 27.296875 
Q 14.796875 17.390625 18.875 11.75 
Q 22.953125 6.109375 30.078125 6.109375 
Q 37.203125 6.109375 41.296875 11.75 
Q 45.40625 17.390625 45.40625 27.296875 
Q 45.40625 37.203125 41.296875 42.84375 
Q 37.203125 48.484375 30.078125 48.484375 
Q 22.953125 48.484375 18.875 42.84375 
Q 14.796875 37.203125 14.796875 27.296875 
z
" id="DejaVuSans-100"/>
     <path d="M 54.890625 33.015625 
L 54.890625 0 
L 45.90625 0 
L 45.90625 32.71875 
Q 45.90625 40.484375 42.875 44.328125 
Q 39.84375 48.1875 33.796875 48.1875 
Q 26.515625 48.1875 22.3125 43.546875 
Q 18.109375 38.921875 18.109375 30.90625 
L 18.109375 0 
L 9.078125 0 
L 9.078125 75.984375 
L 18.109375 75.984375 
L 18.109375 46.1875 
Q 21.34375 51.125 25.703125 53.5625 
Q 30.078125 56 35.796875 56 
Q 45.21875 56 50.046875 50.171875 
Q 54.890625 44.34375 54.890625 33.015625 
z
" id="DejaVuSans-104"/>
     <path d="M 8.59375 75.984375 
L 29.296875 75.984375 
L 29.296875 69 
L 17.578125 69 
L 17.578125 -6.203125 
L 29.296875 -6.203125 
L 29.296875 -13.1875 
L 8.59375 -13.1875 
z
" id="DejaVuSans-91"/>
     <path d="M 5.515625 54.6875 
L 48.1875 54.6875 
L 48.1875 46.484375 
L 14.40625 7.171875 
L 48.1875 7.171875 
L 48.1875 0 
L 4.296875 0 
L 4.296875 8.203125 
L 38.09375 47.515625 
L 5.515625 47.515625 
z
" id="DejaVuSans-122"/>
     <path d="M 30.421875 75.984375 
L 30.421875 -13.1875 
L 9.71875 -13.1875 
L 9.71875 -6.203125 
L 21.390625 -6.203125 
L 21.390625 69 
L 9.71875 69 
L 9.71875 75.984375 
z
" id="DejaVuSans-93"/>
     <path d="M 44.390625 34.1875 
Q 47.5625 33.109375 50.5625 29.59375 
Q 53.5625 26.078125 56.59375 19.921875 
L 66.609375 0 
L 56 0 
L 46.6875 18.703125 
Q 43.0625 26.03125 39.671875 28.421875 
Q 36.28125 30.8125 30.421875 30.8125 
L 19.671875 30.8125 
L 19.671875 0 
L 9.8125 0 
L 9.8125 72.90625 
L 32.078125 72.90625 
Q 44.578125 72.90625 50.734375 67.671875 
Q 56.890625 62.453125 56.890625 51.90625 
Q 56.890625 45.015625 53.6875 40.46875 
Q 50.484375 35.9375 44.390625 34.1875 
z
M 19.671875 64.796875 
L 19.671875 38.921875 
L 32.078125 38.921875 
Q 39.203125 38.921875 42.84375 42.21875 
Q 46.484375 45.515625 46.484375 51.90625 
Q 46.484375 58.296875 42.84375 61.546875 
Q 39.203125 64.796875 32.078125 64.796875 
z
" id="DejaVuSans-82"/>
    </defs>
    <g transform="translate(198.225 80.4)scale(0.1 -0.1)">
     <use xlink:href="#DejaVuSans-85"/>
     <use x="73.193359" xlink:href="#DejaVuSans-110"/>
     <use x="136.572266" xlink:href="#DejaVuSans-99"/>
     <use x="191.552734" xlink:href="#DejaVuSans-101"/>
     <use x="253.076172" xlink:href="#DejaVuSans-114"/>
     <use x="294.189453" xlink:href="#DejaVuSans-116"/>
     <use x="333.398438" xlink:href="#DejaVuSans-97"/>
     <use x="394.677734" xlink:href="#DejaVuSans-105"/>
     <use x="422.460938" xlink:href="#DejaVuSans-110"/>
     <use x="485.839844" xlink:href="#DejaVuSans-116"/>
     <use x="525.048828" xlink:href="#DejaVuSans-121"/>
     <use x="584.228516" xlink:href="#DejaVuSans-32"/>
     <use x="616.015625" xlink:href="#DejaVuSans-69"/>
     <use x="679.199219" xlink:href="#DejaVuSans-108"/>
     <use x="706.982422" xlink:href="#DejaVuSans-108"/>
     <use x="734.765625" xlink:href="#DejaVuSans-105"/>
     <use x="762.548828" xlink:href="#DejaVuSans-112"/>
     <use x="826.025391" xlink:href="#DejaVuSans-115"/>
     <use x="878.125" xlink:href="#DejaVuSans-101"/>
     <use x="939.648438" xlink:href="#DejaVuSans-32"/>
     <use x="971.435547" xlink:href="#DejaVuSans-102"/>
     <use x="1006.640625" xlink:href="#DejaVuSans-111"/>
     <use x="1067.822266" xlink:href="#DejaVuSans-114"/>
     <use x="1108.935547" xlink:href="#DejaVuSans-32"/>
     <use x="1140.722656" xlink:href="#DejaVuSans-77"/>
     <use x="1227.001953" xlink:href="#DejaVuSans-101"/>
     <use x="1288.525391" xlink:href="#DejaVuSans-97"/>
     <use x="1349.804688" xlink:href="#DejaVuSans-115"/>
     <use x="1401.904297" xlink:href="#DejaVuSans-117"/>
     <use x="1465.283203" xlink:href="#DejaVuSans-114"/>
     <use x="1506.365234" xlink:href="#DejaVuSans-101"/>
     <use x="1567.888672" xlink:href="#DejaVuSans-109"/>
     <use x="1665.300781" xlink:href="#DejaVuSans-101"/>
     <use x="1726.824219" xlink:href="#DejaVuSans-110"/>
     <use x="1790.203125" xlink:href="#DejaVuSans-116"/>
     <use x="1829.412109" xlink:href="#DejaVuSans-115"/>
     <use x="1881.511719" xlink:href="#DejaVuSans-32"/>
     <use x="1913.298828" xlink:href="#DejaVuSans-111"/>
     <use x="1974.480469" xlink:href="#DejaVuSans-102"/>
     <use x="2009.685547" xlink:href="#DejaVuSans-32"/>
     <use x="2041.472656" xlink:href="#DejaVuSans-103"/>
     <use x="2104.949219" xlink:href="#DejaVuSans-111"/>
     <use x="2166.130859" xlink:href="#DejaVuSans-111"/>
     <use x="2227.3125" xlink:href="#DejaVuSans-100"/>
     <use x="2290.789062" xlink:href="#DejaVuSans-32"/>
     <use x="2322.576172" xlink:href="#DejaVuSans-114"/>
     <use x="2363.689453" xlink:href="#DejaVuSans-105"/>
     <use x="2391.472656" xlink:href="#DejaVuSans-103"/>
     <use x="2454.949219" xlink:href="#DejaVuSans-104"/>
     <use x="2518.328125" xlink:href="#DejaVuSans-116"/>
     <use x="2557.537109" xlink:href="#DejaVuSans-32"/>
     <use x="2589.324219" xlink:href="#DejaVuSans-91"/>
     <use x="2628.337891" xlink:href="#DejaVuSans-122"/>
     <use x="2680.828125" xlink:href="#DejaVuSans-111"/>
     <use x="2742.009766" xlink:href="#DejaVuSans-111"/>
     <use x="2803.191406" xlink:href="#DejaVuSans-109"/>
     <use x="2900.603516" xlink:href="#DejaVuSans-101"/>
     <use x="2962.126953" xlink:href="#DejaVuSans-100"/>
     <use x="3025.603516" xlink:href="#DejaVuSans-32"/>
     <use x="3057.390625" xlink:href="#DejaVuSans-105"/>
     <use x="3085.173828" xlink:href="#DejaVuSans-110"/>
     <use x="3148.552734" xlink:href="#DejaVuSans-93"/>
     <use x="3187.566406" xlink:href="#DejaVuSans-32"/>
     <use x="3219.353516" xlink:href="#DejaVuSans-82"/>
     <use x="3288.773438" xlink:href="#DejaVuSans-117"/>
     <use x="3352.152344" xlink:href="#DejaVuSans-110"/>
    </g>
   </g>
   <g id="legend_1">
    <g id="patch_13">
     <path d="M 97 625 
L 358.289062 625 
Q 360.289062 625 360.289062 623 
L 360.289062 506.575 
Q 360.289062 504.575 358.289062 504.575 
L 97 504.575 
Q 95 504.575 95 506.575 
L 95 623 
Q 95 625 97 625 
z
" style="fill:#ffffff;opacity:0.8;stroke:#cccccc;stroke-linejoin:miter;"/>
    </g>
    <g id="patch_14">
     <path d="M 99 516.173438 
L 119 516.173438 
L 119 509.173438 
L 99 509.173438 
z
" style="fill:none;stroke:#b22222;stroke-linejoin:miter;"/>
    </g>
    <g id="text_16">
     <!-- $1\sigma$ for forward data -->
     <defs>
      <path d="M 34.671875 47.5625 
Q 27.25 47.5625 22.21875 42.1875 
Q 16.890625 36.578125 15.140625 27.296875 
Q 13.1875 17.484375 16.3125 11.8125 
Q 19.390625 6.203125 26.65625 6.203125 
Q 33.84375 6.203125 39.109375 11.859375 
Q 44.4375 17.53125 46.34375 27.296875 
Q 48.046875 36.234375 45.015625 42.1875 
Q 42.1875 47.5625 34.671875 47.5625 
z
M 36.078125 54.734375 
L 65.921875 54.6875 
L 64.15625 45.703125 
L 54.109375 45.703125 
Q 57.90625 38.09375 55.859375 27.296875 
Q 53.21875 13.875 45.0625 6.25 
Q 36.859375 -1.421875 25.140625 -1.421875 
Q 13.375 -1.421875 8.203125 6.25 
Q 3.03125 13.875 5.671875 27.296875 
Q 8.25 40.765625 16.40625 48.390625 
Q 23.1875 54.734375 36.078125 54.734375 
z
" id="DejaVuSans-Oblique-963"/>
      <path d="M 4.203125 54.6875 
L 13.1875 54.6875 
L 24.421875 12.015625 
L 35.59375 54.6875 
L 46.1875 54.6875 
L 57.421875 12.015625 
L 68.609375 54.6875 
L 77.59375 54.6875 
L 63.28125 0 
L 52.6875 0 
L 40.921875 44.828125 
L 29.109375 0 
L 18.5 0 
z
" id="DejaVuSans-119"/>
     </defs>
     <g transform="translate(127 516.173438)scale(0.1 -0.1)">
      <use transform="translate(0 0.015625)" xlink:href="#DejaVuSans-49"/>
      <use transform="translate(63.623047 0.015625)" xlink:href="#DejaVuSans-Oblique-963"/>
      <use transform="translate(127.001953 0.015625)" xlink:href="#DejaVuSans-32"/>
      <use transform="translate(158.789062 0.015625)" xlink:href="#DejaVuSans-102"/>
      <use transform="translate(193.994141 0.015625)" xlink:href="#DejaVuSans-111"/>
      <use transform="translate(255.175781 0.015625)" xlink:href="#DejaVuSans-114"/>
      <use transform="translate(296.289062 0.015625)" xlink:href="#DejaVuSans-32"/>
      <use transform="translate(328.076172 0.015625)" xlink:href="#DejaVuSans-102"/>
      <use transform="translate(363.28125 0.015625)" xlink:href="#DejaVuSans-111"/>
      <use transform="translate(424.462891 0.015625)" xlink:href="#DejaVuSans-114"/>
      <use transform="translate(465.576172 0.015625)" xlink:href="#DejaVuSans-119"/>
      <use transform="translate(547.363281 0.015625)" xlink:href="#DejaVuSans-97"/>
      <use transform="translate(608.642578 0.015625)" xlink:href="#DejaVuSans-114"/>
      <use transform="translate(649.755859 0.015625)" xlink:href="#DejaVuSans-100"/>
      <use transform="translate(713.232422 0.015625)" xlink:href="#DejaVuSans-32"/>
      <use transform="translate(745.019531 0.015625)" xlink:href="#DejaVuSans-100"/>
      <use transform="translate(808.496094 0.015625)" xlink:href="#DejaVuSans-97"/>
      <use transform="translate(869.775391 0.015625)" xlink:href="#DejaVuSans-116"/>
      <use transform="translate(908.984375 0.015625)" xlink:href="#DejaVuSans-97"/>
     </g>
    </g>
    <g id="patch_15">
     <path d="M 99 530.851562 
L 119 530.851562 
L 119 523.851562 
L 99 523.851562 
z
" style="fill:none;stroke:#b22222;stroke-linejoin:miter;"/>
    </g>
    <g id="text_17">
     <!-- $2\sigma$ for forward data -->
     <g transform="translate(127 530.851562)scale(0.1 -0.1)">
      <use transform="translate(0 0.015625)" xlink:href="#DejaVuSans-50"/>
      <use transform="translate(63.623047 0.015625)" xlink:href="#DejaVuSans-Oblique-963"/>
      <use transform="translate(127.001953 0.015625)" xlink:href="#DejaVuSans-32"/>
      <use transform="translate(158.789062 0.015625)" xlink:href="#DejaVuSans-102"/>
      <use transform="translate(193.994141 0.015625)" xlink:href="#DejaVuSans-111"/>
      <use transform="translate(255.175781 0.015625)" xlink:href="#DejaVuSans-114"/>
      <use transform="translate(296.289062 0.015625)" xlink:href="#DejaVuSans-32"/>
      <use transform="translate(328.076172 0.015625)" xlink:href="#DejaVuSans-102"/>
      <use transform="translate(363.28125 0.015625)" xlink:href="#DejaVuSans-111"/>
      <use transform="translate(424.462891 0.015625)" xlink:href="#DejaVuSans-114"/>
      <use transform="translate(465.576172 0.015625)" xlink:href="#DejaVuSans-119"/>
      <use transform="translate(547.363281 0.015625)" xlink:href="#DejaVuSans-97"/>
      <use transform="translate(608.642578 0.015625)" xlink:href="#DejaVuSans-114"/>
      <use transform="translate(649.755859 0.015625)" xlink:href="#DejaVuSans-100"/>
      <use transform="translate(713.232422 0.015625)" xlink:href="#DejaVuSans-32"/>
      <use transform="translate(745.019531 0.015625)" xlink:href="#DejaVuSans-100"/>
      <use transform="translate(808.496094 0.015625)" xlink:href="#DejaVuSans-97"/>
      <use transform="translate(869.775391 0.015625)" xlink:href="#DejaVuSans-116"/>
      <use transform="translate(908.984375 0.015625)" xlink:href="#DejaVuSans-97"/>
     </g>
    </g>
    <g id="patch_16">
     <path d="M 99 545.529688 
L 119 545.529688 
L 119 538.529688 
L 99 538.529688 
z
" style="fill:none;stroke:#b22222;stroke-linejoin:miter;"/>
    </g>
    <g id="text_18">
     <!-- $3\sigma$ for forward data -->
     <g transform="translate(127 545.529688)scale(0.1 -0.1)">
      <use transform="translate(0 0.015625)" xlink:href="#DejaVuSans-51"/>
      <use transform="translate(63.623047 0.015625)" xlink:href="#DejaVuSans-Oblique-963"/>
      <use transform="translate(127.001953 0.015625)" xlink:href="#DejaVuSans-32"/>
      <use transform="translate(158.789062 0.015625)" xlink:href="#DejaVuSans-102"/>
      <use transform="translate(193.994141 0.015625)" xlink:href="#DejaVuSans-111"/>
      <use transform="translate(255.175781 0.015625)" xlink:href="#DejaVuSans-114"/>
      <use transform="translate(296.289062 0.015625)" xlink:href="#DejaVuSans-32"/>
      <use transform="translate(328.076172 0.015625)" xlink:href="#DejaVuSans-102"/>
      <use transform="translate(363.28125 0.015625)" xlink:href="#DejaVuSans-111"/>
      <use transform="translate(424.462891 0.015625)" xlink:href="#DejaVuSans-114"/>
      <use transform="translate(465.576172 0.015625)" xlink:href="#DejaVuSans-119"/>
      <use transform="translate(547.363281 0.015625)" xlink:href="#DejaVuSans-97"/>
      <use transform="translate(608.642578 0.015625)" xlink:href="#DejaVuSans-114"/>
      <use transform="translate(649.755859 0.015625)" xlink:href="#DejaVuSans-100"/>
      <use transform="translate(713.232422 0.015625)" xlink:href="#DejaVuSans-32"/>
      <use transform="translate(745.019531 0.015625)" xlink:href="#DejaVuSans-100"/>
      <use transform="translate(808.496094 0.015625)" xlink:href="#DejaVuSans-97"/>
      <use transform="translate(869.775391 0.015625)" xlink:href="#DejaVuSans-116"/>
      <use transform="translate(908.984375 0.015625)" xlink:href="#DejaVuSans-97"/>
     </g>
    </g>
    <g id="patch_17">
     <path d="M 99 560.207813 
L 119 560.207813 
L 119 553.207813 
L 99 553.207813 
z
" style="fill:none;stroke:#0000ff;stroke-linejoin:miter;"/>
    </g>
    <g id="text_19">
     <!-- $1\sigma$ for Encoded data -->
     <g transform="translate(127 560.207813)scale(0.1 -0.1)">
      <use transform="translate(0 0.015625)" xlink:href="#DejaVuSans-49"/>
      <use transform="translate(63.623047 0.015625)" xlink:href="#DejaVuSans-Oblique-963"/>
      <use transform="translate(127.001953 0.015625)" xlink:href="#DejaVuSans-32"/>
      <use transform="translate(158.789062 0.015625)" xlink:href="#DejaVuSans-102"/>
      <use transform="translate(193.994141 0.015625)" xlink:href="#DejaVuSans-111"/>
      <use transform="translate(255.175781 0.015625)" xlink:href="#DejaVuSans-114"/>
      <use transform="translate(296.289062 0.015625)" xlink:href="#DejaVuSans-32"/>
      <use transform="translate(328.076172 0.015625)" xlink:href="#DejaVuSans-69"/>
      <use transform="translate(391.259766 0.015625)" xlink:href="#DejaVuSans-110"/>
      <use transform="translate(454.638672 0.015625)" xlink:href="#DejaVuSans-99"/>
      <use transform="translate(509.619141 0.015625)" xlink:href="#DejaVuSans-111"/>
      <use transform="translate(570.800781 0.015625)" xlink:href="#DejaVuSans-100"/>
      <use transform="translate(634.277344 0.015625)" xlink:href="#DejaVuSans-101"/>
      <use transform="translate(695.800781 0.015625)" xlink:href="#DejaVuSans-100"/>
      <use transform="translate(759.277344 0.015625)" xlink:href="#DejaVuSans-32"/>
      <use transform="translate(791.064453 0.015625)" xlink:href="#DejaVuSans-100"/>
      <use transform="translate(854.541016 0.015625)" xlink:href="#DejaVuSans-97"/>
      <use transform="translate(915.820312 0.015625)" xlink:href="#DejaVuSans-116"/>
      <use transform="translate(955.029297 0.015625)" xlink:href="#DejaVuSans-97"/>
     </g>
    </g>
    <g id="patch_18">
     <path d="M 99 574.885938 
L 119 574.885938 
L 119 567.885938 
L 99 567.885938 
z
" style="fill:none;stroke:#0000ff;stroke-linejoin:miter;"/>
    </g>
    <g id="text_20">
     <!-- $2\sigma$ for Encoded data -->
     <g transform="translate(127 574.885938)scale(0.1 -0.1)">
      <use transform="translate(0 0.015625)" xlink:href="#DejaVuSans-50"/>
      <use transform="translate(63.623047 0.015625)" xlink:href="#DejaVuSans-Oblique-963"/>
      <use transform="translate(127.001953 0.015625)" xlink:href="#DejaVuSans-32"/>
      <use transform="translate(158.789062 0.015625)" xlink:href="#DejaVuSans-102"/>
      <use transform="translate(193.994141 0.015625)" xlink:href="#DejaVuSans-111"/>
      <use transform="translate(255.175781 0.015625)" xlink:href="#DejaVuSans-114"/>
      <use transform="translate(296.289062 0.015625)" xlink:href="#DejaVuSans-32"/>
      <use transform="translate(328.076172 0.015625)" xlink:href="#DejaVuSans-69"/>
      <use transform="translate(391.259766 0.015625)" xlink:href="#DejaVuSans-110"/>
      <use transform="translate(454.638672 0.015625)" xlink:href="#DejaVuSans-99"/>
      <use transform="translate(509.619141 0.015625)" xlink:href="#DejaVuSans-111"/>
      <use transform="translate(570.800781 0.015625)" xlink:href="#DejaVuSans-100"/>
      <use transform="translate(634.277344 0.015625)" xlink:href="#DejaVuSans-101"/>
      <use transform="translate(695.800781 0.015625)" xlink:href="#DejaVuSans-100"/>
      <use transform="translate(759.277344 0.015625)" xlink:href="#DejaVuSans-32"/>
      <use transform="translate(791.064453 0.015625)" xlink:href="#DejaVuSans-100"/>
      <use transform="translate(854.541016 0.015625)" xlink:href="#DejaVuSans-97"/>
      <use transform="translate(915.820312 0.015625)" xlink:href="#DejaVuSans-116"/>
      <use transform="translate(955.029297 0.015625)" xlink:href="#DejaVuSans-97"/>
     </g>
    </g>
    <g id="patch_19">
     <path d="M 99 589.564063 
L 119 589.564063 
L 119 582.564063 
L 99 582.564063 
z
" style="fill:none;stroke:#0000ff;stroke-linejoin:miter;"/>
    </g>
    <g id="text_21">
     <!-- $3\sigma$ for Encoded data -->
     <g transform="translate(127 589.564063)scale(0.1 -0.1)">
      <use transform="translate(0 0.015625)" xlink:href="#DejaVuSans-51"/>
      <use transform="translate(63.623047 0.015625)" xlink:href="#DejaVuSans-Oblique-963"/>
      <use transform="translate(127.001953 0.015625)" xlink:href="#DejaVuSans-32"/>
      <use transform="translate(158.789062 0.015625)" xlink:href="#DejaVuSans-102"/>
      <use transform="translate(193.994141 0.015625)" xlink:href="#DejaVuSans-111"/>
      <use transform="translate(255.175781 0.015625)" xlink:href="#DejaVuSans-114"/>
      <use transform="translate(296.289062 0.015625)" xlink:href="#DejaVuSans-32"/>
      <use transform="translate(328.076172 0.015625)" xlink:href="#DejaVuSans-69"/>
      <use transform="translate(391.259766 0.015625)" xlink:href="#DejaVuSans-110"/>
      <use transform="translate(454.638672 0.015625)" xlink:href="#DejaVuSans-99"/>
      <use transform="translate(509.619141 0.015625)" xlink:href="#DejaVuSans-111"/>
      <use transform="translate(570.800781 0.015625)" xlink:href="#DejaVuSans-100"/>
      <use transform="translate(634.277344 0.015625)" xlink:href="#DejaVuSans-101"/>
      <use transform="translate(695.800781 0.015625)" xlink:href="#DejaVuSans-100"/>
      <use transform="translate(759.277344 0.015625)" xlink:href="#DejaVuSans-32"/>
      <use transform="translate(791.064453 0.015625)" xlink:href="#DejaVuSans-100"/>
      <use transform="translate(854.541016 0.015625)" xlink:href="#DejaVuSans-97"/>
      <use transform="translate(915.820312 0.015625)" xlink:href="#DejaVuSans-116"/>
      <use transform="translate(955.029297 0.015625)" xlink:href="#DejaVuSans-97"/>
     </g>
    </g>
    <g id="PathCollection_4">
     <g>
      <use style="fill:#1f77b4;stroke:#1f77b4;" x="109" xlink:href="#m8ac7e5693a" y="601.617188"/>
     </g>
    </g>
    <g id="text_22">
     <!-- Measurement data for good right [zoomed in] -->
     <g transform="translate(127 604.242188)scale(0.1 -0.1)">
      <use xlink:href="#DejaVuSans-77"/>
      <use x="86.279297" xlink:href="#DejaVuSans-101"/>
      <use x="147.802734" xlink:href="#DejaVuSans-97"/>
      <use x="209.082031" xlink:href="#DejaVuSans-115"/>
      <use x="261.181641" xlink:href="#DejaVuSans-117"/>
      <use x="324.560547" xlink:href="#DejaVuSans-114"/>
      <use x="365.642578" xlink:href="#DejaVuSans-101"/>
      <use x="427.166016" xlink:href="#DejaVuSans-109"/>
      <use x="524.578125" xlink:href="#DejaVuSans-101"/>
      <use x="586.101562" xlink:href="#DejaVuSans-110"/>
      <use x="649.480469" xlink:href="#DejaVuSans-116"/>
      <use x="688.689453" xlink:href="#DejaVuSans-32"/>
      <use x="720.476562" xlink:href="#DejaVuSans-100"/>
      <use x="783.953125" xlink:href="#DejaVuSans-97"/>
      <use x="845.232422" xlink:href="#DejaVuSans-116"/>
      <use x="884.441406" xlink:href="#DejaVuSans-97"/>
      <use x="945.720703" xlink:href="#DejaVuSans-32"/>
      <use x="977.507812" xlink:href="#DejaVuSans-102"/>
      <use x="1012.712891" xlink:href="#DejaVuSans-111"/>
      <use x="1073.894531" xlink:href="#DejaVuSans-114"/>
      <use x="1115.007812" xlink:href="#DejaVuSans-32"/>
      <use x="1146.794922" xlink:href="#DejaVuSans-103"/>
      <use x="1210.271484" xlink:href="#DejaVuSans-111"/>
      <use x="1271.453125" xlink:href="#DejaVuSans-111"/>
      <use x="1332.634766" xlink:href="#DejaVuSans-100"/>
      <use x="1396.111328" xlink:href="#DejaVuSans-32"/>
      <use x="1427.898438" xlink:href="#DejaVuSans-114"/>
      <use x="1469.011719" xlink:href="#DejaVuSans-105"/>
      <use x="1496.794922" xlink:href="#DejaVuSans-103"/>
      <use x="1560.271484" xlink:href="#DejaVuSans-104"/>
      <use x="1623.650391" xlink:href="#DejaVuSans-116"/>
      <use x="1662.859375" xlink:href="#DejaVuSans-32"/>
      <use x="1694.646484" xlink:href="#DejaVuSans-91"/>
      <use x="1733.660156" xlink:href="#DejaVuSans-122"/>
      <use x="1786.150391" xlink:href="#DejaVuSans-111"/>
      <use x="1847.332031" xlink:href="#DejaVuSans-111"/>
      <use x="1908.513672" xlink:href="#DejaVuSans-109"/>
      <use x="2005.925781" xlink:href="#DejaVuSans-101"/>
      <use x="2067.449219" xlink:href="#DejaVuSans-100"/>
      <use x="2130.925781" xlink:href="#DejaVuSans-32"/>
      <use x="2162.712891" xlink:href="#DejaVuSans-105"/>
      <use x="2190.496094" xlink:href="#DejaVuSans-110"/>
      <use x="2253.875" xlink:href="#DejaVuSans-93"/>
     </g>
    </g>
    <g id="PathCollection_5">
     <g>
      <use style="fill:#ff7f0e;stroke:#ff7f0e;" x="109" xlink:href="#mf557ec824d" y="616.295313"/>
     </g>
    </g>
    <g id="text_23">
     <!-- Encoded data for good right [zoomed in] -->
     <g transform="translate(127 618.920313)scale(0.1 -0.1)">
      <use xlink:href="#DejaVuSans-69"/>
      <use x="63.183594" xlink:href="#DejaVuSans-110"/>
      <use x="126.5625" xlink:href="#DejaVuSans-99"/>
      <use x="181.542969" xlink:href="#DejaVuSans-111"/>
      <use x="242.724609" xlink:href="#DejaVuSans-100"/>
      <use x="306.201172" xlink:href="#DejaVuSans-101"/>
      <use x="367.724609" xlink:href="#DejaVuSans-100"/>
      <use x="431.201172" xlink:href="#DejaVuSans-32"/>
      <use x="462.988281" xlink:href="#DejaVuSans-100"/>
      <use x="526.464844" xlink:href="#DejaVuSans-97"/>
      <use x="587.744141" xlink:href="#DejaVuSans-116"/>
      <use x="626.953125" xlink:href="#DejaVuSans-97"/>
      <use x="688.232422" xlink:href="#DejaVuSans-32"/>
      <use x="720.019531" xlink:href="#DejaVuSans-102"/>
      <use x="755.224609" xlink:href="#DejaVuSans-111"/>
      <use x="816.40625" xlink:href="#DejaVuSans-114"/>
      <use x="857.519531" xlink:href="#DejaVuSans-32"/>
      <use x="889.306641" xlink:href="#DejaVuSans-103"/>
      <use x="952.783203" xlink:href="#DejaVuSans-111"/>
      <use x="1013.964844" xlink:href="#DejaVuSans-111"/>
      <use x="1075.146484" xlink:href="#DejaVuSans-100"/>
      <use x="1138.623047" xlink:href="#DejaVuSans-32"/>
      <use x="1170.410156" xlink:href="#DejaVuSans-114"/>
      <use x="1211.523438" xlink:href="#DejaVuSans-105"/>
      <use x="1239.306641" xlink:href="#DejaVuSans-103"/>
      <use x="1302.783203" xlink:href="#DejaVuSans-104"/>
      <use x="1366.162109" xlink:href="#DejaVuSans-116"/>
      <use x="1405.371094" xlink:href="#DejaVuSans-32"/>
      <use x="1437.158203" xlink:href="#DejaVuSans-91"/>
      <use x="1476.171875" xlink:href="#DejaVuSans-122"/>
      <use x="1528.662109" xlink:href="#DejaVuSans-111"/>
      <use x="1589.84375" xlink:href="#DejaVuSans-111"/>
      <use x="1651.025391" xlink:href="#DejaVuSans-109"/>
      <use x="1748.4375" xlink:href="#DejaVuSans-101"/>
      <use x="1809.960938" xlink:href="#DejaVuSans-100"/>
      <use x="1873.4375" xlink:href="#DejaVuSans-32"/>
      <use x="1905.224609" xlink:href="#DejaVuSans-105"/>
      <use x="1933.007812" xlink:href="#DejaVuSans-110"/>
      <use x="1996.386719" xlink:href="#DejaVuSans-93"/>
     </g>
    </g>
   </g>
  </g>
 </g>
 <defs>
  <clipPath id="pe9653cbb85">
   <rect height="543.6" width="558" x="90" y="86.4"/>
  </clipPath>
 </defs>
</svg>
