<?xml version="1.0" encoding="utf-8" standalone="no"?>
<!DOCTYPE svg PUBLIC "-//W3C//DTD SVG 1.1//EN"
  "http://www.w3.org/Graphics/SVG/1.1/DTD/svg11.dtd">
<!-- Created with matplotlib (https://matplotlib.org/) -->
<svg height="720pt" version="1.1" viewBox="0 0 720 720" width="720pt" xmlns="http://www.w3.org/2000/svg" xmlns:xlink="http://www.w3.org/1999/xlink">
 <defs>
  <style type="text/css">
*{stroke-linecap:butt;stroke-linejoin:round;}
  </style>
 </defs>
 <g id="figure_1">
  <g id="patch_1">
   <path d="M 0 720 
L 720 720 
L 720 0 
L 0 0 
z
" style="fill:#ffffff;"/>
  </g>
  <g id="axes_1">
   <g id="patch_2">
    <path d="M 90 630 
L 648 630 
L 648 86.4 
L 90 86.4 
z
" style="fill:#ffffff;"/>
   </g>
   <g id="PathCollection_1">
    <defs>
     <path d="M 0 1.581139 
C 0.419323 1.581139 0.821528 1.41454 1.118034 1.118034 
C 1.41454 0.821528 1.581139 0.419323 1.581139 0 
C 1.581139 -0.419323 1.41454 -0.821528 1.118034 -1.118034 
C 0.821528 -1.41454 0.419323 -1.581139 0 -1.581139 
C -0.419323 -1.581139 -0.821528 -1.41454 -1.118034 -1.118034 
C -1.41454 -0.821528 -1.581139 -0.419323 -1.581139 0 
C -1.581139 0.419323 -1.41454 0.821528 -1.118034 1.118034 
C -0.821528 1.41454 -0.419323 1.581139 0 1.581139 
z
" id="m2b3d5c4583" style="stroke:#1f77b4;"/>
    </defs>
    <g clip-path="url(#pf3f80b4ae3)">
     <use style="fill:#1f77b4;stroke:#1f77b4;" x="392.130394" xlink:href="#m2b3d5c4583" y="300.892381"/>
     <use style="fill:#1f77b4;stroke:#1f77b4;" x="382.184444" xlink:href="#m2b3d5c4583" y="306.362654"/>
     <use style="fill:#1f77b4;stroke:#1f77b4;" x="398.595262" xlink:href="#m2b3d5c4583" y="293.432918"/>
     <use style="fill:#1f77b4;stroke:#1f77b4;" x="386.660122" xlink:href="#m2b3d5c4583" y="300.395083"/>
     <use style="fill:#1f77b4;stroke:#1f77b4;" x="395.611477" xlink:href="#m2b3d5c4583" y="305.865356"/>
     <use style="fill:#1f77b4;stroke:#1f77b4;" x="389.146609" xlink:href="#m2b3d5c4583" y="297.908596"/>
     <use style="fill:#1f77b4;stroke:#1f77b4;" x="392.130394" xlink:href="#m2b3d5c4583" y="297.411298"/>
     <use style="fill:#1f77b4;stroke:#1f77b4;" x="392.130394" xlink:href="#m2b3d5c4583" y="300.892381"/>
     <use style="fill:#1f77b4;stroke:#1f77b4;" x="396.606072" xlink:href="#m2b3d5c4583" y="298.405893"/>
     <use style="fill:#1f77b4;stroke:#1f77b4;" x="393.124989" xlink:href="#m2b3d5c4583" y="297.908596"/>
     <use style="fill:#1f77b4;stroke:#1f77b4;" x="391.633097" xlink:href="#m2b3d5c4583" y="297.908596"/>
     <use style="fill:#1f77b4;stroke:#1f77b4;" x="390.638502" xlink:href="#m2b3d5c4583" y="300.892381"/>
     <use style="fill:#1f77b4;stroke:#1f77b4;" x="397.600667" xlink:href="#m2b3d5c4583" y="297.411298"/>
     <use style="fill:#1f77b4;stroke:#1f77b4;" x="399.09256" xlink:href="#m2b3d5c4583" y="296.914001"/>
     <use style="fill:#1f77b4;stroke:#1f77b4;" x="382.184444" xlink:href="#m2b3d5c4583" y="302.384273"/>
     <use style="fill:#1f77b4;stroke:#1f77b4;" x="386.660122" xlink:href="#m2b3d5c4583" y="302.881571"/>
     <use style="fill:#1f77b4;stroke:#1f77b4;" x="396.108774" xlink:href="#m2b3d5c4583" y="294.924811"/>
     <use style="fill:#1f77b4;stroke:#1f77b4;" x="396.108774" xlink:href="#m2b3d5c4583" y="298.405893"/>
     <use style="fill:#1f77b4;stroke:#1f77b4;" x="391.135799" xlink:href="#m2b3d5c4583" y="300.395083"/>
     <use style="fill:#1f77b4;stroke:#1f77b4;" x="393.622287" xlink:href="#m2b3d5c4583" y="294.924811"/>
    </g>
   </g>
   <g id="PathCollection_2">
    <defs>
     <path d="M 0 1.581139 
C 0.419323 1.581139 0.821528 1.41454 1.118034 1.118034 
C 1.41454 0.821528 1.581139 0.419323 1.581139 0 
C 1.581139 -0.419323 1.41454 -0.821528 1.118034 -1.118034 
C 0.821528 -1.41454 0.419323 -1.581139 0 -1.581139 
C -0.419323 -1.581139 -0.821528 -1.41454 -1.118034 -1.118034 
C -1.41454 -0.821528 -1.581139 -0.419323 -1.581139 0 
C -1.581139 0.419323 -1.41454 0.821528 -1.118034 1.118034 
C -0.821528 1.41454 -0.419323 1.581139 0 1.581139 
z
" id="m8b2c3f8950" style="stroke:#ff7f0e;"/>
    </defs>
    <g clip-path="url(#pf3f80b4ae3)">
     <use style="fill:#ff7f0e;stroke:#ff7f0e;" x="411.524998" xlink:href="#m8b2c3f8950" y="299.897786"/>
     <use style="fill:#ff7f0e;stroke:#ff7f0e;" x="401.579047" xlink:href="#m8b2c3f8950" y="412.784323"/>
     <use style="fill:#ff7f0e;stroke:#ff7f0e;" x="404.065535" xlink:href="#m8b2c3f8950" y="305.368059"/>
     <use style="fill:#ff7f0e;stroke:#ff7f0e;" x="399.09256" xlink:href="#m8b2c3f8950" y="414.276216"/>
     <use style="fill:#ff7f0e;stroke:#ff7f0e;" x="407.04932" xlink:href="#m8b2c3f8950" y="302.881571"/>
     <use style="fill:#ff7f0e;stroke:#ff7f0e;" x="404.562832" xlink:href="#m8b2c3f8950" y="304.870761"/>
     <use style="fill:#ff7f0e;stroke:#ff7f0e;" x="400.584452" xlink:href="#m8b2c3f8950" y="413.281621"/>
     <use style="fill:#ff7f0e;stroke:#ff7f0e;" x="410.530403" xlink:href="#m8b2c3f8950" y="301.389678"/>
     <use style="fill:#ff7f0e;stroke:#ff7f0e;" x="403.07094" xlink:href="#m8b2c3f8950" y="411.789728"/>
     <use style="fill:#ff7f0e;stroke:#ff7f0e;" x="399.09256" xlink:href="#m8b2c3f8950" y="308.849141"/>
     <use style="fill:#ff7f0e;stroke:#ff7f0e;" x="400.584452" xlink:href="#m8b2c3f8950" y="307.357249"/>
     <use style="fill:#ff7f0e;stroke:#ff7f0e;" x="396.108774" xlink:href="#m8b2c3f8950" y="416.762703"/>
     <use style="fill:#ff7f0e;stroke:#ff7f0e;" x="412.519593" xlink:href="#m8b2c3f8950" y="299.897786"/>
     <use style="fill:#ff7f0e;stroke:#ff7f0e;" x="399.09256" xlink:href="#m8b2c3f8950" y="414.276216"/>
     <use style="fill:#ff7f0e;stroke:#ff7f0e;" x="398.595262" xlink:href="#m8b2c3f8950" y="414.773513"/>
     <use style="fill:#ff7f0e;stroke:#ff7f0e;" x="415.503378" xlink:href="#m8b2c3f8950" y="297.908596"/>
     <use style="fill:#ff7f0e;stroke:#ff7f0e;" x="405.06013" xlink:href="#m8b2c3f8950" y="303.876166"/>
     <use style="fill:#ff7f0e;stroke:#ff7f0e;" x="411.524998" xlink:href="#m8b2c3f8950" y="300.395083"/>
     <use style="fill:#ff7f0e;stroke:#ff7f0e;" x="397.600667" xlink:href="#m8b2c3f8950" y="415.270811"/>
     <use style="fill:#ff7f0e;stroke:#ff7f0e;" x="400.087155" xlink:href="#m8b2c3f8950" y="413.778918"/>
     <use style="fill:#ff7f0e;stroke:#ff7f0e;" x="401.08175" xlink:href="#m8b2c3f8950" y="412.784323"/>
     <use style="fill:#ff7f0e;stroke:#ff7f0e;" x="395.114179" xlink:href="#m8b2c3f8950" y="417.260001"/>
     <use style="fill:#ff7f0e;stroke:#ff7f0e;" x="410.033105" xlink:href="#m8b2c3f8950" y="301.389678"/>
     <use style="fill:#ff7f0e;stroke:#ff7f0e;" x="408.043915" xlink:href="#m8b2c3f8950" y="302.881571"/>
     <use style="fill:#ff7f0e;stroke:#ff7f0e;" x="411.524998" xlink:href="#m8b2c3f8950" y="299.897786"/>
     <use style="fill:#ff7f0e;stroke:#ff7f0e;" x="412.519593" xlink:href="#m8b2c3f8950" y="299.897786"/>
     <use style="fill:#ff7f0e;stroke:#ff7f0e;" x="401.08175" xlink:href="#m8b2c3f8950" y="412.784323"/>
     <use style="fill:#ff7f0e;stroke:#ff7f0e;" x="407.04932" xlink:href="#m8b2c3f8950" y="303.876166"/>
     <use style="fill:#ff7f0e;stroke:#ff7f0e;" x="410.033105" xlink:href="#m8b2c3f8950" y="301.886976"/>
     <use style="fill:#ff7f0e;stroke:#ff7f0e;" x="413.514188" xlink:href="#m8b2c3f8950" y="299.897786"/>
     <use style="fill:#ff7f0e;stroke:#ff7f0e;" x="400.087155" xlink:href="#m8b2c3f8950" y="413.778918"/>
     <use style="fill:#ff7f0e;stroke:#ff7f0e;" x="400.584452" xlink:href="#m8b2c3f8950" y="413.281621"/>
     <use style="fill:#ff7f0e;stroke:#ff7f0e;" x="411.524998" xlink:href="#m8b2c3f8950" y="301.389678"/>
     <use style="fill:#ff7f0e;stroke:#ff7f0e;" x="404.562832" xlink:href="#m8b2c3f8950" y="303.876166"/>
     <use style="fill:#ff7f0e;stroke:#ff7f0e;" x="400.087155" xlink:href="#m8b2c3f8950" y="413.778918"/>
     <use style="fill:#ff7f0e;stroke:#ff7f0e;" x="409.535808" xlink:href="#m8b2c3f8950" y="301.886976"/>
     <use style="fill:#ff7f0e;stroke:#ff7f0e;" x="397.10337" xlink:href="#m8b2c3f8950" y="415.768108"/>
     <use style="fill:#ff7f0e;stroke:#ff7f0e;" x="401.579047" xlink:href="#m8b2c3f8950" y="412.784323"/>
     <use style="fill:#ff7f0e;stroke:#ff7f0e;" x="401.579047" xlink:href="#m8b2c3f8950" y="412.784323"/>
     <use style="fill:#ff7f0e;stroke:#ff7f0e;" x="398.097965" xlink:href="#m8b2c3f8950" y="415.270811"/>
     <use style="fill:#ff7f0e;stroke:#ff7f0e;" x="398.097965" xlink:href="#m8b2c3f8950" y="414.773513"/>
     <use style="fill:#ff7f0e;stroke:#ff7f0e;" x="401.579047" xlink:href="#m8b2c3f8950" y="412.784323"/>
    </g>
   </g>
   <g id="PathCollection_3">
    <defs>
     <path d="M 0 0.866025 
C 0.229673 0.866025 0.449969 0.774776 0.612372 0.612372 
C 0.774776 0.449969 0.866025 0.229673 0.866025 0 
C 0.866025 -0.229673 0.774776 -0.449969 0.612372 -0.612372 
C 0.449969 -0.774776 0.229673 -0.866025 0 -0.866025 
C -0.229673 -0.866025 -0.449969 -0.774776 -0.612372 -0.612372 
C -0.774776 -0.449969 -0.866025 -0.229673 -0.866025 0 
C -0.866025 0.229673 -0.774776 0.449969 -0.612372 0.612372 
C -0.449969 0.774776 -0.229673 0.866025 0 0.866025 
z
" id="m46fbe9c474" style="stroke:#ff0000;"/>
    </defs>
    <g clip-path="url(#pf3f80b4ae3)">
     <use style="fill:#ff0000;stroke:#ff0000;" x="316.541171" xlink:href="#m46fbe9c474" y="476.438406"/>
    </g>
   </g>
   <g id="patch_3">
    <path clip-path="url(#pf3f80b4ae3)" d="M 390.996443 297.283779 
C 389.732251 298.001156 388.641768 298.904418 387.965158 299.794632 
C 387.288549 300.684845 387.081056 301.489329 387.388378 302.030904 
C 387.695699 302.572479 388.492744 302.806928 389.603972 302.682617 
C 390.7152 302.558307 392.049884 302.085385 393.314075 301.368008 
C 394.578267 300.650631 395.668751 299.747369 396.34536 298.857156 
C 397.021969 297.966942 397.229462 297.162459 396.922141 296.620884 
C 396.614819 296.079309 395.817774 295.844859 394.706547 295.96917 
C 393.595319 296.093481 392.260635 296.566402 390.996443 297.283779 
z
" style="fill:none;stroke:#b22222;stroke-linejoin:miter;"/>
   </g>
   <g id="patch_4">
    <path clip-path="url(#pf3f80b4ae3)" d="M 389.837627 295.241665 
C 387.309243 296.676419 385.128276 298.482943 383.775057 300.26337 
C 382.421839 302.043797 382.006853 303.652763 382.621496 304.735914 
C 383.23614 305.819064 384.830229 306.287963 387.052684 306.039341 
C 389.27514 305.790719 391.944508 304.844876 394.472891 303.410122 
C 397.001275 301.975368 399.182242 300.168845 400.535461 298.388417 
C 401.88868 296.60799 402.303665 294.999024 401.689022 293.915874 
C 401.074379 292.832724 399.48029 292.363825 397.257834 292.612446 
C 395.035379 292.861068 392.36601 293.806911 389.837627 295.241665 
z
" style="fill:none;stroke:#b22222;stroke-linejoin:miter;"/>
   </g>
   <g id="patch_5">
    <path clip-path="url(#pf3f80b4ae3)" d="M 388.678811 293.199551 
C 384.886236 295.351682 381.614784 298.061467 379.584956 300.732108 
C 377.555128 303.402748 376.93265 305.816198 377.854615 307.440923 
C 378.77658 309.065648 381.167714 309.768997 384.501397 309.396065 
C 387.83508 309.023132 391.839132 307.604367 395.631708 305.452236 
C 399.424283 303.300105 402.695734 300.59032 404.725562 297.919679 
C 406.75539 295.249039 407.377868 292.835589 406.455904 291.210864 
C 405.533939 289.586139 403.142805 288.88279 399.809121 289.255723 
C 396.475438 289.628655 392.471386 291.04742 388.678811 293.199551 
z
" style="fill:none;stroke:#b22222;stroke-linejoin:miter;"/>
   </g>
   <g id="patch_6">
    <path clip-path="url(#pf3f80b4ae3)" d="M 407.236524 358.459307 
C 408.476951 343.460419 409.336367 329.046506 409.625496 318.392063 
C 409.914625 307.737621 409.609862 301.712538 408.778326 301.643769 
C 407.94679 301.575 406.656373 307.46816 405.191275 318.025348 
C 403.726176 328.582536 402.206015 342.941805 400.965588 357.940693 
C 399.725162 372.939581 398.865746 387.353494 398.576616 398.007937 
C 398.287487 408.662379 398.592251 414.687462 399.423786 414.756231 
C 400.255322 414.825 401.545739 408.93184 403.010838 398.374652 
C 404.475936 387.817464 405.996098 373.458195 407.236524 358.459307 
z
" style="fill:none;stroke:#0000ff;stroke-linejoin:miter;"/>
   </g>
   <g id="patch_7">
    <path clip-path="url(#pf3f80b4ae3)" d="M 410.371992 358.718614 
C 412.852845 328.720839 414.571677 299.893011 415.149936 278.584127 
C 415.728194 257.275242 415.118667 245.225076 413.455596 245.087538 
C 411.792524 244.95 409.21169 256.736319 406.281493 277.850696 
C 403.351296 298.965072 400.310973 327.68361 397.83012 357.681386 
C 395.349267 387.679161 393.630435 416.506989 393.052176 437.815873 
C 392.473918 459.124758 393.083445 471.174924 394.746517 471.312462 
C 396.409588 471.45 398.990422 459.663681 401.920619 438.549304 
C 404.850816 417.434928 407.891139 388.71639 410.371992 358.718614 
z
" style="fill:none;stroke:#0000ff;stroke-linejoin:miter;"/>
   </g>
   <g id="patch_8">
    <path clip-path="url(#pf3f80b4ae3)" d="M 413.50746 358.977921 
C 417.228739 313.981258 419.806988 270.739517 420.674376 238.77619 
C 421.541763 206.812863 420.627473 188.737614 418.132865 188.531307 
C 415.638258 188.325 411.767007 206.004479 407.371711 237.676043 
C 402.976416 269.347608 398.415931 312.425416 394.694652 357.422079 
C 390.973373 402.418742 388.395125 445.660483 387.527737 477.62381 
C 386.660349 509.587137 387.574639 527.662386 390.069247 527.868693 
C 392.563854 528.075 396.435105 510.395521 400.830401 478.723957 
C 405.225696 447.052392 409.786181 403.974584 413.50746 358.977921 
z
" style="fill:none;stroke:#0000ff;stroke-linejoin:miter;"/>
   </g>
   <g id="matplotlib.axis_1">
    <g id="xtick_1">
     <g id="line2d_1">
      <path clip-path="url(#pf3f80b4ae3)" d="M 117.622162 630 
L 117.622162 86.4 
" style="fill:none;stroke:#b0b0b0;stroke-linecap:square;stroke-width:0.8;"/>
     </g>
     <g id="line2d_2">
      <defs>
       <path d="M 0 0 
L 0 3.5 
" id="mbb41dbbd11" style="stroke:#000000;stroke-width:0.8;"/>
      </defs>
      <g>
       <use style="stroke:#000000;stroke-width:0.8;" x="117.622162" xlink:href="#mbb41dbbd11" y="630"/>
      </g>
     </g>
     <g id="text_1">
      <!-- −400 -->
      <defs>
       <path d="M 10.59375 35.5 
L 73.1875 35.5 
L 73.1875 27.203125 
L 10.59375 27.203125 
z
" id="DejaVuSans-8722"/>
       <path d="M 37.796875 64.3125 
L 12.890625 25.390625 
L 37.796875 25.390625 
z
M 35.203125 72.90625 
L 47.609375 72.90625 
L 47.609375 25.390625 
L 58.015625 25.390625 
L 58.015625 17.1875 
L 47.609375 17.1875 
L 47.609375 0 
L 37.796875 0 
L 37.796875 17.1875 
L 4.890625 17.1875 
L 4.890625 26.703125 
z
" id="DejaVuSans-52"/>
       <path d="M 31.78125 66.40625 
Q 24.171875 66.40625 20.328125 58.90625 
Q 16.5 51.421875 16.5 36.375 
Q 16.5 21.390625 20.328125 13.890625 
Q 24.171875 6.390625 31.78125 6.390625 
Q 39.453125 6.390625 43.28125 13.890625 
Q 47.125 21.390625 47.125 36.375 
Q 47.125 51.421875 43.28125 58.90625 
Q 39.453125 66.40625 31.78125 66.40625 
z
M 31.78125 74.21875 
Q 44.046875 74.21875 50.515625 64.515625 
Q 56.984375 54.828125 56.984375 36.375 
Q 56.984375 17.96875 50.515625 8.265625 
Q 44.046875 -1.421875 31.78125 -1.421875 
Q 19.53125 -1.421875 13.0625 8.265625 
Q 6.59375 17.96875 6.59375 36.375 
Q 6.59375 54.828125 13.0625 64.515625 
Q 19.53125 74.21875 31.78125 74.21875 
z
" id="DejaVuSans-48"/>
      </defs>
      <g transform="translate(103.888569 644.598438)scale(0.1 -0.1)">
       <use xlink:href="#DejaVuSans-8722"/>
       <use x="83.789062" xlink:href="#DejaVuSans-52"/>
       <use x="147.412109" xlink:href="#DejaVuSans-48"/>
       <use x="211.035156" xlink:href="#DejaVuSans-48"/>
      </g>
     </g>
    </g>
    <g id="xtick_2">
     <g id="line2d_3">
      <path clip-path="url(#pf3f80b4ae3)" d="M 217.081667 630 
L 217.081667 86.4 
" style="fill:none;stroke:#b0b0b0;stroke-linecap:square;stroke-width:0.8;"/>
     </g>
     <g id="line2d_4">
      <g>
       <use style="stroke:#000000;stroke-width:0.8;" x="217.081667" xlink:href="#mbb41dbbd11" y="630"/>
      </g>
     </g>
     <g id="text_2">
      <!-- −200 -->
      <defs>
       <path d="M 19.1875 8.296875 
L 53.609375 8.296875 
L 53.609375 0 
L 7.328125 0 
L 7.328125 8.296875 
Q 12.9375 14.109375 22.625 23.890625 
Q 32.328125 33.6875 34.8125 36.53125 
Q 39.546875 41.84375 41.421875 45.53125 
Q 43.3125 49.21875 43.3125 52.78125 
Q 43.3125 58.59375 39.234375 62.25 
Q 35.15625 65.921875 28.609375 65.921875 
Q 23.96875 65.921875 18.8125 64.3125 
Q 13.671875 62.703125 7.8125 59.421875 
L 7.8125 69.390625 
Q 13.765625 71.78125 18.9375 73 
Q 24.125 74.21875 28.421875 74.21875 
Q 39.75 74.21875 46.484375 68.546875 
Q 53.21875 62.890625 53.21875 53.421875 
Q 53.21875 48.921875 51.53125 44.890625 
Q 49.859375 40.875 45.40625 35.40625 
Q 44.1875 33.984375 37.640625 27.21875 
Q 31.109375 20.453125 19.1875 8.296875 
z
" id="DejaVuSans-50"/>
      </defs>
      <g transform="translate(203.348073 644.598438)scale(0.1 -0.1)">
       <use xlink:href="#DejaVuSans-8722"/>
       <use x="83.789062" xlink:href="#DejaVuSans-50"/>
       <use x="147.412109" xlink:href="#DejaVuSans-48"/>
       <use x="211.035156" xlink:href="#DejaVuSans-48"/>
      </g>
     </g>
    </g>
    <g id="xtick_3">
     <g id="line2d_5">
      <path clip-path="url(#pf3f80b4ae3)" d="M 316.541171 630 
L 316.541171 86.4 
" style="fill:none;stroke:#b0b0b0;stroke-linecap:square;stroke-width:0.8;"/>
     </g>
     <g id="line2d_6">
      <g>
       <use style="stroke:#000000;stroke-width:0.8;" x="316.541171" xlink:href="#mbb41dbbd11" y="630"/>
      </g>
     </g>
     <g id="text_3">
      <!-- 0 -->
      <g transform="translate(313.359921 644.598438)scale(0.1 -0.1)">
       <use xlink:href="#DejaVuSans-48"/>
      </g>
     </g>
    </g>
    <g id="xtick_4">
     <g id="line2d_7">
      <path clip-path="url(#pf3f80b4ae3)" d="M 416.000675 630 
L 416.000675 86.4 
" style="fill:none;stroke:#b0b0b0;stroke-linecap:square;stroke-width:0.8;"/>
     </g>
     <g id="line2d_8">
      <g>
       <use style="stroke:#000000;stroke-width:0.8;" x="416.000675" xlink:href="#mbb41dbbd11" y="630"/>
      </g>
     </g>
     <g id="text_4">
      <!-- 200 -->
      <g transform="translate(406.456925 644.598438)scale(0.1 -0.1)">
       <use xlink:href="#DejaVuSans-50"/>
       <use x="63.623047" xlink:href="#DejaVuSans-48"/>
       <use x="127.246094" xlink:href="#DejaVuSans-48"/>
      </g>
     </g>
    </g>
    <g id="xtick_5">
     <g id="line2d_9">
      <path clip-path="url(#pf3f80b4ae3)" d="M 515.46018 630 
L 515.46018 86.4 
" style="fill:none;stroke:#b0b0b0;stroke-linecap:square;stroke-width:0.8;"/>
     </g>
     <g id="line2d_10">
      <g>
       <use style="stroke:#000000;stroke-width:0.8;" x="515.46018" xlink:href="#mbb41dbbd11" y="630"/>
      </g>
     </g>
     <g id="text_5">
      <!-- 400 -->
      <g transform="translate(505.91643 644.598438)scale(0.1 -0.1)">
       <use xlink:href="#DejaVuSans-52"/>
       <use x="63.623047" xlink:href="#DejaVuSans-48"/>
       <use x="127.246094" xlink:href="#DejaVuSans-48"/>
      </g>
     </g>
    </g>
    <g id="xtick_6">
     <g id="line2d_11">
      <path clip-path="url(#pf3f80b4ae3)" d="M 614.919684 630 
L 614.919684 86.4 
" style="fill:none;stroke:#b0b0b0;stroke-linecap:square;stroke-width:0.8;"/>
     </g>
     <g id="line2d_12">
      <g>
       <use style="stroke:#000000;stroke-width:0.8;" x="614.919684" xlink:href="#mbb41dbbd11" y="630"/>
      </g>
     </g>
     <g id="text_6">
      <!-- 600 -->
      <defs>
       <path d="M 33.015625 40.375 
Q 26.375 40.375 22.484375 35.828125 
Q 18.609375 31.296875 18.609375 23.390625 
Q 18.609375 15.53125 22.484375 10.953125 
Q 26.375 6.390625 33.015625 6.390625 
Q 39.65625 6.390625 43.53125 10.953125 
Q 47.40625 15.53125 47.40625 23.390625 
Q 47.40625 31.296875 43.53125 35.828125 
Q 39.65625 40.375 33.015625 40.375 
z
M 52.59375 71.296875 
L 52.59375 62.3125 
Q 48.875 64.0625 45.09375 64.984375 
Q 41.3125 65.921875 37.59375 65.921875 
Q 27.828125 65.921875 22.671875 59.328125 
Q 17.53125 52.734375 16.796875 39.40625 
Q 19.671875 43.65625 24.015625 45.921875 
Q 28.375 48.1875 33.59375 48.1875 
Q 44.578125 48.1875 50.953125 41.515625 
Q 57.328125 34.859375 57.328125 23.390625 
Q 57.328125 12.15625 50.6875 5.359375 
Q 44.046875 -1.421875 33.015625 -1.421875 
Q 20.359375 -1.421875 13.671875 8.265625 
Q 6.984375 17.96875 6.984375 36.375 
Q 6.984375 53.65625 15.1875 63.9375 
Q 23.390625 74.21875 37.203125 74.21875 
Q 40.921875 74.21875 44.703125 73.484375 
Q 48.484375 72.75 52.59375 71.296875 
z
" id="DejaVuSans-54"/>
      </defs>
      <g transform="translate(605.375934 644.598438)scale(0.1 -0.1)">
       <use xlink:href="#DejaVuSans-54"/>
       <use x="63.623047" xlink:href="#DejaVuSans-48"/>
       <use x="127.246094" xlink:href="#DejaVuSans-48"/>
      </g>
     </g>
    </g>
    <g id="text_7">
     <!-- X (cm) -->
     <defs>
      <path d="M 6.296875 72.90625 
L 16.890625 72.90625 
L 35.015625 45.796875 
L 53.21875 72.90625 
L 63.8125 72.90625 
L 40.375 37.890625 
L 65.375 0 
L 54.78125 0 
L 34.28125 31 
L 13.625 0 
L 2.984375 0 
L 29 38.921875 
z
" id="DejaVuSans-88"/>
      <path id="DejaVuSans-32"/>
      <path d="M 31 75.875 
Q 24.46875 64.65625 21.28125 53.65625 
Q 18.109375 42.671875 18.109375 31.390625 
Q 18.109375 20.125 21.3125 9.0625 
Q 24.515625 -2 31 -13.1875 
L 23.1875 -13.1875 
Q 15.875 -1.703125 12.234375 9.375 
Q 8.59375 20.453125 8.59375 31.390625 
Q 8.59375 42.28125 12.203125 53.3125 
Q 15.828125 64.359375 23.1875 75.875 
z
" id="DejaVuSans-40"/>
      <path d="M 48.78125 52.59375 
L 48.78125 44.1875 
Q 44.96875 46.296875 41.140625 47.34375 
Q 37.3125 48.390625 33.40625 48.390625 
Q 24.65625 48.390625 19.8125 42.84375 
Q 14.984375 37.3125 14.984375 27.296875 
Q 14.984375 17.28125 19.8125 11.734375 
Q 24.65625 6.203125 33.40625 6.203125 
Q 37.3125 6.203125 41.140625 7.25 
Q 44.96875 8.296875 48.78125 10.40625 
L 48.78125 2.09375 
Q 45.015625 0.34375 40.984375 -0.53125 
Q 36.96875 -1.421875 32.421875 -1.421875 
Q 20.0625 -1.421875 12.78125 6.34375 
Q 5.515625 14.109375 5.515625 27.296875 
Q 5.515625 40.671875 12.859375 48.328125 
Q 20.21875 56 33.015625 56 
Q 37.15625 56 41.109375 55.140625 
Q 45.0625 54.296875 48.78125 52.59375 
z
" id="DejaVuSans-99"/>
      <path d="M 52 44.1875 
Q 55.375 50.25 60.0625 53.125 
Q 64.75 56 71.09375 56 
Q 79.640625 56 84.28125 50.015625 
Q 88.921875 44.046875 88.921875 33.015625 
L 88.921875 0 
L 79.890625 0 
L 79.890625 32.71875 
Q 79.890625 40.578125 77.09375 44.375 
Q 74.3125 48.1875 68.609375 48.1875 
Q 61.625 48.1875 57.5625 43.546875 
Q 53.515625 38.921875 53.515625 30.90625 
L 53.515625 0 
L 44.484375 0 
L 44.484375 32.71875 
Q 44.484375 40.625 41.703125 44.40625 
Q 38.921875 48.1875 33.109375 48.1875 
Q 26.21875 48.1875 22.15625 43.53125 
Q 18.109375 38.875 18.109375 30.90625 
L 18.109375 0 
L 9.078125 0 
L 9.078125 54.6875 
L 18.109375 54.6875 
L 18.109375 46.1875 
Q 21.1875 51.21875 25.484375 53.609375 
Q 29.78125 56 35.6875 56 
Q 41.65625 56 45.828125 52.96875 
Q 50 49.953125 52 44.1875 
z
" id="DejaVuSans-109"/>
      <path d="M 8.015625 75.875 
L 15.828125 75.875 
Q 23.140625 64.359375 26.78125 53.3125 
Q 30.421875 42.28125 30.421875 31.390625 
Q 30.421875 20.453125 26.78125 9.375 
Q 23.140625 -1.703125 15.828125 -13.1875 
L 8.015625 -13.1875 
Q 14.5 -2 17.703125 9.0625 
Q 20.90625 20.125 20.90625 31.390625 
Q 20.90625 42.671875 17.703125 53.65625 
Q 14.5 64.65625 8.015625 75.875 
z
" id="DejaVuSans-41"/>
     </defs>
     <g transform="translate(352.464844 658.276562)scale(0.1 -0.1)">
      <use xlink:href="#DejaVuSans-88"/>
      <use x="68.505859" xlink:href="#DejaVuSans-32"/>
      <use x="100.292969" xlink:href="#DejaVuSans-40"/>
      <use x="139.306641" xlink:href="#DejaVuSans-99"/>
      <use x="194.287109" xlink:href="#DejaVuSans-109"/>
      <use x="291.699219" xlink:href="#DejaVuSans-41"/>
     </g>
    </g>
   </g>
   <g id="matplotlib.axis_2">
    <g id="ytick_1">
     <g id="line2d_13">
      <path clip-path="url(#pf3f80b4ae3)" d="M 90 575.89791 
L 648 575.89791 
" style="fill:none;stroke:#b0b0b0;stroke-linecap:square;stroke-width:0.8;"/>
     </g>
     <g id="line2d_14">
      <defs>
       <path d="M 0 0 
L -3.5 0 
" id="m7fb854b0a5" style="stroke:#000000;stroke-width:0.8;"/>
      </defs>
      <g>
       <use style="stroke:#000000;stroke-width:0.8;" x="90" xlink:href="#m7fb854b0a5" y="575.89791"/>
      </g>
     </g>
     <g id="text_8">
      <!-- −200 -->
      <g transform="translate(55.532812 579.697129)scale(0.1 -0.1)">
       <use xlink:href="#DejaVuSans-8722"/>
       <use x="83.789062" xlink:href="#DejaVuSans-50"/>
       <use x="147.412109" xlink:href="#DejaVuSans-48"/>
       <use x="211.035156" xlink:href="#DejaVuSans-48"/>
      </g>
     </g>
    </g>
    <g id="ytick_2">
     <g id="line2d_15">
      <path clip-path="url(#pf3f80b4ae3)" d="M 90 476.438406 
L 648 476.438406 
" style="fill:none;stroke:#b0b0b0;stroke-linecap:square;stroke-width:0.8;"/>
     </g>
     <g id="line2d_16">
      <g>
       <use style="stroke:#000000;stroke-width:0.8;" x="90" xlink:href="#m7fb854b0a5" y="476.438406"/>
      </g>
     </g>
     <g id="text_9">
      <!-- 0 -->
      <g transform="translate(76.6375 480.237625)scale(0.1 -0.1)">
       <use xlink:href="#DejaVuSans-48"/>
      </g>
     </g>
    </g>
    <g id="ytick_3">
     <g id="line2d_17">
      <path clip-path="url(#pf3f80b4ae3)" d="M 90 376.978902 
L 648 376.978902 
" style="fill:none;stroke:#b0b0b0;stroke-linecap:square;stroke-width:0.8;"/>
     </g>
     <g id="line2d_18">
      <g>
       <use style="stroke:#000000;stroke-width:0.8;" x="90" xlink:href="#m7fb854b0a5" y="376.978902"/>
      </g>
     </g>
     <g id="text_10">
      <!-- 200 -->
      <g transform="translate(63.9125 380.77812)scale(0.1 -0.1)">
       <use xlink:href="#DejaVuSans-50"/>
       <use x="63.623047" xlink:href="#DejaVuSans-48"/>
       <use x="127.246094" xlink:href="#DejaVuSans-48"/>
      </g>
     </g>
    </g>
    <g id="ytick_4">
     <g id="line2d_19">
      <path clip-path="url(#pf3f80b4ae3)" d="M 90 277.519397 
L 648 277.519397 
" style="fill:none;stroke:#b0b0b0;stroke-linecap:square;stroke-width:0.8;"/>
     </g>
     <g id="line2d_20">
      <g>
       <use style="stroke:#000000;stroke-width:0.8;" x="90" xlink:href="#m7fb854b0a5" y="277.519397"/>
      </g>
     </g>
     <g id="text_11">
      <!-- 400 -->
      <g transform="translate(63.9125 281.318616)scale(0.1 -0.1)">
       <use xlink:href="#DejaVuSans-52"/>
       <use x="63.623047" xlink:href="#DejaVuSans-48"/>
       <use x="127.246094" xlink:href="#DejaVuSans-48"/>
      </g>
     </g>
    </g>
    <g id="ytick_5">
     <g id="line2d_21">
      <path clip-path="url(#pf3f80b4ae3)" d="M 90 178.059893 
L 648 178.059893 
" style="fill:none;stroke:#b0b0b0;stroke-linecap:square;stroke-width:0.8;"/>
     </g>
     <g id="line2d_22">
      <g>
       <use style="stroke:#000000;stroke-width:0.8;" x="90" xlink:href="#m7fb854b0a5" y="178.059893"/>
      </g>
     </g>
     <g id="text_12">
      <!-- 600 -->
      <g transform="translate(63.9125 181.859112)scale(0.1 -0.1)">
       <use xlink:href="#DejaVuSans-54"/>
       <use x="63.623047" xlink:href="#DejaVuSans-48"/>
       <use x="127.246094" xlink:href="#DejaVuSans-48"/>
      </g>
     </g>
    </g>
    <g id="text_13">
     <!-- Y (cm) -->
     <defs>
      <path d="M -0.203125 72.90625 
L 10.40625 72.90625 
L 30.609375 42.921875 
L 50.6875 72.90625 
L 61.28125 72.90625 
L 35.5 34.71875 
L 35.5 0 
L 25.59375 0 
L 25.59375 34.71875 
z
" id="DejaVuSans-89"/>
     </defs>
     <g transform="translate(49.453125 374.364062)rotate(-90)scale(0.1 -0.1)">
      <use xlink:href="#DejaVuSans-89"/>
      <use x="61.083984" xlink:href="#DejaVuSans-32"/>
      <use x="92.871094" xlink:href="#DejaVuSans-40"/>
      <use x="131.884766" xlink:href="#DejaVuSans-99"/>
      <use x="186.865234" xlink:href="#DejaVuSans-109"/>
      <use x="284.277344" xlink:href="#DejaVuSans-41"/>
     </g>
    </g>
   </g>
   <g id="patch_9">
    <path d="M 90 630 
L 90 86.4 
" style="fill:none;stroke:#000000;stroke-linecap:square;stroke-linejoin:miter;stroke-width:0.8;"/>
   </g>
   <g id="patch_10">
    <path d="M 648 630 
L 648 86.4 
" style="fill:none;stroke:#000000;stroke-linecap:square;stroke-linejoin:miter;stroke-width:0.8;"/>
   </g>
   <g id="patch_11">
    <path d="M 90 630 
L 648 630 
" style="fill:none;stroke:#000000;stroke-linecap:square;stroke-linejoin:miter;stroke-width:0.8;"/>
   </g>
   <g id="patch_12">
    <path d="M 90 86.4 
L 648 86.4 
" style="fill:none;stroke:#000000;stroke-linecap:square;stroke-linejoin:miter;stroke-width:0.8;"/>
   </g>
   <g id="text_14">
    <!-- Uncertainty Ellipse for Measurements of good right Run -->
    <defs>
     <path d="M 8.6875 72.90625 
L 18.609375 72.90625 
L 18.609375 28.609375 
Q 18.609375 16.890625 22.84375 11.734375 
Q 27.09375 6.59375 36.625 6.59375 
Q 46.09375 6.59375 50.34375 11.734375 
Q 54.59375 16.890625 54.59375 28.609375 
L 54.59375 72.90625 
L 64.5 72.90625 
L 64.5 27.390625 
Q 64.5 13.140625 57.4375 5.859375 
Q 50.390625 -1.421875 36.625 -1.421875 
Q 22.796875 -1.421875 15.734375 5.859375 
Q 8.6875 13.140625 8.6875 27.390625 
z
" id="DejaVuSans-85"/>
     <path d="M 54.890625 33.015625 
L 54.890625 0 
L 45.90625 0 
L 45.90625 32.71875 
Q 45.90625 40.484375 42.875 44.328125 
Q 39.84375 48.1875 33.796875 48.1875 
Q 26.515625 48.1875 22.3125 43.546875 
Q 18.109375 38.921875 18.109375 30.90625 
L 18.109375 0 
L 9.078125 0 
L 9.078125 54.6875 
L 18.109375 54.6875 
L 18.109375 46.1875 
Q 21.34375 51.125 25.703125 53.5625 
Q 30.078125 56 35.796875 56 
Q 45.21875 56 50.046875 50.171875 
Q 54.890625 44.34375 54.890625 33.015625 
z
" id="DejaVuSans-110"/>
     <path d="M 56.203125 29.59375 
L 56.203125 25.203125 
L 14.890625 25.203125 
Q 15.484375 15.921875 20.484375 11.0625 
Q 25.484375 6.203125 34.421875 6.203125 
Q 39.59375 6.203125 44.453125 7.46875 
Q 49.3125 8.734375 54.109375 11.28125 
L 54.109375 2.78125 
Q 49.265625 0.734375 44.1875 -0.34375 
Q 39.109375 -1.421875 33.890625 -1.421875 
Q 20.796875 -1.421875 13.15625 6.1875 
Q 5.515625 13.8125 5.515625 26.8125 
Q 5.515625 40.234375 12.765625 48.109375 
Q 20.015625 56 32.328125 56 
Q 43.359375 56 49.78125 48.890625 
Q 56.203125 41.796875 56.203125 29.59375 
z
M 47.21875 32.234375 
Q 47.125 39.59375 43.09375 43.984375 
Q 39.0625 48.390625 32.421875 48.390625 
Q 24.90625 48.390625 20.390625 44.140625 
Q 15.875 39.890625 15.1875 32.171875 
z
" id="DejaVuSans-101"/>
     <path d="M 41.109375 46.296875 
Q 39.59375 47.171875 37.8125 47.578125 
Q 36.03125 48 33.890625 48 
Q 26.265625 48 22.1875 43.046875 
Q 18.109375 38.09375 18.109375 28.8125 
L 18.109375 0 
L 9.078125 0 
L 9.078125 54.6875 
L 18.109375 54.6875 
L 18.109375 46.1875 
Q 20.953125 51.171875 25.484375 53.578125 
Q 30.03125 56 36.53125 56 
Q 37.453125 56 38.578125 55.875 
Q 39.703125 55.765625 41.0625 55.515625 
z
" id="DejaVuSans-114"/>
     <path d="M 18.3125 70.21875 
L 18.3125 54.6875 
L 36.8125 54.6875 
L 36.8125 47.703125 
L 18.3125 47.703125 
L 18.3125 18.015625 
Q 18.3125 11.328125 20.140625 9.421875 
Q 21.96875 7.515625 27.59375 7.515625 
L 36.8125 7.515625 
L 36.8125 0 
L 27.59375 0 
Q 17.1875 0 13.234375 3.875 
Q 9.28125 7.765625 9.28125 18.015625 
L 9.28125 47.703125 
L 2.6875 47.703125 
L 2.6875 54.6875 
L 9.28125 54.6875 
L 9.28125 70.21875 
z
" id="DejaVuSans-116"/>
     <path d="M 34.28125 27.484375 
Q 23.390625 27.484375 19.1875 25 
Q 14.984375 22.515625 14.984375 16.5 
Q 14.984375 11.71875 18.140625 8.90625 
Q 21.296875 6.109375 26.703125 6.109375 
Q 34.1875 6.109375 38.703125 11.40625 
Q 43.21875 16.703125 43.21875 25.484375 
L 43.21875 27.484375 
z
M 52.203125 31.203125 
L 52.203125 0 
L 43.21875 0 
L 43.21875 8.296875 
Q 40.140625 3.328125 35.546875 0.953125 
Q 30.953125 -1.421875 24.3125 -1.421875 
Q 15.921875 -1.421875 10.953125 3.296875 
Q 6 8.015625 6 15.921875 
Q 6 25.140625 12.171875 29.828125 
Q 18.359375 34.515625 30.609375 34.515625 
L 43.21875 34.515625 
L 43.21875 35.40625 
Q 43.21875 41.609375 39.140625 45 
Q 35.0625 48.390625 27.6875 48.390625 
Q 23 48.390625 18.546875 47.265625 
Q 14.109375 46.140625 10.015625 43.890625 
L 10.015625 52.203125 
Q 14.9375 54.109375 19.578125 55.046875 
Q 24.21875 56 28.609375 56 
Q 40.484375 56 46.34375 49.84375 
Q 52.203125 43.703125 52.203125 31.203125 
z
" id="DejaVuSans-97"/>
     <path d="M 9.421875 54.6875 
L 18.40625 54.6875 
L 18.40625 0 
L 9.421875 0 
z
M 9.421875 75.984375 
L 18.40625 75.984375 
L 18.40625 64.59375 
L 9.421875 64.59375 
z
" id="DejaVuSans-105"/>
     <path d="M 32.171875 -5.078125 
Q 28.375 -14.84375 24.75 -17.8125 
Q 21.140625 -20.796875 15.09375 -20.796875 
L 7.90625 -20.796875 
L 7.90625 -13.28125 
L 13.1875 -13.28125 
Q 16.890625 -13.28125 18.9375 -11.515625 
Q 21 -9.765625 23.484375 -3.21875 
L 25.09375 0.875 
L 2.984375 54.6875 
L 12.5 54.6875 
L 29.59375 11.921875 
L 46.6875 54.6875 
L 56.203125 54.6875 
z
" id="DejaVuSans-121"/>
     <path d="M 9.8125 72.90625 
L 55.90625 72.90625 
L 55.90625 64.59375 
L 19.671875 64.59375 
L 19.671875 43.015625 
L 54.390625 43.015625 
L 54.390625 34.71875 
L 19.671875 34.71875 
L 19.671875 8.296875 
L 56.78125 8.296875 
L 56.78125 0 
L 9.8125 0 
z
" id="DejaVuSans-69"/>
     <path d="M 9.421875 75.984375 
L 18.40625 75.984375 
L 18.40625 0 
L 9.421875 0 
z
" id="DejaVuSans-108"/>
     <path d="M 18.109375 8.203125 
L 18.109375 -20.796875 
L 9.078125 -20.796875 
L 9.078125 54.6875 
L 18.109375 54.6875 
L 18.109375 46.390625 
Q 20.953125 51.265625 25.265625 53.625 
Q 29.59375 56 35.59375 56 
Q 45.5625 56 51.78125 48.09375 
Q 58.015625 40.1875 58.015625 27.296875 
Q 58.015625 14.40625 51.78125 6.484375 
Q 45.5625 -1.421875 35.59375 -1.421875 
Q 29.59375 -1.421875 25.265625 0.953125 
Q 20.953125 3.328125 18.109375 8.203125 
z
M 48.6875 27.296875 
Q 48.6875 37.203125 44.609375 42.84375 
Q 40.53125 48.484375 33.40625 48.484375 
Q 26.265625 48.484375 22.1875 42.84375 
Q 18.109375 37.203125 18.109375 27.296875 
Q 18.109375 17.390625 22.1875 11.75 
Q 26.265625 6.109375 33.40625 6.109375 
Q 40.53125 6.109375 44.609375 11.75 
Q 48.6875 17.390625 48.6875 27.296875 
z
" id="DejaVuSans-112"/>
     <path d="M 44.28125 53.078125 
L 44.28125 44.578125 
Q 40.484375 46.53125 36.375 47.5 
Q 32.28125 48.484375 27.875 48.484375 
Q 21.1875 48.484375 17.84375 46.4375 
Q 14.5 44.390625 14.5 40.28125 
Q 14.5 37.15625 16.890625 35.375 
Q 19.28125 33.59375 26.515625 31.984375 
L 29.59375 31.296875 
Q 39.15625 29.25 43.1875 25.515625 
Q 47.21875 21.78125 47.21875 15.09375 
Q 47.21875 7.46875 41.1875 3.015625 
Q 35.15625 -1.421875 24.609375 -1.421875 
Q 20.21875 -1.421875 15.453125 -0.5625 
Q 10.6875 0.296875 5.421875 2 
L 5.421875 11.28125 
Q 10.40625 8.6875 15.234375 7.390625 
Q 20.0625 6.109375 24.8125 6.109375 
Q 31.15625 6.109375 34.5625 8.28125 
Q 37.984375 10.453125 37.984375 14.40625 
Q 37.984375 18.0625 35.515625 20.015625 
Q 33.0625 21.96875 24.703125 23.78125 
L 21.578125 24.515625 
Q 13.234375 26.265625 9.515625 29.90625 
Q 5.8125 33.546875 5.8125 39.890625 
Q 5.8125 47.609375 11.28125 51.796875 
Q 16.75 56 26.8125 56 
Q 31.78125 56 36.171875 55.265625 
Q 40.578125 54.546875 44.28125 53.078125 
z
" id="DejaVuSans-115"/>
     <path d="M 37.109375 75.984375 
L 37.109375 68.5 
L 28.515625 68.5 
Q 23.6875 68.5 21.796875 66.546875 
Q 19.921875 64.59375 19.921875 59.515625 
L 19.921875 54.6875 
L 34.71875 54.6875 
L 34.71875 47.703125 
L 19.921875 47.703125 
L 19.921875 0 
L 10.890625 0 
L 10.890625 47.703125 
L 2.296875 47.703125 
L 2.296875 54.6875 
L 10.890625 54.6875 
L 10.890625 58.5 
Q 10.890625 67.625 15.140625 71.796875 
Q 19.390625 75.984375 28.609375 75.984375 
z
" id="DejaVuSans-102"/>
     <path d="M 30.609375 48.390625 
Q 23.390625 48.390625 19.1875 42.75 
Q 14.984375 37.109375 14.984375 27.296875 
Q 14.984375 17.484375 19.15625 11.84375 
Q 23.34375 6.203125 30.609375 6.203125 
Q 37.796875 6.203125 41.984375 11.859375 
Q 46.1875 17.53125 46.1875 27.296875 
Q 46.1875 37.015625 41.984375 42.703125 
Q 37.796875 48.390625 30.609375 48.390625 
z
M 30.609375 56 
Q 42.328125 56 49.015625 48.375 
Q 55.71875 40.765625 55.71875 27.296875 
Q 55.71875 13.875 49.015625 6.21875 
Q 42.328125 -1.421875 30.609375 -1.421875 
Q 18.84375 -1.421875 12.171875 6.21875 
Q 5.515625 13.875 5.515625 27.296875 
Q 5.515625 40.765625 12.171875 48.375 
Q 18.84375 56 30.609375 56 
z
" id="DejaVuSans-111"/>
     <path d="M 9.8125 72.90625 
L 24.515625 72.90625 
L 43.109375 23.296875 
L 61.8125 72.90625 
L 76.515625 72.90625 
L 76.515625 0 
L 66.890625 0 
L 66.890625 64.015625 
L 48.09375 14.015625 
L 38.1875 14.015625 
L 19.390625 64.015625 
L 19.390625 0 
L 9.8125 0 
z
" id="DejaVuSans-77"/>
     <path d="M 8.5 21.578125 
L 8.5 54.6875 
L 17.484375 54.6875 
L 17.484375 21.921875 
Q 17.484375 14.15625 20.5 10.265625 
Q 23.53125 6.390625 29.59375 6.390625 
Q 36.859375 6.390625 41.078125 11.03125 
Q 45.3125 15.671875 45.3125 23.6875 
L 45.3125 54.6875 
L 54.296875 54.6875 
L 54.296875 0 
L 45.3125 0 
L 45.3125 8.40625 
Q 42.046875 3.421875 37.71875 1 
Q 33.40625 -1.421875 27.6875 -1.421875 
Q 18.265625 -1.421875 13.375 4.4375 
Q 8.5 10.296875 8.5 21.578125 
z
M 31.109375 56 
z
" id="DejaVuSans-117"/>
     <path d="M 45.40625 27.984375 
Q 45.40625 37.75 41.375 43.109375 
Q 37.359375 48.484375 30.078125 48.484375 
Q 22.859375 48.484375 18.828125 43.109375 
Q 14.796875 37.75 14.796875 27.984375 
Q 14.796875 18.265625 18.828125 12.890625 
Q 22.859375 7.515625 30.078125 7.515625 
Q 37.359375 7.515625 41.375 12.890625 
Q 45.40625 18.265625 45.40625 27.984375 
z
M 54.390625 6.78125 
Q 54.390625 -7.171875 48.1875 -13.984375 
Q 42 -20.796875 29.203125 -20.796875 
Q 24.46875 -20.796875 20.265625 -20.09375 
Q 16.0625 -19.390625 12.109375 -17.921875 
L 12.109375 -9.1875 
Q 16.0625 -11.328125 19.921875 -12.34375 
Q 23.78125 -13.375 27.78125 -13.375 
Q 36.625 -13.375 41.015625 -8.765625 
Q 45.40625 -4.15625 45.40625 5.171875 
L 45.40625 9.625 
Q 42.625 4.78125 38.28125 2.390625 
Q 33.9375 0 27.875 0 
Q 17.828125 0 11.671875 7.65625 
Q 5.515625 15.328125 5.515625 27.984375 
Q 5.515625 40.671875 11.671875 48.328125 
Q 17.828125 56 27.875 56 
Q 33.9375 56 38.28125 53.609375 
Q 42.625 51.21875 45.40625 46.390625 
L 45.40625 54.6875 
L 54.390625 54.6875 
z
" id="DejaVuSans-103"/>
     <path d="M 45.40625 46.390625 
L 45.40625 75.984375 
L 54.390625 75.984375 
L 54.390625 0 
L 45.40625 0 
L 45.40625 8.203125 
Q 42.578125 3.328125 38.25 0.953125 
Q 33.9375 -1.421875 27.875 -1.421875 
Q 17.96875 -1.421875 11.734375 6.484375 
Q 5.515625 14.40625 5.515625 27.296875 
Q 5.515625 40.1875 11.734375 48.09375 
Q 17.96875 56 27.875 56 
Q 33.9375 56 38.25 53.625 
Q 42.578125 51.265625 45.40625 46.390625 
z
M 14.796875 27.296875 
Q 14.796875 17.390625 18.875 11.75 
Q 22.953125 6.109375 30.078125 6.109375 
Q 37.203125 6.109375 41.296875 11.75 
Q 45.40625 17.390625 45.40625 27.296875 
Q 45.40625 37.203125 41.296875 42.84375 
Q 37.203125 48.484375 30.078125 48.484375 
Q 22.953125 48.484375 18.875 42.84375 
Q 14.796875 37.203125 14.796875 27.296875 
z
" id="DejaVuSans-100"/>
     <path d="M 54.890625 33.015625 
L 54.890625 0 
L 45.90625 0 
L 45.90625 32.71875 
Q 45.90625 40.484375 42.875 44.328125 
Q 39.84375 48.1875 33.796875 48.1875 
Q 26.515625 48.1875 22.3125 43.546875 
Q 18.109375 38.921875 18.109375 30.90625 
L 18.109375 0 
L 9.078125 0 
L 9.078125 75.984375 
L 18.109375 75.984375 
L 18.109375 46.1875 
Q 21.34375 51.125 25.703125 53.5625 
Q 30.078125 56 35.796875 56 
Q 45.21875 56 50.046875 50.171875 
Q 54.890625 44.34375 54.890625 33.015625 
z
" id="DejaVuSans-104"/>
     <path d="M 44.390625 34.1875 
Q 47.5625 33.109375 50.5625 29.59375 
Q 53.5625 26.078125 56.59375 19.921875 
L 66.609375 0 
L 56 0 
L 46.6875 18.703125 
Q 43.0625 26.03125 39.671875 28.421875 
Q 36.28125 30.8125 30.421875 30.8125 
L 19.671875 30.8125 
L 19.671875 0 
L 9.8125 0 
L 9.8125 72.90625 
L 32.078125 72.90625 
Q 44.578125 72.90625 50.734375 67.671875 
Q 56.890625 62.453125 56.890625 51.90625 
Q 56.890625 45.015625 53.6875 40.46875 
Q 50.484375 35.9375 44.390625 34.1875 
z
M 19.671875 64.796875 
L 19.671875 38.921875 
L 32.078125 38.921875 
Q 39.203125 38.921875 42.84375 42.21875 
Q 46.484375 45.515625 46.484375 51.90625 
Q 46.484375 58.296875 42.84375 61.546875 
Q 39.203125 64.796875 32.078125 64.796875 
z
" id="DejaVuSans-82"/>
    </defs>
    <g transform="translate(229.726562 80.4)scale(0.1 -0.1)">
     <use xlink:href="#DejaVuSans-85"/>
     <use x="73.193359" xlink:href="#DejaVuSans-110"/>
     <use x="136.572266" xlink:href="#DejaVuSans-99"/>
     <use x="191.552734" xlink:href="#DejaVuSans-101"/>
     <use x="253.076172" xlink:href="#DejaVuSans-114"/>
     <use x="294.189453" xlink:href="#DejaVuSans-116"/>
     <use x="333.398438" xlink:href="#DejaVuSans-97"/>
     <use x="394.677734" xlink:href="#DejaVuSans-105"/>
     <use x="422.460938" xlink:href="#DejaVuSans-110"/>
     <use x="485.839844" xlink:href="#DejaVuSans-116"/>
     <use x="525.048828" xlink:href="#DejaVuSans-121"/>
     <use x="584.228516" xlink:href="#DejaVuSans-32"/>
     <use x="616.015625" xlink:href="#DejaVuSans-69"/>
     <use x="679.199219" xlink:href="#DejaVuSans-108"/>
     <use x="706.982422" xlink:href="#DejaVuSans-108"/>
     <use x="734.765625" xlink:href="#DejaVuSans-105"/>
     <use x="762.548828" xlink:href="#DejaVuSans-112"/>
     <use x="826.025391" xlink:href="#DejaVuSans-115"/>
     <use x="878.125" xlink:href="#DejaVuSans-101"/>
     <use x="939.648438" xlink:href="#DejaVuSans-32"/>
     <use x="971.435547" xlink:href="#DejaVuSans-102"/>
     <use x="1006.640625" xlink:href="#DejaVuSans-111"/>
     <use x="1067.822266" xlink:href="#DejaVuSans-114"/>
     <use x="1108.935547" xlink:href="#DejaVuSans-32"/>
     <use x="1140.722656" xlink:href="#DejaVuSans-77"/>
     <use x="1227.001953" xlink:href="#DejaVuSans-101"/>
     <use x="1288.525391" xlink:href="#DejaVuSans-97"/>
     <use x="1349.804688" xlink:href="#DejaVuSans-115"/>
     <use x="1401.904297" xlink:href="#DejaVuSans-117"/>
     <use x="1465.283203" xlink:href="#DejaVuSans-114"/>
     <use x="1506.365234" xlink:href="#DejaVuSans-101"/>
     <use x="1567.888672" xlink:href="#DejaVuSans-109"/>
     <use x="1665.300781" xlink:href="#DejaVuSans-101"/>
     <use x="1726.824219" xlink:href="#DejaVuSans-110"/>
     <use x="1790.203125" xlink:href="#DejaVuSans-116"/>
     <use x="1829.412109" xlink:href="#DejaVuSans-115"/>
     <use x="1881.511719" xlink:href="#DejaVuSans-32"/>
     <use x="1913.298828" xlink:href="#DejaVuSans-111"/>
     <use x="1974.480469" xlink:href="#DejaVuSans-102"/>
     <use x="2009.685547" xlink:href="#DejaVuSans-32"/>
     <use x="2041.472656" xlink:href="#DejaVuSans-103"/>
     <use x="2104.949219" xlink:href="#DejaVuSans-111"/>
     <use x="2166.130859" xlink:href="#DejaVuSans-111"/>
     <use x="2227.3125" xlink:href="#DejaVuSans-100"/>
     <use x="2290.789062" xlink:href="#DejaVuSans-32"/>
     <use x="2322.576172" xlink:href="#DejaVuSans-114"/>
     <use x="2363.689453" xlink:href="#DejaVuSans-105"/>
     <use x="2391.472656" xlink:href="#DejaVuSans-103"/>
     <use x="2454.949219" xlink:href="#DejaVuSans-104"/>
     <use x="2518.328125" xlink:href="#DejaVuSans-116"/>
     <use x="2557.537109" xlink:href="#DejaVuSans-32"/>
     <use x="2589.324219" xlink:href="#DejaVuSans-82"/>
     <use x="2658.744141" xlink:href="#DejaVuSans-117"/>
     <use x="2722.123047" xlink:href="#DejaVuSans-110"/>
    </g>
   </g>
   <g id="legend_1">
    <g id="patch_13">
     <path d="M 442.714062 211.825 
L 641 211.825 
Q 643 211.825 643 209.825 
L 643 93.4 
Q 643 91.4 641 91.4 
L 442.714062 91.4 
Q 440.714062 91.4 440.714062 93.4 
L 440.714062 209.825 
Q 440.714062 211.825 442.714062 211.825 
z
" style="fill:#ffffff;opacity:0.8;stroke:#cccccc;stroke-linejoin:miter;"/>
    </g>
    <g id="patch_14">
     <path d="M 444.714062 102.998437 
L 464.714062 102.998437 
L 464.714062 95.998437 
L 444.714062 95.998437 
z
" style="fill:none;stroke:#b22222;stroke-linejoin:miter;"/>
    </g>
    <g id="text_15">
     <!-- $1\sigma$ for forward data -->
     <defs>
      <path d="M 12.40625 8.296875 
L 28.515625 8.296875 
L 28.515625 63.921875 
L 10.984375 60.40625 
L 10.984375 69.390625 
L 28.421875 72.90625 
L 38.28125 72.90625 
L 38.28125 8.296875 
L 54.390625 8.296875 
L 54.390625 0 
L 12.40625 0 
z
" id="DejaVuSans-49"/>
      <path d="M 34.671875 47.5625 
Q 27.25 47.5625 22.21875 42.1875 
Q 16.890625 36.578125 15.140625 27.296875 
Q 13.1875 17.484375 16.3125 11.8125 
Q 19.390625 6.203125 26.65625 6.203125 
Q 33.84375 6.203125 39.109375 11.859375 
Q 44.4375 17.53125 46.34375 27.296875 
Q 48.046875 36.234375 45.015625 42.1875 
Q 42.1875 47.5625 34.671875 47.5625 
z
M 36.078125 54.734375 
L 65.921875 54.6875 
L 64.15625 45.703125 
L 54.109375 45.703125 
Q 57.90625 38.09375 55.859375 27.296875 
Q 53.21875 13.875 45.0625 6.25 
Q 36.859375 -1.421875 25.140625 -1.421875 
Q 13.375 -1.421875 8.203125 6.25 
Q 3.03125 13.875 5.671875 27.296875 
Q 8.25 40.765625 16.40625 48.390625 
Q 23.1875 54.734375 36.078125 54.734375 
z
" id="DejaVuSans-Oblique-963"/>
      <path d="M 4.203125 54.6875 
L 13.1875 54.6875 
L 24.421875 12.015625 
L 35.59375 54.6875 
L 46.1875 54.6875 
L 57.421875 12.015625 
L 68.609375 54.6875 
L 77.59375 54.6875 
L 63.28125 0 
L 52.6875 0 
L 40.921875 44.828125 
L 29.109375 0 
L 18.5 0 
z
" id="DejaVuSans-119"/>
     </defs>
     <g transform="translate(472.714062 102.998437)scale(0.1 -0.1)">
      <use transform="translate(0 0.015625)" xlink:href="#DejaVuSans-49"/>
      <use transform="translate(63.623047 0.015625)" xlink:href="#DejaVuSans-Oblique-963"/>
      <use transform="translate(127.001953 0.015625)" xlink:href="#DejaVuSans-32"/>
      <use transform="translate(158.789062 0.015625)" xlink:href="#DejaVuSans-102"/>
      <use transform="translate(193.994141 0.015625)" xlink:href="#DejaVuSans-111"/>
      <use transform="translate(255.175781 0.015625)" xlink:href="#DejaVuSans-114"/>
      <use transform="translate(296.289062 0.015625)" xlink:href="#DejaVuSans-32"/>
      <use transform="translate(328.076172 0.015625)" xlink:href="#DejaVuSans-102"/>
      <use transform="translate(363.28125 0.015625)" xlink:href="#DejaVuSans-111"/>
      <use transform="translate(424.462891 0.015625)" xlink:href="#DejaVuSans-114"/>
      <use transform="translate(465.576172 0.015625)" xlink:href="#DejaVuSans-119"/>
      <use transform="translate(547.363281 0.015625)" xlink:href="#DejaVuSans-97"/>
      <use transform="translate(608.642578 0.015625)" xlink:href="#DejaVuSans-114"/>
      <use transform="translate(649.755859 0.015625)" xlink:href="#DejaVuSans-100"/>
      <use transform="translate(713.232422 0.015625)" xlink:href="#DejaVuSans-32"/>
      <use transform="translate(745.019531 0.015625)" xlink:href="#DejaVuSans-100"/>
      <use transform="translate(808.496094 0.015625)" xlink:href="#DejaVuSans-97"/>
      <use transform="translate(869.775391 0.015625)" xlink:href="#DejaVuSans-116"/>
      <use transform="translate(908.984375 0.015625)" xlink:href="#DejaVuSans-97"/>
     </g>
    </g>
    <g id="patch_15">
     <path d="M 444.714062 117.676562 
L 464.714062 117.676562 
L 464.714062 110.676562 
L 444.714062 110.676562 
z
" style="fill:none;stroke:#b22222;stroke-linejoin:miter;"/>
    </g>
    <g id="text_16">
     <!-- $2\sigma$ for forward data -->
     <g transform="translate(472.714062 117.676562)scale(0.1 -0.1)">
      <use transform="translate(0 0.015625)" xlink:href="#DejaVuSans-50"/>
      <use transform="translate(63.623047 0.015625)" xlink:href="#DejaVuSans-Oblique-963"/>
      <use transform="translate(127.001953 0.015625)" xlink:href="#DejaVuSans-32"/>
      <use transform="translate(158.789062 0.015625)" xlink:href="#DejaVuSans-102"/>
      <use transform="translate(193.994141 0.015625)" xlink:href="#DejaVuSans-111"/>
      <use transform="translate(255.175781 0.015625)" xlink:href="#DejaVuSans-114"/>
      <use transform="translate(296.289062 0.015625)" xlink:href="#DejaVuSans-32"/>
      <use transform="translate(328.076172 0.015625)" xlink:href="#DejaVuSans-102"/>
      <use transform="translate(363.28125 0.015625)" xlink:href="#DejaVuSans-111"/>
      <use transform="translate(424.462891 0.015625)" xlink:href="#DejaVuSans-114"/>
      <use transform="translate(465.576172 0.015625)" xlink:href="#DejaVuSans-119"/>
      <use transform="translate(547.363281 0.015625)" xlink:href="#DejaVuSans-97"/>
      <use transform="translate(608.642578 0.015625)" xlink:href="#DejaVuSans-114"/>
      <use transform="translate(649.755859 0.015625)" xlink:href="#DejaVuSans-100"/>
      <use transform="translate(713.232422 0.015625)" xlink:href="#DejaVuSans-32"/>
      <use transform="translate(745.019531 0.015625)" xlink:href="#DejaVuSans-100"/>
      <use transform="translate(808.496094 0.015625)" xlink:href="#DejaVuSans-97"/>
      <use transform="translate(869.775391 0.015625)" xlink:href="#DejaVuSans-116"/>
      <use transform="translate(908.984375 0.015625)" xlink:href="#DejaVuSans-97"/>
     </g>
    </g>
    <g id="patch_16">
     <path d="M 444.714062 132.354687 
L 464.714062 132.354687 
L 464.714062 125.354687 
L 444.714062 125.354687 
z
" style="fill:none;stroke:#b22222;stroke-linejoin:miter;"/>
    </g>
    <g id="text_17">
     <!-- $3\sigma$ for forward data -->
     <defs>
      <path d="M 40.578125 39.3125 
Q 47.65625 37.796875 51.625 33 
Q 55.609375 28.21875 55.609375 21.1875 
Q 55.609375 10.40625 48.1875 4.484375 
Q 40.765625 -1.421875 27.09375 -1.421875 
Q 22.515625 -1.421875 17.65625 -0.515625 
Q 12.796875 0.390625 7.625 2.203125 
L 7.625 11.71875 
Q 11.71875 9.328125 16.59375 8.109375 
Q 21.484375 6.890625 26.8125 6.890625 
Q 36.078125 6.890625 40.9375 10.546875 
Q 45.796875 14.203125 45.796875 21.1875 
Q 45.796875 27.640625 41.28125 31.265625 
Q 36.765625 34.90625 28.71875 34.90625 
L 20.21875 34.90625 
L 20.21875 43.015625 
L 29.109375 43.015625 
Q 36.375 43.015625 40.234375 45.921875 
Q 44.09375 48.828125 44.09375 54.296875 
Q 44.09375 59.90625 40.109375 62.90625 
Q 36.140625 65.921875 28.71875 65.921875 
Q 24.65625 65.921875 20.015625 65.03125 
Q 15.375 64.15625 9.8125 62.3125 
L 9.8125 71.09375 
Q 15.4375 72.65625 20.34375 73.4375 
Q 25.25 74.21875 29.59375 74.21875 
Q 40.828125 74.21875 47.359375 69.109375 
Q 53.90625 64.015625 53.90625 55.328125 
Q 53.90625 49.265625 50.4375 45.09375 
Q 46.96875 40.921875 40.578125 39.3125 
z
" id="DejaVuSans-51"/>
     </defs>
     <g transform="translate(472.714062 132.354687)scale(0.1 -0.1)">
      <use transform="translate(0 0.015625)" xlink:href="#DejaVuSans-51"/>
      <use transform="translate(63.623047 0.015625)" xlink:href="#DejaVuSans-Oblique-963"/>
      <use transform="translate(127.001953 0.015625)" xlink:href="#DejaVuSans-32"/>
      <use transform="translate(158.789062 0.015625)" xlink:href="#DejaVuSans-102"/>
      <use transform="translate(193.994141 0.015625)" xlink:href="#DejaVuSans-111"/>
      <use transform="translate(255.175781 0.015625)" xlink:href="#DejaVuSans-114"/>
      <use transform="translate(296.289062 0.015625)" xlink:href="#DejaVuSans-32"/>
      <use transform="translate(328.076172 0.015625)" xlink:href="#DejaVuSans-102"/>
      <use transform="translate(363.28125 0.015625)" xlink:href="#DejaVuSans-111"/>
      <use transform="translate(424.462891 0.015625)" xlink:href="#DejaVuSans-114"/>
      <use transform="translate(465.576172 0.015625)" xlink:href="#DejaVuSans-119"/>
      <use transform="translate(547.363281 0.015625)" xlink:href="#DejaVuSans-97"/>
      <use transform="translate(608.642578 0.015625)" xlink:href="#DejaVuSans-114"/>
      <use transform="translate(649.755859 0.015625)" xlink:href="#DejaVuSans-100"/>
      <use transform="translate(713.232422 0.015625)" xlink:href="#DejaVuSans-32"/>
      <use transform="translate(745.019531 0.015625)" xlink:href="#DejaVuSans-100"/>
      <use transform="translate(808.496094 0.015625)" xlink:href="#DejaVuSans-97"/>
      <use transform="translate(869.775391 0.015625)" xlink:href="#DejaVuSans-116"/>
      <use transform="translate(908.984375 0.015625)" xlink:href="#DejaVuSans-97"/>
     </g>
    </g>
    <g id="patch_17">
     <path d="M 444.714062 147.032812 
L 464.714062 147.032812 
L 464.714062 140.032812 
L 444.714062 140.032812 
z
" style="fill:none;stroke:#0000ff;stroke-linejoin:miter;"/>
    </g>
    <g id="text_18">
     <!-- $1\sigma$ for Encoded data -->
     <g transform="translate(472.714062 147.032812)scale(0.1 -0.1)">
      <use transform="translate(0 0.015625)" xlink:href="#DejaVuSans-49"/>
      <use transform="translate(63.623047 0.015625)" xlink:href="#DejaVuSans-Oblique-963"/>
      <use transform="translate(127.001953 0.015625)" xlink:href="#DejaVuSans-32"/>
      <use transform="translate(158.789062 0.015625)" xlink:href="#DejaVuSans-102"/>
      <use transform="translate(193.994141 0.015625)" xlink:href="#DejaVuSans-111"/>
      <use transform="translate(255.175781 0.015625)" xlink:href="#DejaVuSans-114"/>
      <use transform="translate(296.289062 0.015625)" xlink:href="#DejaVuSans-32"/>
      <use transform="translate(328.076172 0.015625)" xlink:href="#DejaVuSans-69"/>
      <use transform="translate(391.259766 0.015625)" xlink:href="#DejaVuSans-110"/>
      <use transform="translate(454.638672 0.015625)" xlink:href="#DejaVuSans-99"/>
      <use transform="translate(509.619141 0.015625)" xlink:href="#DejaVuSans-111"/>
      <use transform="translate(570.800781 0.015625)" xlink:href="#DejaVuSans-100"/>
      <use transform="translate(634.277344 0.015625)" xlink:href="#DejaVuSans-101"/>
      <use transform="translate(695.800781 0.015625)" xlink:href="#DejaVuSans-100"/>
      <use transform="translate(759.277344 0.015625)" xlink:href="#DejaVuSans-32"/>
      <use transform="translate(791.064453 0.015625)" xlink:href="#DejaVuSans-100"/>
      <use transform="translate(854.541016 0.015625)" xlink:href="#DejaVuSans-97"/>
      <use transform="translate(915.820312 0.015625)" xlink:href="#DejaVuSans-116"/>
      <use transform="translate(955.029297 0.015625)" xlink:href="#DejaVuSans-97"/>
     </g>
    </g>
    <g id="patch_18">
     <path d="M 444.714062 161.710937 
L 464.714062 161.710937 
L 464.714062 154.710937 
L 444.714062 154.710937 
z
" style="fill:none;stroke:#0000ff;stroke-linejoin:miter;"/>
    </g>
    <g id="text_19">
     <!-- $2\sigma$ for Encoded data -->
     <g transform="translate(472.714062 161.710937)scale(0.1 -0.1)">
      <use transform="translate(0 0.015625)" xlink:href="#DejaVuSans-50"/>
      <use transform="translate(63.623047 0.015625)" xlink:href="#DejaVuSans-Oblique-963"/>
      <use transform="translate(127.001953 0.015625)" xlink:href="#DejaVuSans-32"/>
      <use transform="translate(158.789062 0.015625)" xlink:href="#DejaVuSans-102"/>
      <use transform="translate(193.994141 0.015625)" xlink:href="#DejaVuSans-111"/>
      <use transform="translate(255.175781 0.015625)" xlink:href="#DejaVuSans-114"/>
      <use transform="translate(296.289062 0.015625)" xlink:href="#DejaVuSans-32"/>
      <use transform="translate(328.076172 0.015625)" xlink:href="#DejaVuSans-69"/>
      <use transform="translate(391.259766 0.015625)" xlink:href="#DejaVuSans-110"/>
      <use transform="translate(454.638672 0.015625)" xlink:href="#DejaVuSans-99"/>
      <use transform="translate(509.619141 0.015625)" xlink:href="#DejaVuSans-111"/>
      <use transform="translate(570.800781 0.015625)" xlink:href="#DejaVuSans-100"/>
      <use transform="translate(634.277344 0.015625)" xlink:href="#DejaVuSans-101"/>
      <use transform="translate(695.800781 0.015625)" xlink:href="#DejaVuSans-100"/>
      <use transform="translate(759.277344 0.015625)" xlink:href="#DejaVuSans-32"/>
      <use transform="translate(791.064453 0.015625)" xlink:href="#DejaVuSans-100"/>
      <use transform="translate(854.541016 0.015625)" xlink:href="#DejaVuSans-97"/>
      <use transform="translate(915.820312 0.015625)" xlink:href="#DejaVuSans-116"/>
      <use transform="translate(955.029297 0.015625)" xlink:href="#DejaVuSans-97"/>
     </g>
    </g>
    <g id="patch_19">
     <path d="M 444.714062 176.389062 
L 464.714062 176.389062 
L 464.714062 169.389062 
L 444.714062 169.389062 
z
" style="fill:none;stroke:#0000ff;stroke-linejoin:miter;"/>
    </g>
    <g id="text_20">
     <!-- $3\sigma$ for Encoded data -->
     <g transform="translate(472.714062 176.389062)scale(0.1 -0.1)">
      <use transform="translate(0 0.015625)" xlink:href="#DejaVuSans-51"/>
      <use transform="translate(63.623047 0.015625)" xlink:href="#DejaVuSans-Oblique-963"/>
      <use transform="translate(127.001953 0.015625)" xlink:href="#DejaVuSans-32"/>
      <use transform="translate(158.789062 0.015625)" xlink:href="#DejaVuSans-102"/>
      <use transform="translate(193.994141 0.015625)" xlink:href="#DejaVuSans-111"/>
      <use transform="translate(255.175781 0.015625)" xlink:href="#DejaVuSans-114"/>
      <use transform="translate(296.289062 0.015625)" xlink:href="#DejaVuSans-32"/>
      <use transform="translate(328.076172 0.015625)" xlink:href="#DejaVuSans-69"/>
      <use transform="translate(391.259766 0.015625)" xlink:href="#DejaVuSans-110"/>
      <use transform="translate(454.638672 0.015625)" xlink:href="#DejaVuSans-99"/>
      <use transform="translate(509.619141 0.015625)" xlink:href="#DejaVuSans-111"/>
      <use transform="translate(570.800781 0.015625)" xlink:href="#DejaVuSans-100"/>
      <use transform="translate(634.277344 0.015625)" xlink:href="#DejaVuSans-101"/>
      <use transform="translate(695.800781 0.015625)" xlink:href="#DejaVuSans-100"/>
      <use transform="translate(759.277344 0.015625)" xlink:href="#DejaVuSans-32"/>
      <use transform="translate(791.064453 0.015625)" xlink:href="#DejaVuSans-100"/>
      <use transform="translate(854.541016 0.015625)" xlink:href="#DejaVuSans-97"/>
      <use transform="translate(915.820312 0.015625)" xlink:href="#DejaVuSans-116"/>
      <use transform="translate(955.029297 0.015625)" xlink:href="#DejaVuSans-97"/>
     </g>
    </g>
    <g id="PathCollection_4">
     <g>
      <use style="fill:#1f77b4;stroke:#1f77b4;" x="454.714062" xlink:href="#m2b3d5c4583" y="188.442187"/>
     </g>
    </g>
    <g id="text_21">
     <!-- Measurement data for good right -->
     <g transform="translate(472.714062 191.067187)scale(0.1 -0.1)">
      <use xlink:href="#DejaVuSans-77"/>
      <use x="86.279297" xlink:href="#DejaVuSans-101"/>
      <use x="147.802734" xlink:href="#DejaVuSans-97"/>
      <use x="209.082031" xlink:href="#DejaVuSans-115"/>
      <use x="261.181641" xlink:href="#DejaVuSans-117"/>
      <use x="324.560547" xlink:href="#DejaVuSans-114"/>
      <use x="365.642578" xlink:href="#DejaVuSans-101"/>
      <use x="427.166016" xlink:href="#DejaVuSans-109"/>
      <use x="524.578125" xlink:href="#DejaVuSans-101"/>
      <use x="586.101562" xlink:href="#DejaVuSans-110"/>
      <use x="649.480469" xlink:href="#DejaVuSans-116"/>
      <use x="688.689453" xlink:href="#DejaVuSans-32"/>
      <use x="720.476562" xlink:href="#DejaVuSans-100"/>
      <use x="783.953125" xlink:href="#DejaVuSans-97"/>
      <use x="845.232422" xlink:href="#DejaVuSans-116"/>
      <use x="884.441406" xlink:href="#DejaVuSans-97"/>
      <use x="945.720703" xlink:href="#DejaVuSans-32"/>
      <use x="977.507812" xlink:href="#DejaVuSans-102"/>
      <use x="1012.712891" xlink:href="#DejaVuSans-111"/>
      <use x="1073.894531" xlink:href="#DejaVuSans-114"/>
      <use x="1115.007812" xlink:href="#DejaVuSans-32"/>
      <use x="1146.794922" xlink:href="#DejaVuSans-103"/>
      <use x="1210.271484" xlink:href="#DejaVuSans-111"/>
      <use x="1271.453125" xlink:href="#DejaVuSans-111"/>
      <use x="1332.634766" xlink:href="#DejaVuSans-100"/>
      <use x="1396.111328" xlink:href="#DejaVuSans-32"/>
      <use x="1427.898438" xlink:href="#DejaVuSans-114"/>
      <use x="1469.011719" xlink:href="#DejaVuSans-105"/>
      <use x="1496.794922" xlink:href="#DejaVuSans-103"/>
      <use x="1560.271484" xlink:href="#DejaVuSans-104"/>
      <use x="1623.650391" xlink:href="#DejaVuSans-116"/>
     </g>
    </g>
    <g id="PathCollection_5">
     <g>
      <use style="fill:#ff7f0e;stroke:#ff7f0e;" x="454.714062" xlink:href="#m8b2c3f8950" y="203.120312"/>
     </g>
    </g>
    <g id="text_22">
     <!-- Encoded data for good right -->
     <g transform="translate(472.714062 205.745312)scale(0.1 -0.1)">
      <use xlink:href="#DejaVuSans-69"/>
      <use x="63.183594" xlink:href="#DejaVuSans-110"/>
      <use x="126.5625" xlink:href="#DejaVuSans-99"/>
      <use x="181.542969" xlink:href="#DejaVuSans-111"/>
      <use x="242.724609" xlink:href="#DejaVuSans-100"/>
      <use x="306.201172" xlink:href="#DejaVuSans-101"/>
      <use x="367.724609" xlink:href="#DejaVuSans-100"/>
      <use x="431.201172" xlink:href="#DejaVuSans-32"/>
      <use x="462.988281" xlink:href="#DejaVuSans-100"/>
      <use x="526.464844" xlink:href="#DejaVuSans-97"/>
      <use x="587.744141" xlink:href="#DejaVuSans-116"/>
      <use x="626.953125" xlink:href="#DejaVuSans-97"/>
      <use x="688.232422" xlink:href="#DejaVuSans-32"/>
      <use x="720.019531" xlink:href="#DejaVuSans-102"/>
      <use x="755.224609" xlink:href="#DejaVuSans-111"/>
      <use x="816.40625" xlink:href="#DejaVuSans-114"/>
      <use x="857.519531" xlink:href="#DejaVuSans-32"/>
      <use x="889.306641" xlink:href="#DejaVuSans-103"/>
      <use x="952.783203" xlink:href="#DejaVuSans-111"/>
      <use x="1013.964844" xlink:href="#DejaVuSans-111"/>
      <use x="1075.146484" xlink:href="#DejaVuSans-100"/>
      <use x="1138.623047" xlink:href="#DejaVuSans-32"/>
      <use x="1170.410156" xlink:href="#DejaVuSans-114"/>
      <use x="1211.523438" xlink:href="#DejaVuSans-105"/>
      <use x="1239.306641" xlink:href="#DejaVuSans-103"/>
      <use x="1302.783203" xlink:href="#DejaVuSans-104"/>
      <use x="1366.162109" xlink:href="#DejaVuSans-116"/>
     </g>
    </g>
   </g>
  </g>
 </g>
 <defs>
  <clipPath id="pf3f80b4ae3">
   <rect height="543.6" width="558" x="90" y="86.4"/>
  </clipPath>
 </defs>
</svg>
