<?xml version="1.0" encoding="utf-8" standalone="no"?>
<!DOCTYPE svg PUBLIC "-//W3C//DTD SVG 1.1//EN"
  "http://www.w3.org/Graphics/SVG/1.1/DTD/svg11.dtd">
<!-- Created with matplotlib (https://matplotlib.org/) -->
<svg height="720pt" version="1.1" viewBox="0 0 720 720" width="720pt" xmlns="http://www.w3.org/2000/svg" xmlns:xlink="http://www.w3.org/1999/xlink">
 <defs>
  <style type="text/css">
*{stroke-linecap:butt;stroke-linejoin:round;}
  </style>
 </defs>
 <g id="figure_1">
  <g id="patch_1">
   <path d="M 0 720 
L 720 720 
L 720 0 
L 0 0 
z
" style="fill:#ffffff;"/>
  </g>
  <g id="axes_1">
   <g id="patch_2">
    <path d="M 90 630 
L 648 630 
L 648 86.4 
L 90 86.4 
z
" style="fill:#ffffff;"/>
   </g>
   <g id="PathCollection_1">
    <defs>
     <path d="M 0 1.581139 
C 0.419323 1.581139 0.821528 1.41454 1.118034 1.118034 
C 1.41454 0.821528 1.581139 0.419323 1.581139 0 
C 1.581139 -0.419323 1.41454 -0.821528 1.118034 -1.118034 
C 0.821528 -1.41454 0.419323 -1.581139 0 -1.581139 
C -0.419323 -1.581139 -0.821528 -1.41454 -1.118034 -1.118034 
C -1.41454 -0.821528 -1.581139 -0.419323 -1.581139 0 
C -1.581139 0.419323 -1.41454 0.821528 -1.118034 1.118034 
C -0.821528 1.41454 -0.419323 1.581139 0 1.581139 
z
" id="m803922c2cd" style="stroke:#1f77b4;"/>
    </defs>
    <g clip-path="url(#p20fc3f53f5)">
     <use style="fill:#1f77b4;stroke:#1f77b4;" x="401.616" xlink:href="#m803922c2cd" y="390.816"/>
     <use style="fill:#1f77b4;stroke:#1f77b4;" x="303.768" xlink:href="#m803922c2cd" y="369.072"/>
     <use style="fill:#1f77b4;stroke:#1f77b4;" x="341.82" xlink:href="#m803922c2cd" y="369.072"/>
     <use style="fill:#1f77b4;stroke:#1f77b4;" x="336.384" xlink:href="#m803922c2cd" y="331.02"/>
     <use style="fill:#1f77b4;stroke:#1f77b4;" x="390.744" xlink:href="#m803922c2cd" y="396.252"/>
     <use style="fill:#1f77b4;stroke:#1f77b4;" x="358.128" xlink:href="#m803922c2cd" y="445.176"/>
     <use style="fill:#1f77b4;stroke:#1f77b4;" x="385.308" xlink:href="#m803922c2cd" y="385.38"/>
     <use style="fill:#1f77b4;stroke:#1f77b4;" x="379.872" xlink:href="#m803922c2cd" y="428.868"/>
     <use style="fill:#1f77b4;stroke:#1f77b4;" x="352.692" xlink:href="#m803922c2cd" y="396.252"/>
     <use style="fill:#1f77b4;stroke:#1f77b4;" x="369" xlink:href="#m803922c2cd" y="352.764"/>
     <use style="fill:#1f77b4;stroke:#1f77b4;" x="423.36" xlink:href="#m803922c2cd" y="352.764"/>
     <use style="fill:#1f77b4;stroke:#1f77b4;" x="428.796" xlink:href="#m803922c2cd" y="314.712"/>
     <use style="fill:#1f77b4;stroke:#1f77b4;" x="407.052" xlink:href="#m803922c2cd" y="390.816"/>
     <use style="fill:#1f77b4;stroke:#1f77b4;" x="423.36" xlink:href="#m803922c2cd" y="379.944"/>
     <use style="fill:#1f77b4;stroke:#1f77b4;" x="336.384" xlink:href="#m803922c2cd" y="374.508"/>
     <use style="fill:#1f77b4;stroke:#1f77b4;" x="390.744" xlink:href="#m803922c2cd" y="379.944"/>
     <use style="fill:#1f77b4;stroke:#1f77b4;" x="445.104" xlink:href="#m803922c2cd" y="320.148"/>
     <use style="fill:#1f77b4;stroke:#1f77b4;" x="450.54" xlink:href="#m803922c2cd" y="325.584"/>
     <use style="fill:#1f77b4;stroke:#1f77b4;" x="341.82" xlink:href="#m803922c2cd" y="396.252"/>
     <use style="fill:#1f77b4;stroke:#1f77b4;" x="352.692" xlink:href="#m803922c2cd" y="314.712"/>
    </g>
   </g>
   <g id="PathCollection_2">
    <defs>
     <path d="M 0 1.581139 
C 0.419323 1.581139 0.821528 1.41454 1.118034 1.118034 
C 1.41454 0.821528 1.581139 0.419323 1.581139 0 
C 1.581139 -0.419323 1.41454 -0.821528 1.118034 -1.118034 
C 0.821528 -1.41454 0.419323 -1.581139 0 -1.581139 
C -0.419323 -1.581139 -0.821528 -1.41454 -1.118034 -1.118034 
C -1.41454 -0.821528 -1.581139 -0.419323 -1.581139 0 
C -1.581139 0.419323 -1.41454 0.821528 -1.118034 1.118034 
C -0.821528 1.41454 -0.419323 1.581139 0 1.581139 
z
" id="m73923e1680" style="stroke:#ff7f0e;"/>
    </defs>
    <g clip-path="url(#p20fc3f53f5)">
     <use style="fill:#ff7f0e;stroke:#ff7f0e;" x="352.692" xlink:href="#m73923e1680" y="271.224"/>
     <use style="fill:#ff7f0e;stroke:#ff7f0e;" x="1260.504" xlink:href="#m73923e1680" y="1967.256"/>
     <use style="fill:#ff7f0e;stroke:#ff7f0e;" x="1265.94" xlink:href="#m73923e1680" y="1961.82"/>
     <use style="fill:#ff7f0e;stroke:#ff7f0e;" x="363.564" xlink:href="#m73923e1680" y="298.404"/>
     <use style="fill:#ff7f0e;stroke:#ff7f0e;" x="1276.812" xlink:href="#m73923e1680" y="1950.948"/>
     <use style="fill:#ff7f0e;stroke:#ff7f0e;" x="352.692" xlink:href="#m73923e1680" y="309.276"/>
     <use style="fill:#ff7f0e;stroke:#ff7f0e;" x="1282.248" xlink:href="#m73923e1680" y="1945.512"/>
     <use style="fill:#ff7f0e;stroke:#ff7f0e;" x="363.564" xlink:href="#m73923e1680" y="276.66"/>
     <use style="fill:#ff7f0e;stroke:#ff7f0e;" x="363.564" xlink:href="#m73923e1680" y="325.584"/>
     <use style="fill:#ff7f0e;stroke:#ff7f0e;" x="1265.94" xlink:href="#m73923e1680" y="1961.82"/>
     <use style="fill:#ff7f0e;stroke:#ff7f0e;" x="1265.94" xlink:href="#m73923e1680" y="1956.384"/>
     <use style="fill:#ff7f0e;stroke:#ff7f0e;" x="358.128" xlink:href="#m73923e1680" y="309.276"/>
     <use style="fill:#ff7f0e;stroke:#ff7f0e;" x="1309.428" xlink:href="#m73923e1680" y="1918.332"/>
     <use style="fill:#ff7f0e;stroke:#ff7f0e;" x="369" xlink:href="#m73923e1680" y="325.584"/>
     <use style="fill:#ff7f0e;stroke:#ff7f0e;" x="1287.684" xlink:href="#m73923e1680" y="1940.076"/>
     <use style="fill:#ff7f0e;stroke:#ff7f0e;" x="1265.94" xlink:href="#m73923e1680" y="1956.384"/>
     <use style="fill:#ff7f0e;stroke:#ff7f0e;" x="1249.632" xlink:href="#m73923e1680" y="1978.128"/>
     <use style="fill:#ff7f0e;stroke:#ff7f0e;" x="369" xlink:href="#m73923e1680" y="282.096"/>
     <use style="fill:#ff7f0e;stroke:#ff7f0e;" x="363.564" xlink:href="#m73923e1680" y="331.02"/>
     <use style="fill:#ff7f0e;stroke:#ff7f0e;" x="1271.376" xlink:href="#m73923e1680" y="1956.384"/>
     <use style="fill:#ff7f0e;stroke:#ff7f0e;" x="347.256" xlink:href="#m73923e1680" y="211.428"/>
     <use style="fill:#ff7f0e;stroke:#ff7f0e;" x="369" xlink:href="#m73923e1680" y="336.456"/>
     <use style="fill:#ff7f0e;stroke:#ff7f0e;" x="1265.94" xlink:href="#m73923e1680" y="1961.82"/>
     <use style="fill:#ff7f0e;stroke:#ff7f0e;" x="358.128" xlink:href="#m73923e1680" y="282.096"/>
     <use style="fill:#ff7f0e;stroke:#ff7f0e;" x="1287.684" xlink:href="#m73923e1680" y="1940.076"/>
     <use style="fill:#ff7f0e;stroke:#ff7f0e;" x="363.564" xlink:href="#m73923e1680" y="325.584"/>
     <use style="fill:#ff7f0e;stroke:#ff7f0e;" x="358.128" xlink:href="#m73923e1680" y="298.404"/>
     <use style="fill:#ff7f0e;stroke:#ff7f0e;" x="1276.812" xlink:href="#m73923e1680" y="1950.948"/>
     <use style="fill:#ff7f0e;stroke:#ff7f0e;" x="1282.248" xlink:href="#m73923e1680" y="1945.512"/>
     <use style="fill:#ff7f0e;stroke:#ff7f0e;" x="358.128" xlink:href="#m73923e1680" y="320.148"/>
     <use style="fill:#ff7f0e;stroke:#ff7f0e;" x="1265.94" xlink:href="#m73923e1680" y="1961.82"/>
     <use style="fill:#ff7f0e;stroke:#ff7f0e;" x="358.128" xlink:href="#m73923e1680" y="325.584"/>
     <use style="fill:#ff7f0e;stroke:#ff7f0e;" x="1282.248" xlink:href="#m73923e1680" y="1945.512"/>
     <use style="fill:#ff7f0e;stroke:#ff7f0e;" x="1260.504" xlink:href="#m73923e1680" y="1967.256"/>
     <use style="fill:#ff7f0e;stroke:#ff7f0e;" x="369" xlink:href="#m73923e1680" y="374.508"/>
     <use style="fill:#ff7f0e;stroke:#ff7f0e;" x="369" xlink:href="#m73923e1680" y="352.764"/>
     <use style="fill:#ff7f0e;stroke:#ff7f0e;" x="363.564" xlink:href="#m73923e1680" y="325.584"/>
     <use style="fill:#ff7f0e;stroke:#ff7f0e;" x="1271.376" xlink:href="#m73923e1680" y="1950.948"/>
     <use style="fill:#ff7f0e;stroke:#ff7f0e;" x="363.564" xlink:href="#m73923e1680" y="341.892"/>
     <use style="fill:#ff7f0e;stroke:#ff7f0e;" x="1271.376" xlink:href="#m73923e1680" y="1956.384"/>
     <use style="fill:#ff7f0e;stroke:#ff7f0e;" x="358.128" xlink:href="#m73923e1680" y="271.224"/>
     <use style="fill:#ff7f0e;stroke:#ff7f0e;" x="1265.94" xlink:href="#m73923e1680" y="1956.384"/>
    </g>
   </g>
   <g id="PathCollection_3">
    <defs>
     <path d="M 0 0.866025 
C 0.229673 0.866025 0.449969 0.774776 0.612372 0.612372 
C 0.774776 0.449969 0.866025 0.229673 0.866025 0 
C 0.866025 -0.229673 0.774776 -0.449969 0.612372 -0.612372 
C 0.449969 -0.774776 0.229673 -0.866025 0 -0.866025 
C -0.229673 -0.866025 -0.449969 -0.774776 -0.612372 -0.612372 
C -0.774776 -0.449969 -0.866025 -0.229673 -0.866025 0 
C -0.866025 0.229673 -0.774776 0.449969 -0.612372 0.612372 
C -0.449969 0.774776 -0.229673 0.866025 0 0.866025 
z
" id="md11eda3eb2" style="stroke:#ff0000;"/>
    </defs>
    <g clip-path="url(#p20fc3f53f5)">
     <use style="fill:#ff0000;stroke:#ff0000;" x="369" xlink:href="#md11eda3eb2" y="2858.76"/>
    </g>
   </g>
   <g id="patch_3">
    <path clip-path="url(#p20fc3f53f5)" d="M 362.783786 344.094451 
C 353.13675 350.684069 345.79861 359.808304 342.385505 369.45765 
C 338.9724 379.106995 339.762995 388.493624 344.583171 395.550241 
C 349.403347 402.606858 357.859558 406.75732 368.089422 407.087538 
C 378.319285 407.417756 389.487578 403.900768 399.134614 397.311149 
C 408.78165 390.721531 416.11979 381.597296 419.532895 371.94795 
C 422.946 362.298605 422.155405 352.911976 417.335229 345.855359 
C 412.515053 338.798742 404.058842 334.64828 393.828978 334.318062 
C 383.599115 333.987844 372.430822 337.504832 362.783786 344.094451 
z
" style="fill:none;stroke:#b22222;stroke-linejoin:miter;"/>
   </g>
   <g id="patch_4">
    <path clip-path="url(#p20fc3f53f5)" d="M 344.608372 317.486102 
C 325.314301 330.665338 310.63802 348.913809 303.811809 368.2125 
C 296.985599 387.51119 298.56679 406.284448 308.207142 420.397682 
C 317.847494 434.510915 334.759916 442.811841 355.219643 443.472276 
C 375.67937 444.132712 398.015957 437.098735 417.310028 423.919498 
C 436.604099 410.740262 451.28038 392.491791 458.106591 373.1931 
C 464.932801 353.89441 463.35161 335.121152 453.711258 321.007918 
C 444.070906 306.894685 427.158484 298.593759 406.698757 297.933324 
C 386.23903 297.272888 363.902443 304.306865 344.608372 317.486102 
z
" style="fill:none;stroke:#b22222;stroke-linejoin:miter;"/>
   </g>
   <g id="patch_5">
    <path clip-path="url(#p20fc3f53f5)" d="M 326.432958 290.877752 
C 297.491851 310.646607 275.47743 338.019313 265.238114 366.967349 
C 254.998799 395.915385 257.370584 424.075273 271.831113 445.245123 
C 286.291641 466.414973 311.660274 478.866361 342.349865 479.857014 
C 373.039456 480.847668 406.544335 470.296703 435.485442 450.527848 
C 464.426549 430.758993 486.44097 403.386287 496.680286 374.438251 
C 506.919601 345.490215 504.547816 317.330327 490.087287 296.160477 
C 475.626759 274.990627 450.258126 262.539239 419.568535 261.548586 
C 388.878944 260.557932 355.374065 271.108897 326.432958 290.877752 
z
" style="fill:none;stroke:#b22222;stroke-linejoin:miter;"/>
   </g>
   <g id="patch_6">
    <path clip-path="url(#p20fc3f53f5)" d="M 830.764168 1124.029217 
C 708.466133 903.219378 589.732612 692.214543 500.713285 537.486078 
C 411.693958 382.757613 359.656859 296.938413 356.062554 298.929159 
C 352.46825 300.919905 397.6102 390.558063 481.546413 548.101868 
C 565.482626 705.645673 681.360082 918.232372 803.658118 1139.042211 
C 925.956153 1359.852051 1044.689674 1570.856886 1133.709001 1725.58535 
C 1222.728328 1880.313815 1274.765427 1966.133016 1278.359731 1964.14227 
C 1281.954036 1962.151523 1236.812086 1872.513366 1152.875873 1714.969561 
C 1068.93966 1557.425756 953.062203 1344.839057 830.764168 1124.029217 
z
" style="fill:none;stroke:#0000ff;stroke-linejoin:miter;"/>
   </g>
   <g id="patch_7">
    <path clip-path="url(#p20fc3f53f5)" d="M 844.317193 1116.522721 
C 599.721123 674.903042 362.254081 252.893371 184.215427 -56.563558 
C 6.176773 -366.020487 -97.897425 -537.658889 -105.086034 -533.677396 
C -112.274643 -529.695904 -21.990744 -350.419589 145.881683 -35.331979 
C 313.754109 279.755631 545.509022 704.929029 790.105092 1146.548708 
C 1034.701163 1588.168387 1272.168205 2010.178057 1450.206859 2319.634987 
C 1628.245513 2629.091916 1732.319711 2800.730317 1739.50832 2796.748825 
C 1746.696928 2792.767332 1656.413029 2613.491017 1488.540603 2298.403407 
C 1320.668177 1983.315797 1088.913264 1558.1424 844.317193 1116.522721 
z
" style="fill:none;stroke:#0000ff;stroke-linejoin:miter;"/>
   </g>
   <g id="patch_8">
    <path clip-path="url(#p20fc3f53f5)" d="M 857.870219 1109.016224 
C 490.976113 446.586705 134.77555 -186.4278 -132.282431 -650.613194 
C -399.340412 -1114.798588 -555.45171 -1372.25619 -566.234623 -1366.283952 
C -577.017535 -1360.311713 -441.591687 -1091.39724 -189.783047 -618.765825 
C 62.025592 -146.13441 409.657961 491.625686 776.552067 1154.055205 
C 1143.446173 1816.484723 1499.646736 2449.499228 1766.704717 2913.684623 
C 2033.762698 3377.870017 2189.873995 3635.327619 2200.656908 3629.35538 
C 2211.439821 3623.383142 2076.013972 3354.468669 1824.205333 2881.837254 
C 1572.396694 2409.205839 1224.764324 1771.445742 857.870219 1109.016224 
z
" style="fill:none;stroke:#0000ff;stroke-linejoin:miter;"/>
   </g>
   <g id="matplotlib.axis_1">
    <g id="xtick_1">
     <g id="line2d_1">
      <path clip-path="url(#p20fc3f53f5)" d="M 151.56 630 
L 151.56 86.4 
" style="fill:none;stroke:#b0b0b0;stroke-linecap:square;stroke-width:0.8;"/>
     </g>
     <g id="line2d_2">
      <defs>
       <path d="M 0 0 
L 0 3.5 
" id="m3f55cf49f6" style="stroke:#000000;stroke-width:0.8;"/>
      </defs>
      <g>
       <use style="stroke:#000000;stroke-width:0.8;" x="151.56" xlink:href="#m3f55cf49f6" y="630"/>
      </g>
     </g>
     <g id="text_1">
      <!-- −40 -->
      <defs>
       <path d="M 10.59375 35.5 
L 73.1875 35.5 
L 73.1875 27.203125 
L 10.59375 27.203125 
z
" id="DejaVuSans-8722"/>
       <path d="M 37.796875 64.3125 
L 12.890625 25.390625 
L 37.796875 25.390625 
z
M 35.203125 72.90625 
L 47.609375 72.90625 
L 47.609375 25.390625 
L 58.015625 25.390625 
L 58.015625 17.1875 
L 47.609375 17.1875 
L 47.609375 0 
L 37.796875 0 
L 37.796875 17.1875 
L 4.890625 17.1875 
L 4.890625 26.703125 
z
" id="DejaVuSans-52"/>
       <path d="M 31.78125 66.40625 
Q 24.171875 66.40625 20.328125 58.90625 
Q 16.5 51.421875 16.5 36.375 
Q 16.5 21.390625 20.328125 13.890625 
Q 24.171875 6.390625 31.78125 6.390625 
Q 39.453125 6.390625 43.28125 13.890625 
Q 47.125 21.390625 47.125 36.375 
Q 47.125 51.421875 43.28125 58.90625 
Q 39.453125 66.40625 31.78125 66.40625 
z
M 31.78125 74.21875 
Q 44.046875 74.21875 50.515625 64.515625 
Q 56.984375 54.828125 56.984375 36.375 
Q 56.984375 17.96875 50.515625 8.265625 
Q 44.046875 -1.421875 31.78125 -1.421875 
Q 19.53125 -1.421875 13.0625 8.265625 
Q 6.59375 17.96875 6.59375 36.375 
Q 6.59375 54.828125 13.0625 64.515625 
Q 19.53125 74.21875 31.78125 74.21875 
z
" id="DejaVuSans-48"/>
      </defs>
      <g transform="translate(141.007656 644.598438)scale(0.1 -0.1)">
       <use xlink:href="#DejaVuSans-8722"/>
       <use x="83.789062" xlink:href="#DejaVuSans-52"/>
       <use x="147.412109" xlink:href="#DejaVuSans-48"/>
      </g>
     </g>
    </g>
    <g id="xtick_2">
     <g id="line2d_3">
      <path clip-path="url(#p20fc3f53f5)" d="M 260.28 630 
L 260.28 86.4 
" style="fill:none;stroke:#b0b0b0;stroke-linecap:square;stroke-width:0.8;"/>
     </g>
     <g id="line2d_4">
      <g>
       <use style="stroke:#000000;stroke-width:0.8;" x="260.28" xlink:href="#m3f55cf49f6" y="630"/>
      </g>
     </g>
     <g id="text_2">
      <!-- −20 -->
      <defs>
       <path d="M 19.1875 8.296875 
L 53.609375 8.296875 
L 53.609375 0 
L 7.328125 0 
L 7.328125 8.296875 
Q 12.9375 14.109375 22.625 23.890625 
Q 32.328125 33.6875 34.8125 36.53125 
Q 39.546875 41.84375 41.421875 45.53125 
Q 43.3125 49.21875 43.3125 52.78125 
Q 43.3125 58.59375 39.234375 62.25 
Q 35.15625 65.921875 28.609375 65.921875 
Q 23.96875 65.921875 18.8125 64.3125 
Q 13.671875 62.703125 7.8125 59.421875 
L 7.8125 69.390625 
Q 13.765625 71.78125 18.9375 73 
Q 24.125 74.21875 28.421875 74.21875 
Q 39.75 74.21875 46.484375 68.546875 
Q 53.21875 62.890625 53.21875 53.421875 
Q 53.21875 48.921875 51.53125 44.890625 
Q 49.859375 40.875 45.40625 35.40625 
Q 44.1875 33.984375 37.640625 27.21875 
Q 31.109375 20.453125 19.1875 8.296875 
z
" id="DejaVuSans-50"/>
      </defs>
      <g transform="translate(249.727656 644.598438)scale(0.1 -0.1)">
       <use xlink:href="#DejaVuSans-8722"/>
       <use x="83.789062" xlink:href="#DejaVuSans-50"/>
       <use x="147.412109" xlink:href="#DejaVuSans-48"/>
      </g>
     </g>
    </g>
    <g id="xtick_3">
     <g id="line2d_5">
      <path clip-path="url(#p20fc3f53f5)" d="M 369 630 
L 369 86.4 
" style="fill:none;stroke:#b0b0b0;stroke-linecap:square;stroke-width:0.8;"/>
     </g>
     <g id="line2d_6">
      <g>
       <use style="stroke:#000000;stroke-width:0.8;" x="369" xlink:href="#m3f55cf49f6" y="630"/>
      </g>
     </g>
     <g id="text_3">
      <!-- 0 -->
      <g transform="translate(365.81875 644.598438)scale(0.1 -0.1)">
       <use xlink:href="#DejaVuSans-48"/>
      </g>
     </g>
    </g>
    <g id="xtick_4">
     <g id="line2d_7">
      <path clip-path="url(#p20fc3f53f5)" d="M 477.72 630 
L 477.72 86.4 
" style="fill:none;stroke:#b0b0b0;stroke-linecap:square;stroke-width:0.8;"/>
     </g>
     <g id="line2d_8">
      <g>
       <use style="stroke:#000000;stroke-width:0.8;" x="477.72" xlink:href="#m3f55cf49f6" y="630"/>
      </g>
     </g>
     <g id="text_4">
      <!-- 20 -->
      <g transform="translate(471.3575 644.598438)scale(0.1 -0.1)">
       <use xlink:href="#DejaVuSans-50"/>
       <use x="63.623047" xlink:href="#DejaVuSans-48"/>
      </g>
     </g>
    </g>
    <g id="xtick_5">
     <g id="line2d_9">
      <path clip-path="url(#p20fc3f53f5)" d="M 586.44 630 
L 586.44 86.4 
" style="fill:none;stroke:#b0b0b0;stroke-linecap:square;stroke-width:0.8;"/>
     </g>
     <g id="line2d_10">
      <g>
       <use style="stroke:#000000;stroke-width:0.8;" x="586.44" xlink:href="#m3f55cf49f6" y="630"/>
      </g>
     </g>
     <g id="text_5">
      <!-- 40 -->
      <g transform="translate(580.0775 644.598438)scale(0.1 -0.1)">
       <use xlink:href="#DejaVuSans-52"/>
       <use x="63.623047" xlink:href="#DejaVuSans-48"/>
      </g>
     </g>
    </g>
    <g id="text_6">
     <!-- X (cm) -->
     <defs>
      <path d="M 6.296875 72.90625 
L 16.890625 72.90625 
L 35.015625 45.796875 
L 53.21875 72.90625 
L 63.8125 72.90625 
L 40.375 37.890625 
L 65.375 0 
L 54.78125 0 
L 34.28125 31 
L 13.625 0 
L 2.984375 0 
L 29 38.921875 
z
" id="DejaVuSans-88"/>
      <path id="DejaVuSans-32"/>
      <path d="M 31 75.875 
Q 24.46875 64.65625 21.28125 53.65625 
Q 18.109375 42.671875 18.109375 31.390625 
Q 18.109375 20.125 21.3125 9.0625 
Q 24.515625 -2 31 -13.1875 
L 23.1875 -13.1875 
Q 15.875 -1.703125 12.234375 9.375 
Q 8.59375 20.453125 8.59375 31.390625 
Q 8.59375 42.28125 12.203125 53.3125 
Q 15.828125 64.359375 23.1875 75.875 
z
" id="DejaVuSans-40"/>
      <path d="M 48.78125 52.59375 
L 48.78125 44.1875 
Q 44.96875 46.296875 41.140625 47.34375 
Q 37.3125 48.390625 33.40625 48.390625 
Q 24.65625 48.390625 19.8125 42.84375 
Q 14.984375 37.3125 14.984375 27.296875 
Q 14.984375 17.28125 19.8125 11.734375 
Q 24.65625 6.203125 33.40625 6.203125 
Q 37.3125 6.203125 41.140625 7.25 
Q 44.96875 8.296875 48.78125 10.40625 
L 48.78125 2.09375 
Q 45.015625 0.34375 40.984375 -0.53125 
Q 36.96875 -1.421875 32.421875 -1.421875 
Q 20.0625 -1.421875 12.78125 6.34375 
Q 5.515625 14.109375 5.515625 27.296875 
Q 5.515625 40.671875 12.859375 48.328125 
Q 20.21875 56 33.015625 56 
Q 37.15625 56 41.109375 55.140625 
Q 45.0625 54.296875 48.78125 52.59375 
z
" id="DejaVuSans-99"/>
      <path d="M 52 44.1875 
Q 55.375 50.25 60.0625 53.125 
Q 64.75 56 71.09375 56 
Q 79.640625 56 84.28125 50.015625 
Q 88.921875 44.046875 88.921875 33.015625 
L 88.921875 0 
L 79.890625 0 
L 79.890625 32.71875 
Q 79.890625 40.578125 77.09375 44.375 
Q 74.3125 48.1875 68.609375 48.1875 
Q 61.625 48.1875 57.5625 43.546875 
Q 53.515625 38.921875 53.515625 30.90625 
L 53.515625 0 
L 44.484375 0 
L 44.484375 32.71875 
Q 44.484375 40.625 41.703125 44.40625 
Q 38.921875 48.1875 33.109375 48.1875 
Q 26.21875 48.1875 22.15625 43.53125 
Q 18.109375 38.875 18.109375 30.90625 
L 18.109375 0 
L 9.078125 0 
L 9.078125 54.6875 
L 18.109375 54.6875 
L 18.109375 46.1875 
Q 21.1875 51.21875 25.484375 53.609375 
Q 29.78125 56 35.6875 56 
Q 41.65625 56 45.828125 52.96875 
Q 50 49.953125 52 44.1875 
z
" id="DejaVuSans-109"/>
      <path d="M 8.015625 75.875 
L 15.828125 75.875 
Q 23.140625 64.359375 26.78125 53.3125 
Q 30.421875 42.28125 30.421875 31.390625 
Q 30.421875 20.453125 26.78125 9.375 
Q 23.140625 -1.703125 15.828125 -13.1875 
L 8.015625 -13.1875 
Q 14.5 -2 17.703125 9.0625 
Q 20.90625 20.125 20.90625 31.390625 
Q 20.90625 42.671875 17.703125 53.65625 
Q 14.5 64.65625 8.015625 75.875 
z
" id="DejaVuSans-41"/>
     </defs>
     <g transform="translate(352.464844 658.276562)scale(0.1 -0.1)">
      <use xlink:href="#DejaVuSans-88"/>
      <use x="68.505859" xlink:href="#DejaVuSans-32"/>
      <use x="100.292969" xlink:href="#DejaVuSans-40"/>
      <use x="139.306641" xlink:href="#DejaVuSans-99"/>
      <use x="194.287109" xlink:href="#DejaVuSans-109"/>
      <use x="291.699219" xlink:href="#DejaVuSans-41"/>
     </g>
    </g>
   </g>
   <g id="matplotlib.axis_2">
    <g id="ytick_1">
     <g id="line2d_11">
      <path clip-path="url(#p20fc3f53f5)" d="M 90 575.64 
L 648 575.64 
" style="fill:none;stroke:#b0b0b0;stroke-linecap:square;stroke-width:0.8;"/>
     </g>
     <g id="line2d_12">
      <defs>
       <path d="M 0 0 
L -3.5 0 
" id="m4a313705f8" style="stroke:#000000;stroke-width:0.8;"/>
      </defs>
      <g>
       <use style="stroke:#000000;stroke-width:0.8;" x="90" xlink:href="#m4a313705f8" y="575.64"/>
      </g>
     </g>
     <g id="text_7">
      <!-- 420 -->
      <g transform="translate(63.9125 579.439219)scale(0.1 -0.1)">
       <use xlink:href="#DejaVuSans-52"/>
       <use x="63.623047" xlink:href="#DejaVuSans-50"/>
       <use x="127.246094" xlink:href="#DejaVuSans-48"/>
      </g>
     </g>
    </g>
    <g id="ytick_2">
     <g id="line2d_13">
      <path clip-path="url(#p20fc3f53f5)" d="M 90 466.92 
L 648 466.92 
" style="fill:none;stroke:#b0b0b0;stroke-linecap:square;stroke-width:0.8;"/>
     </g>
     <g id="line2d_14">
      <g>
       <use style="stroke:#000000;stroke-width:0.8;" x="90" xlink:href="#m4a313705f8" y="466.92"/>
      </g>
     </g>
     <g id="text_8">
      <!-- 440 -->
      <g transform="translate(63.9125 470.719219)scale(0.1 -0.1)">
       <use xlink:href="#DejaVuSans-52"/>
       <use x="63.623047" xlink:href="#DejaVuSans-52"/>
       <use x="127.246094" xlink:href="#DejaVuSans-48"/>
      </g>
     </g>
    </g>
    <g id="ytick_3">
     <g id="line2d_15">
      <path clip-path="url(#p20fc3f53f5)" d="M 90 358.2 
L 648 358.2 
" style="fill:none;stroke:#b0b0b0;stroke-linecap:square;stroke-width:0.8;"/>
     </g>
     <g id="line2d_16">
      <g>
       <use style="stroke:#000000;stroke-width:0.8;" x="90" xlink:href="#m4a313705f8" y="358.2"/>
      </g>
     </g>
     <g id="text_9">
      <!-- 460 -->
      <defs>
       <path d="M 33.015625 40.375 
Q 26.375 40.375 22.484375 35.828125 
Q 18.609375 31.296875 18.609375 23.390625 
Q 18.609375 15.53125 22.484375 10.953125 
Q 26.375 6.390625 33.015625 6.390625 
Q 39.65625 6.390625 43.53125 10.953125 
Q 47.40625 15.53125 47.40625 23.390625 
Q 47.40625 31.296875 43.53125 35.828125 
Q 39.65625 40.375 33.015625 40.375 
z
M 52.59375 71.296875 
L 52.59375 62.3125 
Q 48.875 64.0625 45.09375 64.984375 
Q 41.3125 65.921875 37.59375 65.921875 
Q 27.828125 65.921875 22.671875 59.328125 
Q 17.53125 52.734375 16.796875 39.40625 
Q 19.671875 43.65625 24.015625 45.921875 
Q 28.375 48.1875 33.59375 48.1875 
Q 44.578125 48.1875 50.953125 41.515625 
Q 57.328125 34.859375 57.328125 23.390625 
Q 57.328125 12.15625 50.6875 5.359375 
Q 44.046875 -1.421875 33.015625 -1.421875 
Q 20.359375 -1.421875 13.671875 8.265625 
Q 6.984375 17.96875 6.984375 36.375 
Q 6.984375 53.65625 15.1875 63.9375 
Q 23.390625 74.21875 37.203125 74.21875 
Q 40.921875 74.21875 44.703125 73.484375 
Q 48.484375 72.75 52.59375 71.296875 
z
" id="DejaVuSans-54"/>
      </defs>
      <g transform="translate(63.9125 361.999219)scale(0.1 -0.1)">
       <use xlink:href="#DejaVuSans-52"/>
       <use x="63.623047" xlink:href="#DejaVuSans-54"/>
       <use x="127.246094" xlink:href="#DejaVuSans-48"/>
      </g>
     </g>
    </g>
    <g id="ytick_4">
     <g id="line2d_17">
      <path clip-path="url(#p20fc3f53f5)" d="M 90 249.48 
L 648 249.48 
" style="fill:none;stroke:#b0b0b0;stroke-linecap:square;stroke-width:0.8;"/>
     </g>
     <g id="line2d_18">
      <g>
       <use style="stroke:#000000;stroke-width:0.8;" x="90" xlink:href="#m4a313705f8" y="249.48"/>
      </g>
     </g>
     <g id="text_10">
      <!-- 480 -->
      <defs>
       <path d="M 31.78125 34.625 
Q 24.75 34.625 20.71875 30.859375 
Q 16.703125 27.09375 16.703125 20.515625 
Q 16.703125 13.921875 20.71875 10.15625 
Q 24.75 6.390625 31.78125 6.390625 
Q 38.8125 6.390625 42.859375 10.171875 
Q 46.921875 13.96875 46.921875 20.515625 
Q 46.921875 27.09375 42.890625 30.859375 
Q 38.875 34.625 31.78125 34.625 
z
M 21.921875 38.8125 
Q 15.578125 40.375 12.03125 44.71875 
Q 8.5 49.078125 8.5 55.328125 
Q 8.5 64.0625 14.71875 69.140625 
Q 20.953125 74.21875 31.78125 74.21875 
Q 42.671875 74.21875 48.875 69.140625 
Q 55.078125 64.0625 55.078125 55.328125 
Q 55.078125 49.078125 51.53125 44.71875 
Q 48 40.375 41.703125 38.8125 
Q 48.828125 37.15625 52.796875 32.3125 
Q 56.78125 27.484375 56.78125 20.515625 
Q 56.78125 9.90625 50.3125 4.234375 
Q 43.84375 -1.421875 31.78125 -1.421875 
Q 19.734375 -1.421875 13.25 4.234375 
Q 6.78125 9.90625 6.78125 20.515625 
Q 6.78125 27.484375 10.78125 32.3125 
Q 14.796875 37.15625 21.921875 38.8125 
z
M 18.3125 54.390625 
Q 18.3125 48.734375 21.84375 45.5625 
Q 25.390625 42.390625 31.78125 42.390625 
Q 38.140625 42.390625 41.71875 45.5625 
Q 45.3125 48.734375 45.3125 54.390625 
Q 45.3125 60.0625 41.71875 63.234375 
Q 38.140625 66.40625 31.78125 66.40625 
Q 25.390625 66.40625 21.84375 63.234375 
Q 18.3125 60.0625 18.3125 54.390625 
z
" id="DejaVuSans-56"/>
      </defs>
      <g transform="translate(63.9125 253.279219)scale(0.1 -0.1)">
       <use xlink:href="#DejaVuSans-52"/>
       <use x="63.623047" xlink:href="#DejaVuSans-56"/>
       <use x="127.246094" xlink:href="#DejaVuSans-48"/>
      </g>
     </g>
    </g>
    <g id="ytick_5">
     <g id="line2d_19">
      <path clip-path="url(#p20fc3f53f5)" d="M 90 140.76 
L 648 140.76 
" style="fill:none;stroke:#b0b0b0;stroke-linecap:square;stroke-width:0.8;"/>
     </g>
     <g id="line2d_20">
      <g>
       <use style="stroke:#000000;stroke-width:0.8;" x="90" xlink:href="#m4a313705f8" y="140.76"/>
      </g>
     </g>
     <g id="text_11">
      <!-- 500 -->
      <defs>
       <path d="M 10.796875 72.90625 
L 49.515625 72.90625 
L 49.515625 64.59375 
L 19.828125 64.59375 
L 19.828125 46.734375 
Q 21.96875 47.46875 24.109375 47.828125 
Q 26.265625 48.1875 28.421875 48.1875 
Q 40.625 48.1875 47.75 41.5 
Q 54.890625 34.8125 54.890625 23.390625 
Q 54.890625 11.625 47.5625 5.09375 
Q 40.234375 -1.421875 26.90625 -1.421875 
Q 22.3125 -1.421875 17.546875 -0.640625 
Q 12.796875 0.140625 7.71875 1.703125 
L 7.71875 11.625 
Q 12.109375 9.234375 16.796875 8.0625 
Q 21.484375 6.890625 26.703125 6.890625 
Q 35.15625 6.890625 40.078125 11.328125 
Q 45.015625 15.765625 45.015625 23.390625 
Q 45.015625 31 40.078125 35.4375 
Q 35.15625 39.890625 26.703125 39.890625 
Q 22.75 39.890625 18.8125 39.015625 
Q 14.890625 38.140625 10.796875 36.28125 
z
" id="DejaVuSans-53"/>
      </defs>
      <g transform="translate(63.9125 144.559219)scale(0.1 -0.1)">
       <use xlink:href="#DejaVuSans-53"/>
       <use x="63.623047" xlink:href="#DejaVuSans-48"/>
       <use x="127.246094" xlink:href="#DejaVuSans-48"/>
      </g>
     </g>
    </g>
    <g id="text_12">
     <!-- Y (cm) -->
     <defs>
      <path d="M -0.203125 72.90625 
L 10.40625 72.90625 
L 30.609375 42.921875 
L 50.6875 72.90625 
L 61.28125 72.90625 
L 35.5 34.71875 
L 35.5 0 
L 25.59375 0 
L 25.59375 34.71875 
z
" id="DejaVuSans-89"/>
     </defs>
     <g transform="translate(57.832812 374.364062)rotate(-90)scale(0.1 -0.1)">
      <use xlink:href="#DejaVuSans-89"/>
      <use x="61.083984" xlink:href="#DejaVuSans-32"/>
      <use x="92.871094" xlink:href="#DejaVuSans-40"/>
      <use x="131.884766" xlink:href="#DejaVuSans-99"/>
      <use x="186.865234" xlink:href="#DejaVuSans-109"/>
      <use x="284.277344" xlink:href="#DejaVuSans-41"/>
     </g>
    </g>
   </g>
   <g id="patch_9">
    <path d="M 90 630 
L 90 86.4 
" style="fill:none;stroke:#000000;stroke-linecap:square;stroke-linejoin:miter;stroke-width:0.8;"/>
   </g>
   <g id="patch_10">
    <path d="M 648 630 
L 648 86.4 
" style="fill:none;stroke:#000000;stroke-linecap:square;stroke-linejoin:miter;stroke-width:0.8;"/>
   </g>
   <g id="patch_11">
    <path d="M 90 630 
L 648 630 
" style="fill:none;stroke:#000000;stroke-linecap:square;stroke-linejoin:miter;stroke-width:0.8;"/>
   </g>
   <g id="patch_12">
    <path d="M 90 86.4 
L 648 86.4 
" style="fill:none;stroke:#000000;stroke-linecap:square;stroke-linejoin:miter;stroke-width:0.8;"/>
   </g>
   <g id="text_13">
    <!-- Uncertainty Ellipse for Measurements of zoomed in Forward Run -->
    <defs>
     <path d="M 8.6875 72.90625 
L 18.609375 72.90625 
L 18.609375 28.609375 
Q 18.609375 16.890625 22.84375 11.734375 
Q 27.09375 6.59375 36.625 6.59375 
Q 46.09375 6.59375 50.34375 11.734375 
Q 54.59375 16.890625 54.59375 28.609375 
L 54.59375 72.90625 
L 64.5 72.90625 
L 64.5 27.390625 
Q 64.5 13.140625 57.4375 5.859375 
Q 50.390625 -1.421875 36.625 -1.421875 
Q 22.796875 -1.421875 15.734375 5.859375 
Q 8.6875 13.140625 8.6875 27.390625 
z
" id="DejaVuSans-85"/>
     <path d="M 54.890625 33.015625 
L 54.890625 0 
L 45.90625 0 
L 45.90625 32.71875 
Q 45.90625 40.484375 42.875 44.328125 
Q 39.84375 48.1875 33.796875 48.1875 
Q 26.515625 48.1875 22.3125 43.546875 
Q 18.109375 38.921875 18.109375 30.90625 
L 18.109375 0 
L 9.078125 0 
L 9.078125 54.6875 
L 18.109375 54.6875 
L 18.109375 46.1875 
Q 21.34375 51.125 25.703125 53.5625 
Q 30.078125 56 35.796875 56 
Q 45.21875 56 50.046875 50.171875 
Q 54.890625 44.34375 54.890625 33.015625 
z
" id="DejaVuSans-110"/>
     <path d="M 56.203125 29.59375 
L 56.203125 25.203125 
L 14.890625 25.203125 
Q 15.484375 15.921875 20.484375 11.0625 
Q 25.484375 6.203125 34.421875 6.203125 
Q 39.59375 6.203125 44.453125 7.46875 
Q 49.3125 8.734375 54.109375 11.28125 
L 54.109375 2.78125 
Q 49.265625 0.734375 44.1875 -0.34375 
Q 39.109375 -1.421875 33.890625 -1.421875 
Q 20.796875 -1.421875 13.15625 6.1875 
Q 5.515625 13.8125 5.515625 26.8125 
Q 5.515625 40.234375 12.765625 48.109375 
Q 20.015625 56 32.328125 56 
Q 43.359375 56 49.78125 48.890625 
Q 56.203125 41.796875 56.203125 29.59375 
z
M 47.21875 32.234375 
Q 47.125 39.59375 43.09375 43.984375 
Q 39.0625 48.390625 32.421875 48.390625 
Q 24.90625 48.390625 20.390625 44.140625 
Q 15.875 39.890625 15.1875 32.171875 
z
" id="DejaVuSans-101"/>
     <path d="M 41.109375 46.296875 
Q 39.59375 47.171875 37.8125 47.578125 
Q 36.03125 48 33.890625 48 
Q 26.265625 48 22.1875 43.046875 
Q 18.109375 38.09375 18.109375 28.8125 
L 18.109375 0 
L 9.078125 0 
L 9.078125 54.6875 
L 18.109375 54.6875 
L 18.109375 46.1875 
Q 20.953125 51.171875 25.484375 53.578125 
Q 30.03125 56 36.53125 56 
Q 37.453125 56 38.578125 55.875 
Q 39.703125 55.765625 41.0625 55.515625 
z
" id="DejaVuSans-114"/>
     <path d="M 18.3125 70.21875 
L 18.3125 54.6875 
L 36.8125 54.6875 
L 36.8125 47.703125 
L 18.3125 47.703125 
L 18.3125 18.015625 
Q 18.3125 11.328125 20.140625 9.421875 
Q 21.96875 7.515625 27.59375 7.515625 
L 36.8125 7.515625 
L 36.8125 0 
L 27.59375 0 
Q 17.1875 0 13.234375 3.875 
Q 9.28125 7.765625 9.28125 18.015625 
L 9.28125 47.703125 
L 2.6875 47.703125 
L 2.6875 54.6875 
L 9.28125 54.6875 
L 9.28125 70.21875 
z
" id="DejaVuSans-116"/>
     <path d="M 34.28125 27.484375 
Q 23.390625 27.484375 19.1875 25 
Q 14.984375 22.515625 14.984375 16.5 
Q 14.984375 11.71875 18.140625 8.90625 
Q 21.296875 6.109375 26.703125 6.109375 
Q 34.1875 6.109375 38.703125 11.40625 
Q 43.21875 16.703125 43.21875 25.484375 
L 43.21875 27.484375 
z
M 52.203125 31.203125 
L 52.203125 0 
L 43.21875 0 
L 43.21875 8.296875 
Q 40.140625 3.328125 35.546875 0.953125 
Q 30.953125 -1.421875 24.3125 -1.421875 
Q 15.921875 -1.421875 10.953125 3.296875 
Q 6 8.015625 6 15.921875 
Q 6 25.140625 12.171875 29.828125 
Q 18.359375 34.515625 30.609375 34.515625 
L 43.21875 34.515625 
L 43.21875 35.40625 
Q 43.21875 41.609375 39.140625 45 
Q 35.0625 48.390625 27.6875 48.390625 
Q 23 48.390625 18.546875 47.265625 
Q 14.109375 46.140625 10.015625 43.890625 
L 10.015625 52.203125 
Q 14.9375 54.109375 19.578125 55.046875 
Q 24.21875 56 28.609375 56 
Q 40.484375 56 46.34375 49.84375 
Q 52.203125 43.703125 52.203125 31.203125 
z
" id="DejaVuSans-97"/>
     <path d="M 9.421875 54.6875 
L 18.40625 54.6875 
L 18.40625 0 
L 9.421875 0 
z
M 9.421875 75.984375 
L 18.40625 75.984375 
L 18.40625 64.59375 
L 9.421875 64.59375 
z
" id="DejaVuSans-105"/>
     <path d="M 32.171875 -5.078125 
Q 28.375 -14.84375 24.75 -17.8125 
Q 21.140625 -20.796875 15.09375 -20.796875 
L 7.90625 -20.796875 
L 7.90625 -13.28125 
L 13.1875 -13.28125 
Q 16.890625 -13.28125 18.9375 -11.515625 
Q 21 -9.765625 23.484375 -3.21875 
L 25.09375 0.875 
L 2.984375 54.6875 
L 12.5 54.6875 
L 29.59375 11.921875 
L 46.6875 54.6875 
L 56.203125 54.6875 
z
" id="DejaVuSans-121"/>
     <path d="M 9.8125 72.90625 
L 55.90625 72.90625 
L 55.90625 64.59375 
L 19.671875 64.59375 
L 19.671875 43.015625 
L 54.390625 43.015625 
L 54.390625 34.71875 
L 19.671875 34.71875 
L 19.671875 8.296875 
L 56.78125 8.296875 
L 56.78125 0 
L 9.8125 0 
z
" id="DejaVuSans-69"/>
     <path d="M 9.421875 75.984375 
L 18.40625 75.984375 
L 18.40625 0 
L 9.421875 0 
z
" id="DejaVuSans-108"/>
     <path d="M 18.109375 8.203125 
L 18.109375 -20.796875 
L 9.078125 -20.796875 
L 9.078125 54.6875 
L 18.109375 54.6875 
L 18.109375 46.390625 
Q 20.953125 51.265625 25.265625 53.625 
Q 29.59375 56 35.59375 56 
Q 45.5625 56 51.78125 48.09375 
Q 58.015625 40.1875 58.015625 27.296875 
Q 58.015625 14.40625 51.78125 6.484375 
Q 45.5625 -1.421875 35.59375 -1.421875 
Q 29.59375 -1.421875 25.265625 0.953125 
Q 20.953125 3.328125 18.109375 8.203125 
z
M 48.6875 27.296875 
Q 48.6875 37.203125 44.609375 42.84375 
Q 40.53125 48.484375 33.40625 48.484375 
Q 26.265625 48.484375 22.1875 42.84375 
Q 18.109375 37.203125 18.109375 27.296875 
Q 18.109375 17.390625 22.1875 11.75 
Q 26.265625 6.109375 33.40625 6.109375 
Q 40.53125 6.109375 44.609375 11.75 
Q 48.6875 17.390625 48.6875 27.296875 
z
" id="DejaVuSans-112"/>
     <path d="M 44.28125 53.078125 
L 44.28125 44.578125 
Q 40.484375 46.53125 36.375 47.5 
Q 32.28125 48.484375 27.875 48.484375 
Q 21.1875 48.484375 17.84375 46.4375 
Q 14.5 44.390625 14.5 40.28125 
Q 14.5 37.15625 16.890625 35.375 
Q 19.28125 33.59375 26.515625 31.984375 
L 29.59375 31.296875 
Q 39.15625 29.25 43.1875 25.515625 
Q 47.21875 21.78125 47.21875 15.09375 
Q 47.21875 7.46875 41.1875 3.015625 
Q 35.15625 -1.421875 24.609375 -1.421875 
Q 20.21875 -1.421875 15.453125 -0.5625 
Q 10.6875 0.296875 5.421875 2 
L 5.421875 11.28125 
Q 10.40625 8.6875 15.234375 7.390625 
Q 20.0625 6.109375 24.8125 6.109375 
Q 31.15625 6.109375 34.5625 8.28125 
Q 37.984375 10.453125 37.984375 14.40625 
Q 37.984375 18.0625 35.515625 20.015625 
Q 33.0625 21.96875 24.703125 23.78125 
L 21.578125 24.515625 
Q 13.234375 26.265625 9.515625 29.90625 
Q 5.8125 33.546875 5.8125 39.890625 
Q 5.8125 47.609375 11.28125 51.796875 
Q 16.75 56 26.8125 56 
Q 31.78125 56 36.171875 55.265625 
Q 40.578125 54.546875 44.28125 53.078125 
z
" id="DejaVuSans-115"/>
     <path d="M 37.109375 75.984375 
L 37.109375 68.5 
L 28.515625 68.5 
Q 23.6875 68.5 21.796875 66.546875 
Q 19.921875 64.59375 19.921875 59.515625 
L 19.921875 54.6875 
L 34.71875 54.6875 
L 34.71875 47.703125 
L 19.921875 47.703125 
L 19.921875 0 
L 10.890625 0 
L 10.890625 47.703125 
L 2.296875 47.703125 
L 2.296875 54.6875 
L 10.890625 54.6875 
L 10.890625 58.5 
Q 10.890625 67.625 15.140625 71.796875 
Q 19.390625 75.984375 28.609375 75.984375 
z
" id="DejaVuSans-102"/>
     <path d="M 30.609375 48.390625 
Q 23.390625 48.390625 19.1875 42.75 
Q 14.984375 37.109375 14.984375 27.296875 
Q 14.984375 17.484375 19.15625 11.84375 
Q 23.34375 6.203125 30.609375 6.203125 
Q 37.796875 6.203125 41.984375 11.859375 
Q 46.1875 17.53125 46.1875 27.296875 
Q 46.1875 37.015625 41.984375 42.703125 
Q 37.796875 48.390625 30.609375 48.390625 
z
M 30.609375 56 
Q 42.328125 56 49.015625 48.375 
Q 55.71875 40.765625 55.71875 27.296875 
Q 55.71875 13.875 49.015625 6.21875 
Q 42.328125 -1.421875 30.609375 -1.421875 
Q 18.84375 -1.421875 12.171875 6.21875 
Q 5.515625 13.875 5.515625 27.296875 
Q 5.515625 40.765625 12.171875 48.375 
Q 18.84375 56 30.609375 56 
z
" id="DejaVuSans-111"/>
     <path d="M 9.8125 72.90625 
L 24.515625 72.90625 
L 43.109375 23.296875 
L 61.8125 72.90625 
L 76.515625 72.90625 
L 76.515625 0 
L 66.890625 0 
L 66.890625 64.015625 
L 48.09375 14.015625 
L 38.1875 14.015625 
L 19.390625 64.015625 
L 19.390625 0 
L 9.8125 0 
z
" id="DejaVuSans-77"/>
     <path d="M 8.5 21.578125 
L 8.5 54.6875 
L 17.484375 54.6875 
L 17.484375 21.921875 
Q 17.484375 14.15625 20.5 10.265625 
Q 23.53125 6.390625 29.59375 6.390625 
Q 36.859375 6.390625 41.078125 11.03125 
Q 45.3125 15.671875 45.3125 23.6875 
L 45.3125 54.6875 
L 54.296875 54.6875 
L 54.296875 0 
L 45.3125 0 
L 45.3125 8.40625 
Q 42.046875 3.421875 37.71875 1 
Q 33.40625 -1.421875 27.6875 -1.421875 
Q 18.265625 -1.421875 13.375 4.4375 
Q 8.5 10.296875 8.5 21.578125 
z
M 31.109375 56 
z
" id="DejaVuSans-117"/>
     <path d="M 5.515625 54.6875 
L 48.1875 54.6875 
L 48.1875 46.484375 
L 14.40625 7.171875 
L 48.1875 7.171875 
L 48.1875 0 
L 4.296875 0 
L 4.296875 8.203125 
L 38.09375 47.515625 
L 5.515625 47.515625 
z
" id="DejaVuSans-122"/>
     <path d="M 45.40625 46.390625 
L 45.40625 75.984375 
L 54.390625 75.984375 
L 54.390625 0 
L 45.40625 0 
L 45.40625 8.203125 
Q 42.578125 3.328125 38.25 0.953125 
Q 33.9375 -1.421875 27.875 -1.421875 
Q 17.96875 -1.421875 11.734375 6.484375 
Q 5.515625 14.40625 5.515625 27.296875 
Q 5.515625 40.1875 11.734375 48.09375 
Q 17.96875 56 27.875 56 
Q 33.9375 56 38.25 53.625 
Q 42.578125 51.265625 45.40625 46.390625 
z
M 14.796875 27.296875 
Q 14.796875 17.390625 18.875 11.75 
Q 22.953125 6.109375 30.078125 6.109375 
Q 37.203125 6.109375 41.296875 11.75 
Q 45.40625 17.390625 45.40625 27.296875 
Q 45.40625 37.203125 41.296875 42.84375 
Q 37.203125 48.484375 30.078125 48.484375 
Q 22.953125 48.484375 18.875 42.84375 
Q 14.796875 37.203125 14.796875 27.296875 
z
" id="DejaVuSans-100"/>
     <path d="M 9.8125 72.90625 
L 51.703125 72.90625 
L 51.703125 64.59375 
L 19.671875 64.59375 
L 19.671875 43.109375 
L 48.578125 43.109375 
L 48.578125 34.8125 
L 19.671875 34.8125 
L 19.671875 0 
L 9.8125 0 
z
" id="DejaVuSans-70"/>
     <path d="M 4.203125 54.6875 
L 13.1875 54.6875 
L 24.421875 12.015625 
L 35.59375 54.6875 
L 46.1875 54.6875 
L 57.421875 12.015625 
L 68.609375 54.6875 
L 77.59375 54.6875 
L 63.28125 0 
L 52.6875 0 
L 40.921875 44.828125 
L 29.109375 0 
L 18.5 0 
z
" id="DejaVuSans-119"/>
     <path d="M 44.390625 34.1875 
Q 47.5625 33.109375 50.5625 29.59375 
Q 53.5625 26.078125 56.59375 19.921875 
L 66.609375 0 
L 56 0 
L 46.6875 18.703125 
Q 43.0625 26.03125 39.671875 28.421875 
Q 36.28125 30.8125 30.421875 30.8125 
L 19.671875 30.8125 
L 19.671875 0 
L 9.8125 0 
L 9.8125 72.90625 
L 32.078125 72.90625 
Q 44.578125 72.90625 50.734375 67.671875 
Q 56.890625 62.453125 56.890625 51.90625 
Q 56.890625 45.015625 53.6875 40.46875 
Q 50.484375 35.9375 44.390625 34.1875 
z
M 19.671875 64.796875 
L 19.671875 38.921875 
L 32.078125 38.921875 
Q 39.203125 38.921875 42.84375 42.21875 
Q 46.484375 45.515625 46.484375 51.90625 
Q 46.484375 58.296875 42.84375 61.546875 
Q 39.203125 64.796875 32.078125 64.796875 
z
" id="DejaVuSans-82"/>
    </defs>
    <g transform="translate(207.560156 80.4)scale(0.1 -0.1)">
     <use xlink:href="#DejaVuSans-85"/>
     <use x="73.193359" xlink:href="#DejaVuSans-110"/>
     <use x="136.572266" xlink:href="#DejaVuSans-99"/>
     <use x="191.552734" xlink:href="#DejaVuSans-101"/>
     <use x="253.076172" xlink:href="#DejaVuSans-114"/>
     <use x="294.189453" xlink:href="#DejaVuSans-116"/>
     <use x="333.398438" xlink:href="#DejaVuSans-97"/>
     <use x="394.677734" xlink:href="#DejaVuSans-105"/>
     <use x="422.460938" xlink:href="#DejaVuSans-110"/>
     <use x="485.839844" xlink:href="#DejaVuSans-116"/>
     <use x="525.048828" xlink:href="#DejaVuSans-121"/>
     <use x="584.228516" xlink:href="#DejaVuSans-32"/>
     <use x="616.015625" xlink:href="#DejaVuSans-69"/>
     <use x="679.199219" xlink:href="#DejaVuSans-108"/>
     <use x="706.982422" xlink:href="#DejaVuSans-108"/>
     <use x="734.765625" xlink:href="#DejaVuSans-105"/>
     <use x="762.548828" xlink:href="#DejaVuSans-112"/>
     <use x="826.025391" xlink:href="#DejaVuSans-115"/>
     <use x="878.125" xlink:href="#DejaVuSans-101"/>
     <use x="939.648438" xlink:href="#DejaVuSans-32"/>
     <use x="971.435547" xlink:href="#DejaVuSans-102"/>
     <use x="1006.640625" xlink:href="#DejaVuSans-111"/>
     <use x="1067.822266" xlink:href="#DejaVuSans-114"/>
     <use x="1108.935547" xlink:href="#DejaVuSans-32"/>
     <use x="1140.722656" xlink:href="#DejaVuSans-77"/>
     <use x="1227.001953" xlink:href="#DejaVuSans-101"/>
     <use x="1288.525391" xlink:href="#DejaVuSans-97"/>
     <use x="1349.804688" xlink:href="#DejaVuSans-115"/>
     <use x="1401.904297" xlink:href="#DejaVuSans-117"/>
     <use x="1465.283203" xlink:href="#DejaVuSans-114"/>
     <use x="1506.365234" xlink:href="#DejaVuSans-101"/>
     <use x="1567.888672" xlink:href="#DejaVuSans-109"/>
     <use x="1665.300781" xlink:href="#DejaVuSans-101"/>
     <use x="1726.824219" xlink:href="#DejaVuSans-110"/>
     <use x="1790.203125" xlink:href="#DejaVuSans-116"/>
     <use x="1829.412109" xlink:href="#DejaVuSans-115"/>
     <use x="1881.511719" xlink:href="#DejaVuSans-32"/>
     <use x="1913.298828" xlink:href="#DejaVuSans-111"/>
     <use x="1974.480469" xlink:href="#DejaVuSans-102"/>
     <use x="2009.685547" xlink:href="#DejaVuSans-32"/>
     <use x="2041.472656" xlink:href="#DejaVuSans-122"/>
     <use x="2093.962891" xlink:href="#DejaVuSans-111"/>
     <use x="2155.144531" xlink:href="#DejaVuSans-111"/>
     <use x="2216.326172" xlink:href="#DejaVuSans-109"/>
     <use x="2313.738281" xlink:href="#DejaVuSans-101"/>
     <use x="2375.261719" xlink:href="#DejaVuSans-100"/>
     <use x="2438.738281" xlink:href="#DejaVuSans-32"/>
     <use x="2470.525391" xlink:href="#DejaVuSans-105"/>
     <use x="2498.308594" xlink:href="#DejaVuSans-110"/>
     <use x="2561.6875" xlink:href="#DejaVuSans-32"/>
     <use x="2593.474609" xlink:href="#DejaVuSans-70"/>
     <use x="2650.947266" xlink:href="#DejaVuSans-111"/>
     <use x="2712.128906" xlink:href="#DejaVuSans-114"/>
     <use x="2753.242188" xlink:href="#DejaVuSans-119"/>
     <use x="2835.029297" xlink:href="#DejaVuSans-97"/>
     <use x="2896.308594" xlink:href="#DejaVuSans-114"/>
     <use x="2937.40625" xlink:href="#DejaVuSans-100"/>
     <use x="3000.882812" xlink:href="#DejaVuSans-32"/>
     <use x="3032.669922" xlink:href="#DejaVuSans-82"/>
     <use x="3102.089844" xlink:href="#DejaVuSans-117"/>
     <use x="3165.46875" xlink:href="#DejaVuSans-110"/>
    </g>
   </g>
   <g id="legend_1">
    <g id="patch_13">
     <path d="M 398.38125 211.825 
L 641 211.825 
Q 643 211.825 643 209.825 
L 643 93.4 
Q 643 91.4 641 91.4 
L 398.38125 91.4 
Q 396.38125 91.4 396.38125 93.4 
L 396.38125 209.825 
Q 396.38125 211.825 398.38125 211.825 
z
" style="fill:#ffffff;opacity:0.8;stroke:#cccccc;stroke-linejoin:miter;"/>
    </g>
    <g id="patch_14">
     <path d="M 400.38125 102.998437 
L 420.38125 102.998437 
L 420.38125 95.998437 
L 400.38125 95.998437 
z
" style="fill:none;stroke:#b22222;stroke-linejoin:miter;"/>
    </g>
    <g id="text_14">
     <!-- $1\sigma$ for forward data -->
     <defs>
      <path d="M 12.40625 8.296875 
L 28.515625 8.296875 
L 28.515625 63.921875 
L 10.984375 60.40625 
L 10.984375 69.390625 
L 28.421875 72.90625 
L 38.28125 72.90625 
L 38.28125 8.296875 
L 54.390625 8.296875 
L 54.390625 0 
L 12.40625 0 
z
" id="DejaVuSans-49"/>
      <path d="M 34.671875 47.5625 
Q 27.25 47.5625 22.21875 42.1875 
Q 16.890625 36.578125 15.140625 27.296875 
Q 13.1875 17.484375 16.3125 11.8125 
Q 19.390625 6.203125 26.65625 6.203125 
Q 33.84375 6.203125 39.109375 11.859375 
Q 44.4375 17.53125 46.34375 27.296875 
Q 48.046875 36.234375 45.015625 42.1875 
Q 42.1875 47.5625 34.671875 47.5625 
z
M 36.078125 54.734375 
L 65.921875 54.6875 
L 64.15625 45.703125 
L 54.109375 45.703125 
Q 57.90625 38.09375 55.859375 27.296875 
Q 53.21875 13.875 45.0625 6.25 
Q 36.859375 -1.421875 25.140625 -1.421875 
Q 13.375 -1.421875 8.203125 6.25 
Q 3.03125 13.875 5.671875 27.296875 
Q 8.25 40.765625 16.40625 48.390625 
Q 23.1875 54.734375 36.078125 54.734375 
z
" id="DejaVuSans-Oblique-963"/>
     </defs>
     <g transform="translate(428.38125 102.998437)scale(0.1 -0.1)">
      <use transform="translate(0 0.015625)" xlink:href="#DejaVuSans-49"/>
      <use transform="translate(63.623047 0.015625)" xlink:href="#DejaVuSans-Oblique-963"/>
      <use transform="translate(127.001953 0.015625)" xlink:href="#DejaVuSans-32"/>
      <use transform="translate(158.789062 0.015625)" xlink:href="#DejaVuSans-102"/>
      <use transform="translate(193.994141 0.015625)" xlink:href="#DejaVuSans-111"/>
      <use transform="translate(255.175781 0.015625)" xlink:href="#DejaVuSans-114"/>
      <use transform="translate(296.289062 0.015625)" xlink:href="#DejaVuSans-32"/>
      <use transform="translate(328.076172 0.015625)" xlink:href="#DejaVuSans-102"/>
      <use transform="translate(363.28125 0.015625)" xlink:href="#DejaVuSans-111"/>
      <use transform="translate(424.462891 0.015625)" xlink:href="#DejaVuSans-114"/>
      <use transform="translate(465.576172 0.015625)" xlink:href="#DejaVuSans-119"/>
      <use transform="translate(547.363281 0.015625)" xlink:href="#DejaVuSans-97"/>
      <use transform="translate(608.642578 0.015625)" xlink:href="#DejaVuSans-114"/>
      <use transform="translate(649.755859 0.015625)" xlink:href="#DejaVuSans-100"/>
      <use transform="translate(713.232422 0.015625)" xlink:href="#DejaVuSans-32"/>
      <use transform="translate(745.019531 0.015625)" xlink:href="#DejaVuSans-100"/>
      <use transform="translate(808.496094 0.015625)" xlink:href="#DejaVuSans-97"/>
      <use transform="translate(869.775391 0.015625)" xlink:href="#DejaVuSans-116"/>
      <use transform="translate(908.984375 0.015625)" xlink:href="#DejaVuSans-97"/>
     </g>
    </g>
    <g id="patch_15">
     <path d="M 400.38125 117.676562 
L 420.38125 117.676562 
L 420.38125 110.676562 
L 400.38125 110.676562 
z
" style="fill:none;stroke:#b22222;stroke-linejoin:miter;"/>
    </g>
    <g id="text_15">
     <!-- $2\sigma$ for forward data -->
     <g transform="translate(428.38125 117.676562)scale(0.1 -0.1)">
      <use transform="translate(0 0.015625)" xlink:href="#DejaVuSans-50"/>
      <use transform="translate(63.623047 0.015625)" xlink:href="#DejaVuSans-Oblique-963"/>
      <use transform="translate(127.001953 0.015625)" xlink:href="#DejaVuSans-32"/>
      <use transform="translate(158.789062 0.015625)" xlink:href="#DejaVuSans-102"/>
      <use transform="translate(193.994141 0.015625)" xlink:href="#DejaVuSans-111"/>
      <use transform="translate(255.175781 0.015625)" xlink:href="#DejaVuSans-114"/>
      <use transform="translate(296.289062 0.015625)" xlink:href="#DejaVuSans-32"/>
      <use transform="translate(328.076172 0.015625)" xlink:href="#DejaVuSans-102"/>
      <use transform="translate(363.28125 0.015625)" xlink:href="#DejaVuSans-111"/>
      <use transform="translate(424.462891 0.015625)" xlink:href="#DejaVuSans-114"/>
      <use transform="translate(465.576172 0.015625)" xlink:href="#DejaVuSans-119"/>
      <use transform="translate(547.363281 0.015625)" xlink:href="#DejaVuSans-97"/>
      <use transform="translate(608.642578 0.015625)" xlink:href="#DejaVuSans-114"/>
      <use transform="translate(649.755859 0.015625)" xlink:href="#DejaVuSans-100"/>
      <use transform="translate(713.232422 0.015625)" xlink:href="#DejaVuSans-32"/>
      <use transform="translate(745.019531 0.015625)" xlink:href="#DejaVuSans-100"/>
      <use transform="translate(808.496094 0.015625)" xlink:href="#DejaVuSans-97"/>
      <use transform="translate(869.775391 0.015625)" xlink:href="#DejaVuSans-116"/>
      <use transform="translate(908.984375 0.015625)" xlink:href="#DejaVuSans-97"/>
     </g>
    </g>
    <g id="patch_16">
     <path d="M 400.38125 132.354687 
L 420.38125 132.354687 
L 420.38125 125.354687 
L 400.38125 125.354687 
z
" style="fill:none;stroke:#b22222;stroke-linejoin:miter;"/>
    </g>
    <g id="text_16">
     <!-- $3\sigma$ for forward data -->
     <defs>
      <path d="M 40.578125 39.3125 
Q 47.65625 37.796875 51.625 33 
Q 55.609375 28.21875 55.609375 21.1875 
Q 55.609375 10.40625 48.1875 4.484375 
Q 40.765625 -1.421875 27.09375 -1.421875 
Q 22.515625 -1.421875 17.65625 -0.515625 
Q 12.796875 0.390625 7.625 2.203125 
L 7.625 11.71875 
Q 11.71875 9.328125 16.59375 8.109375 
Q 21.484375 6.890625 26.8125 6.890625 
Q 36.078125 6.890625 40.9375 10.546875 
Q 45.796875 14.203125 45.796875 21.1875 
Q 45.796875 27.640625 41.28125 31.265625 
Q 36.765625 34.90625 28.71875 34.90625 
L 20.21875 34.90625 
L 20.21875 43.015625 
L 29.109375 43.015625 
Q 36.375 43.015625 40.234375 45.921875 
Q 44.09375 48.828125 44.09375 54.296875 
Q 44.09375 59.90625 40.109375 62.90625 
Q 36.140625 65.921875 28.71875 65.921875 
Q 24.65625 65.921875 20.015625 65.03125 
Q 15.375 64.15625 9.8125 62.3125 
L 9.8125 71.09375 
Q 15.4375 72.65625 20.34375 73.4375 
Q 25.25 74.21875 29.59375 74.21875 
Q 40.828125 74.21875 47.359375 69.109375 
Q 53.90625 64.015625 53.90625 55.328125 
Q 53.90625 49.265625 50.4375 45.09375 
Q 46.96875 40.921875 40.578125 39.3125 
z
" id="DejaVuSans-51"/>
     </defs>
     <g transform="translate(428.38125 132.354687)scale(0.1 -0.1)">
      <use transform="translate(0 0.015625)" xlink:href="#DejaVuSans-51"/>
      <use transform="translate(63.623047 0.015625)" xlink:href="#DejaVuSans-Oblique-963"/>
      <use transform="translate(127.001953 0.015625)" xlink:href="#DejaVuSans-32"/>
      <use transform="translate(158.789062 0.015625)" xlink:href="#DejaVuSans-102"/>
      <use transform="translate(193.994141 0.015625)" xlink:href="#DejaVuSans-111"/>
      <use transform="translate(255.175781 0.015625)" xlink:href="#DejaVuSans-114"/>
      <use transform="translate(296.289062 0.015625)" xlink:href="#DejaVuSans-32"/>
      <use transform="translate(328.076172 0.015625)" xlink:href="#DejaVuSans-102"/>
      <use transform="translate(363.28125 0.015625)" xlink:href="#DejaVuSans-111"/>
      <use transform="translate(424.462891 0.015625)" xlink:href="#DejaVuSans-114"/>
      <use transform="translate(465.576172 0.015625)" xlink:href="#DejaVuSans-119"/>
      <use transform="translate(547.363281 0.015625)" xlink:href="#DejaVuSans-97"/>
      <use transform="translate(608.642578 0.015625)" xlink:href="#DejaVuSans-114"/>
      <use transform="translate(649.755859 0.015625)" xlink:href="#DejaVuSans-100"/>
      <use transform="translate(713.232422 0.015625)" xlink:href="#DejaVuSans-32"/>
      <use transform="translate(745.019531 0.015625)" xlink:href="#DejaVuSans-100"/>
      <use transform="translate(808.496094 0.015625)" xlink:href="#DejaVuSans-97"/>
      <use transform="translate(869.775391 0.015625)" xlink:href="#DejaVuSans-116"/>
      <use transform="translate(908.984375 0.015625)" xlink:href="#DejaVuSans-97"/>
     </g>
    </g>
    <g id="patch_17">
     <path d="M 400.38125 147.032812 
L 420.38125 147.032812 
L 420.38125 140.032812 
L 400.38125 140.032812 
z
" style="fill:none;stroke:#0000ff;stroke-linejoin:miter;"/>
    </g>
    <g id="text_17">
     <!-- $1\sigma$ for Encoded data -->
     <g transform="translate(428.38125 147.032812)scale(0.1 -0.1)">
      <use transform="translate(0 0.015625)" xlink:href="#DejaVuSans-49"/>
      <use transform="translate(63.623047 0.015625)" xlink:href="#DejaVuSans-Oblique-963"/>
      <use transform="translate(127.001953 0.015625)" xlink:href="#DejaVuSans-32"/>
      <use transform="translate(158.789062 0.015625)" xlink:href="#DejaVuSans-102"/>
      <use transform="translate(193.994141 0.015625)" xlink:href="#DejaVuSans-111"/>
      <use transform="translate(255.175781 0.015625)" xlink:href="#DejaVuSans-114"/>
      <use transform="translate(296.289062 0.015625)" xlink:href="#DejaVuSans-32"/>
      <use transform="translate(328.076172 0.015625)" xlink:href="#DejaVuSans-69"/>
      <use transform="translate(391.259766 0.015625)" xlink:href="#DejaVuSans-110"/>
      <use transform="translate(454.638672 0.015625)" xlink:href="#DejaVuSans-99"/>
      <use transform="translate(509.619141 0.015625)" xlink:href="#DejaVuSans-111"/>
      <use transform="translate(570.800781 0.015625)" xlink:href="#DejaVuSans-100"/>
      <use transform="translate(634.277344 0.015625)" xlink:href="#DejaVuSans-101"/>
      <use transform="translate(695.800781 0.015625)" xlink:href="#DejaVuSans-100"/>
      <use transform="translate(759.277344 0.015625)" xlink:href="#DejaVuSans-32"/>
      <use transform="translate(791.064453 0.015625)" xlink:href="#DejaVuSans-100"/>
      <use transform="translate(854.541016 0.015625)" xlink:href="#DejaVuSans-97"/>
      <use transform="translate(915.820312 0.015625)" xlink:href="#DejaVuSans-116"/>
      <use transform="translate(955.029297 0.015625)" xlink:href="#DejaVuSans-97"/>
     </g>
    </g>
    <g id="patch_18">
     <path d="M 400.38125 161.710937 
L 420.38125 161.710937 
L 420.38125 154.710937 
L 400.38125 154.710937 
z
" style="fill:none;stroke:#0000ff;stroke-linejoin:miter;"/>
    </g>
    <g id="text_18">
     <!-- $2\sigma$ for Encoded data -->
     <g transform="translate(428.38125 161.710937)scale(0.1 -0.1)">
      <use transform="translate(0 0.015625)" xlink:href="#DejaVuSans-50"/>
      <use transform="translate(63.623047 0.015625)" xlink:href="#DejaVuSans-Oblique-963"/>
      <use transform="translate(127.001953 0.015625)" xlink:href="#DejaVuSans-32"/>
      <use transform="translate(158.789062 0.015625)" xlink:href="#DejaVuSans-102"/>
      <use transform="translate(193.994141 0.015625)" xlink:href="#DejaVuSans-111"/>
      <use transform="translate(255.175781 0.015625)" xlink:href="#DejaVuSans-114"/>
      <use transform="translate(296.289062 0.015625)" xlink:href="#DejaVuSans-32"/>
      <use transform="translate(328.076172 0.015625)" xlink:href="#DejaVuSans-69"/>
      <use transform="translate(391.259766 0.015625)" xlink:href="#DejaVuSans-110"/>
      <use transform="translate(454.638672 0.015625)" xlink:href="#DejaVuSans-99"/>
      <use transform="translate(509.619141 0.015625)" xlink:href="#DejaVuSans-111"/>
      <use transform="translate(570.800781 0.015625)" xlink:href="#DejaVuSans-100"/>
      <use transform="translate(634.277344 0.015625)" xlink:href="#DejaVuSans-101"/>
      <use transform="translate(695.800781 0.015625)" xlink:href="#DejaVuSans-100"/>
      <use transform="translate(759.277344 0.015625)" xlink:href="#DejaVuSans-32"/>
      <use transform="translate(791.064453 0.015625)" xlink:href="#DejaVuSans-100"/>
      <use transform="translate(854.541016 0.015625)" xlink:href="#DejaVuSans-97"/>
      <use transform="translate(915.820312 0.015625)" xlink:href="#DejaVuSans-116"/>
      <use transform="translate(955.029297 0.015625)" xlink:href="#DejaVuSans-97"/>
     </g>
    </g>
    <g id="patch_19">
     <path d="M 400.38125 176.389062 
L 420.38125 176.389062 
L 420.38125 169.389062 
L 400.38125 169.389062 
z
" style="fill:none;stroke:#0000ff;stroke-linejoin:miter;"/>
    </g>
    <g id="text_19">
     <!-- $3\sigma$ for Encoded data -->
     <g transform="translate(428.38125 176.389062)scale(0.1 -0.1)">
      <use transform="translate(0 0.015625)" xlink:href="#DejaVuSans-51"/>
      <use transform="translate(63.623047 0.015625)" xlink:href="#DejaVuSans-Oblique-963"/>
      <use transform="translate(127.001953 0.015625)" xlink:href="#DejaVuSans-32"/>
      <use transform="translate(158.789062 0.015625)" xlink:href="#DejaVuSans-102"/>
      <use transform="translate(193.994141 0.015625)" xlink:href="#DejaVuSans-111"/>
      <use transform="translate(255.175781 0.015625)" xlink:href="#DejaVuSans-114"/>
      <use transform="translate(296.289062 0.015625)" xlink:href="#DejaVuSans-32"/>
      <use transform="translate(328.076172 0.015625)" xlink:href="#DejaVuSans-69"/>
      <use transform="translate(391.259766 0.015625)" xlink:href="#DejaVuSans-110"/>
      <use transform="translate(454.638672 0.015625)" xlink:href="#DejaVuSans-99"/>
      <use transform="translate(509.619141 0.015625)" xlink:href="#DejaVuSans-111"/>
      <use transform="translate(570.800781 0.015625)" xlink:href="#DejaVuSans-100"/>
      <use transform="translate(634.277344 0.015625)" xlink:href="#DejaVuSans-101"/>
      <use transform="translate(695.800781 0.015625)" xlink:href="#DejaVuSans-100"/>
      <use transform="translate(759.277344 0.015625)" xlink:href="#DejaVuSans-32"/>
      <use transform="translate(791.064453 0.015625)" xlink:href="#DejaVuSans-100"/>
      <use transform="translate(854.541016 0.015625)" xlink:href="#DejaVuSans-97"/>
      <use transform="translate(915.820312 0.015625)" xlink:href="#DejaVuSans-116"/>
      <use transform="translate(955.029297 0.015625)" xlink:href="#DejaVuSans-97"/>
     </g>
    </g>
    <g id="PathCollection_4">
     <g>
      <use style="fill:#1f77b4;stroke:#1f77b4;" x="410.38125" xlink:href="#m803922c2cd" y="188.442187"/>
     </g>
    </g>
    <g id="text_20">
     <!-- Measurement data for zoomed in Forward -->
     <g transform="translate(428.38125 191.067187)scale(0.1 -0.1)">
      <use xlink:href="#DejaVuSans-77"/>
      <use x="86.279297" xlink:href="#DejaVuSans-101"/>
      <use x="147.802734" xlink:href="#DejaVuSans-97"/>
      <use x="209.082031" xlink:href="#DejaVuSans-115"/>
      <use x="261.181641" xlink:href="#DejaVuSans-117"/>
      <use x="324.560547" xlink:href="#DejaVuSans-114"/>
      <use x="365.642578" xlink:href="#DejaVuSans-101"/>
      <use x="427.166016" xlink:href="#DejaVuSans-109"/>
      <use x="524.578125" xlink:href="#DejaVuSans-101"/>
      <use x="586.101562" xlink:href="#DejaVuSans-110"/>
      <use x="649.480469" xlink:href="#DejaVuSans-116"/>
      <use x="688.689453" xlink:href="#DejaVuSans-32"/>
      <use x="720.476562" xlink:href="#DejaVuSans-100"/>
      <use x="783.953125" xlink:href="#DejaVuSans-97"/>
      <use x="845.232422" xlink:href="#DejaVuSans-116"/>
      <use x="884.441406" xlink:href="#DejaVuSans-97"/>
      <use x="945.720703" xlink:href="#DejaVuSans-32"/>
      <use x="977.507812" xlink:href="#DejaVuSans-102"/>
      <use x="1012.712891" xlink:href="#DejaVuSans-111"/>
      <use x="1073.894531" xlink:href="#DejaVuSans-114"/>
      <use x="1115.007812" xlink:href="#DejaVuSans-32"/>
      <use x="1146.794922" xlink:href="#DejaVuSans-122"/>
      <use x="1199.285156" xlink:href="#DejaVuSans-111"/>
      <use x="1260.466797" xlink:href="#DejaVuSans-111"/>
      <use x="1321.648438" xlink:href="#DejaVuSans-109"/>
      <use x="1419.060547" xlink:href="#DejaVuSans-101"/>
      <use x="1480.583984" xlink:href="#DejaVuSans-100"/>
      <use x="1544.060547" xlink:href="#DejaVuSans-32"/>
      <use x="1575.847656" xlink:href="#DejaVuSans-105"/>
      <use x="1603.630859" xlink:href="#DejaVuSans-110"/>
      <use x="1667.009766" xlink:href="#DejaVuSans-32"/>
      <use x="1698.796875" xlink:href="#DejaVuSans-70"/>
      <use x="1756.269531" xlink:href="#DejaVuSans-111"/>
      <use x="1817.451172" xlink:href="#DejaVuSans-114"/>
      <use x="1858.564453" xlink:href="#DejaVuSans-119"/>
      <use x="1940.351562" xlink:href="#DejaVuSans-97"/>
      <use x="2001.630859" xlink:href="#DejaVuSans-114"/>
      <use x="2042.728516" xlink:href="#DejaVuSans-100"/>
     </g>
    </g>
    <g id="PathCollection_5">
     <g>
      <use style="fill:#ff7f0e;stroke:#ff7f0e;" x="410.38125" xlink:href="#m73923e1680" y="203.120312"/>
     </g>
    </g>
    <g id="text_21">
     <!-- Encoded data for zoomed in Forward -->
     <g transform="translate(428.38125 205.745312)scale(0.1 -0.1)">
      <use xlink:href="#DejaVuSans-69"/>
      <use x="63.183594" xlink:href="#DejaVuSans-110"/>
      <use x="126.5625" xlink:href="#DejaVuSans-99"/>
      <use x="181.542969" xlink:href="#DejaVuSans-111"/>
      <use x="242.724609" xlink:href="#DejaVuSans-100"/>
      <use x="306.201172" xlink:href="#DejaVuSans-101"/>
      <use x="367.724609" xlink:href="#DejaVuSans-100"/>
      <use x="431.201172" xlink:href="#DejaVuSans-32"/>
      <use x="462.988281" xlink:href="#DejaVuSans-100"/>
      <use x="526.464844" xlink:href="#DejaVuSans-97"/>
      <use x="587.744141" xlink:href="#DejaVuSans-116"/>
      <use x="626.953125" xlink:href="#DejaVuSans-97"/>
      <use x="688.232422" xlink:href="#DejaVuSans-32"/>
      <use x="720.019531" xlink:href="#DejaVuSans-102"/>
      <use x="755.224609" xlink:href="#DejaVuSans-111"/>
      <use x="816.40625" xlink:href="#DejaVuSans-114"/>
      <use x="857.519531" xlink:href="#DejaVuSans-32"/>
      <use x="889.306641" xlink:href="#DejaVuSans-122"/>
      <use x="941.796875" xlink:href="#DejaVuSans-111"/>
      <use x="1002.978516" xlink:href="#DejaVuSans-111"/>
      <use x="1064.160156" xlink:href="#DejaVuSans-109"/>
      <use x="1161.572266" xlink:href="#DejaVuSans-101"/>
      <use x="1223.095703" xlink:href="#DejaVuSans-100"/>
      <use x="1286.572266" xlink:href="#DejaVuSans-32"/>
      <use x="1318.359375" xlink:href="#DejaVuSans-105"/>
      <use x="1346.142578" xlink:href="#DejaVuSans-110"/>
      <use x="1409.521484" xlink:href="#DejaVuSans-32"/>
      <use x="1441.308594" xlink:href="#DejaVuSans-70"/>
      <use x="1498.78125" xlink:href="#DejaVuSans-111"/>
      <use x="1559.962891" xlink:href="#DejaVuSans-114"/>
      <use x="1601.076172" xlink:href="#DejaVuSans-119"/>
      <use x="1682.863281" xlink:href="#DejaVuSans-97"/>
      <use x="1744.142578" xlink:href="#DejaVuSans-114"/>
      <use x="1785.240234" xlink:href="#DejaVuSans-100"/>
     </g>
    </g>
   </g>
  </g>
 </g>
 <defs>
  <clipPath id="p20fc3f53f5">
   <rect height="543.6" width="558" x="90" y="86.4"/>
  </clipPath>
 </defs>
</svg>
