<?xml version="1.0" encoding="utf-8" standalone="no"?>
<!DOCTYPE svg PUBLIC "-//W3C//DTD SVG 1.1//EN"
  "http://www.w3.org/Graphics/SVG/1.1/DTD/svg11.dtd">
<!-- Created with matplotlib (https://matplotlib.org/) -->
<svg height="720pt" version="1.1" viewBox="0 0 720 720" width="720pt" xmlns="http://www.w3.org/2000/svg" xmlns:xlink="http://www.w3.org/1999/xlink">
 <defs>
  <style type="text/css">
*{stroke-linecap:butt;stroke-linejoin:round;}
  </style>
 </defs>
 <g id="figure_1">
  <g id="patch_1">
   <path d="M 0 720 
L 720 720 
L 720 0 
L 0 0 
z
" style="fill:#ffffff;"/>
  </g>
  <g id="axes_1">
   <g id="patch_2">
    <path d="M 90 630 
L 648 630 
L 648 86.4 
L 90 86.4 
z
" style="fill:#ffffff;"/>
   </g>
   <g id="PathCollection_1">
    <defs>
     <path d="M 0 1.581139 
C 0.419323 1.581139 0.821528 1.41454 1.118034 1.118034 
C 1.41454 0.821528 1.581139 0.419323 1.581139 0 
C 1.581139 -0.419323 1.41454 -0.821528 1.118034 -1.118034 
C 0.821528 -1.41454 0.419323 -1.581139 0 -1.581139 
C -0.419323 -1.581139 -0.821528 -1.41454 -1.118034 -1.118034 
C -1.41454 -0.821528 -1.581139 -0.419323 -1.581139 0 
C -1.581139 0.419323 -1.41454 0.821528 -1.118034 1.118034 
C -0.821528 1.41454 -0.419323 1.581139 0 1.581139 
z
" id="mb9ea432dd0" style="stroke:#1f77b4;"/>
    </defs>
    <g clip-path="url(#p40609290ba)">
     <use style="fill:#1f77b4;stroke:#1f77b4;" x="371.64158" xlink:href="#mb9ea432dd0" y="212.399259"/>
     <use style="fill:#1f77b4;stroke:#1f77b4;" x="359.128831" xlink:href="#mb9ea432dd0" y="209.618648"/>
     <use style="fill:#1f77b4;stroke:#1f77b4;" x="363.9949" xlink:href="#mb9ea432dd0" y="209.618648"/>
     <use style="fill:#1f77b4;stroke:#1f77b4;" x="363.299748" xlink:href="#mb9ea432dd0" y="204.752579"/>
     <use style="fill:#1f77b4;stroke:#1f77b4;" x="370.251275" xlink:href="#mb9ea432dd0" y="213.094412"/>
     <use style="fill:#1f77b4;stroke:#1f77b4;" x="366.080359" xlink:href="#mb9ea432dd0" y="219.350786"/>
     <use style="fill:#1f77b4;stroke:#1f77b4;" x="369.556122" xlink:href="#mb9ea432dd0" y="211.704106"/>
     <use style="fill:#1f77b4;stroke:#1f77b4;" x="368.860969" xlink:href="#mb9ea432dd0" y="217.265328"/>
     <use style="fill:#1f77b4;stroke:#1f77b4;" x="365.385206" xlink:href="#mb9ea432dd0" y="213.094412"/>
     <use style="fill:#1f77b4;stroke:#1f77b4;" x="367.470664" xlink:href="#mb9ea432dd0" y="207.53319"/>
     <use style="fill:#1f77b4;stroke:#1f77b4;" x="374.422191" xlink:href="#mb9ea432dd0" y="207.53319"/>
     <use style="fill:#1f77b4;stroke:#1f77b4;" x="375.117344" xlink:href="#mb9ea432dd0" y="202.667121"/>
     <use style="fill:#1f77b4;stroke:#1f77b4;" x="372.336733" xlink:href="#mb9ea432dd0" y="212.399259"/>
     <use style="fill:#1f77b4;stroke:#1f77b4;" x="374.422191" xlink:href="#mb9ea432dd0" y="211.008953"/>
     <use style="fill:#1f77b4;stroke:#1f77b4;" x="363.299748" xlink:href="#mb9ea432dd0" y="210.313801"/>
     <use style="fill:#1f77b4;stroke:#1f77b4;" x="370.251275" xlink:href="#mb9ea432dd0" y="211.008953"/>
     <use style="fill:#1f77b4;stroke:#1f77b4;" x="377.202802" xlink:href="#mb9ea432dd0" y="203.362273"/>
     <use style="fill:#1f77b4;stroke:#1f77b4;" x="377.897955" xlink:href="#mb9ea432dd0" y="204.057426"/>
     <use style="fill:#1f77b4;stroke:#1f77b4;" x="363.9949" xlink:href="#mb9ea432dd0" y="213.094412"/>
     <use style="fill:#1f77b4;stroke:#1f77b4;" x="365.385206" xlink:href="#mb9ea432dd0" y="202.667121"/>
    </g>
   </g>
   <g id="PathCollection_2">
    <defs>
     <path d="M 0 1.581139 
C 0.419323 1.581139 0.821528 1.41454 1.118034 1.118034 
C 1.41454 0.821528 1.581139 0.419323 1.581139 0 
C 1.581139 -0.419323 1.41454 -0.821528 1.118034 -1.118034 
C 0.821528 -1.41454 0.419323 -1.581139 0 -1.581139 
C -0.419323 -1.581139 -0.821528 -1.41454 -1.118034 -1.118034 
C -1.41454 -0.821528 -1.581139 -0.419323 -1.581139 0 
C -1.581139 0.419323 -1.41454 0.821528 -1.118034 1.118034 
C -0.821528 1.41454 -0.419323 1.581139 0 1.581139 
z
" id="ma30cbc96c6" style="stroke:#ff7f0e;"/>
    </defs>
    <g clip-path="url(#p40609290ba)">
     <use style="fill:#ff7f0e;stroke:#ff7f0e;" x="365.385206" xlink:href="#ma30cbc96c6" y="197.105899"/>
     <use style="fill:#ff7f0e;stroke:#ff7f0e;" x="366.775511" xlink:href="#ma30cbc96c6" y="200.581662"/>
     <use style="fill:#ff7f0e;stroke:#ff7f0e;" x="365.385206" xlink:href="#ma30cbc96c6" y="201.971968"/>
     <use style="fill:#ff7f0e;stroke:#ff7f0e;" x="366.775511" xlink:href="#ma30cbc96c6" y="197.801051"/>
     <use style="fill:#ff7f0e;stroke:#ff7f0e;" x="366.775511" xlink:href="#ma30cbc96c6" y="204.057426"/>
     <use style="fill:#ff7f0e;stroke:#ff7f0e;" x="366.080359" xlink:href="#ma30cbc96c6" y="201.971968"/>
     <use style="fill:#ff7f0e;stroke:#ff7f0e;" x="367.470664" xlink:href="#ma30cbc96c6" y="204.057426"/>
     <use style="fill:#ff7f0e;stroke:#ff7f0e;" x="367.470664" xlink:href="#ma30cbc96c6" y="198.496204"/>
     <use style="fill:#ff7f0e;stroke:#ff7f0e;" x="366.775511" xlink:href="#ma30cbc96c6" y="204.752579"/>
     <use style="fill:#ff7f0e;stroke:#ff7f0e;" x="364.690053" xlink:href="#ma30cbc96c6" y="189.459219"/>
     <use style="fill:#ff7f0e;stroke:#ff7f0e;" x="367.470664" xlink:href="#ma30cbc96c6" y="205.447732"/>
     <use style="fill:#ff7f0e;stroke:#ff7f0e;" x="366.080359" xlink:href="#ma30cbc96c6" y="198.496204"/>
     <use style="fill:#ff7f0e;stroke:#ff7f0e;" x="366.775511" xlink:href="#ma30cbc96c6" y="204.057426"/>
     <use style="fill:#ff7f0e;stroke:#ff7f0e;" x="366.080359" xlink:href="#ma30cbc96c6" y="200.581662"/>
     <use style="fill:#ff7f0e;stroke:#ff7f0e;" x="366.080359" xlink:href="#ma30cbc96c6" y="203.362273"/>
     <use style="fill:#ff7f0e;stroke:#ff7f0e;" x="366.080359" xlink:href="#ma30cbc96c6" y="204.057426"/>
     <use style="fill:#ff7f0e;stroke:#ff7f0e;" x="367.470664" xlink:href="#ma30cbc96c6" y="210.313801"/>
     <use style="fill:#ff7f0e;stroke:#ff7f0e;" x="367.470664" xlink:href="#ma30cbc96c6" y="207.53319"/>
     <use style="fill:#ff7f0e;stroke:#ff7f0e;" x="366.775511" xlink:href="#ma30cbc96c6" y="204.057426"/>
     <use style="fill:#ff7f0e;stroke:#ff7f0e;" x="366.775511" xlink:href="#ma30cbc96c6" y="206.142884"/>
     <use style="fill:#ff7f0e;stroke:#ff7f0e;" x="366.080359" xlink:href="#ma30cbc96c6" y="197.105899"/>
    </g>
   </g>
   <g id="PathCollection_3">
    <defs>
     <path d="M 0 0.866025 
C 0.229673 0.866025 0.449969 0.774776 0.612372 0.612372 
C 0.774776 0.449969 0.866025 0.229673 0.866025 0 
C 0.866025 -0.229673 0.774776 -0.449969 0.612372 -0.612372 
C 0.449969 -0.774776 0.229673 -0.866025 0 -0.866025 
C -0.229673 -0.866025 -0.449969 -0.774776 -0.612372 -0.612372 
C -0.774776 -0.449969 -0.866025 -0.229673 -0.866025 0 
C -0.866025 0.229673 -0.774776 0.449969 -0.612372 0.612372 
C -0.449969 0.774776 -0.229673 0.866025 0 0.866025 
z
" id="m1dcc7fa23e" style="stroke:#ff0000;"/>
    </defs>
    <g clip-path="url(#p40609290ba)">
     <use style="fill:#ff0000;stroke:#ff0000;" x="367.470664" xlink:href="#m1dcc7fa23e" y="527.9986"/>
    </g>
   </g>
   <g id="patch_3">
    <path clip-path="url(#p40609290ba)" d="M 366.675738 206.424532 
C 365.44208 207.267209 364.503683 208.434012 364.067217 209.667965 
C 363.630751 210.901918 363.731852 212.102275 364.348253 213.004671 
C 364.964655 213.907067 366.04603 214.437826 367.35422 214.480054 
C 368.662409 214.522282 370.090604 214.072532 371.324262 213.229855 
C 372.55792 212.387178 373.496317 211.220376 373.932783 209.986423 
C 374.369249 208.75247 374.268148 207.552113 373.651747 206.649717 
C 373.035345 205.74732 371.95397 205.216561 370.64578 205.174333 
C 369.337591 205.132105 367.909396 205.581856 366.675738 206.424532 
z
" style="fill:none;stroke:#b22222;stroke-linejoin:miter;"/>
   </g>
   <g id="patch_4">
    <path clip-path="url(#p40609290ba)" d="M 364.351476 203.021871 
C 361.88416 204.707225 360.007366 207.040829 359.134434 209.508736 
C 358.261501 211.976642 358.463703 214.377356 359.696506 216.182148 
C 360.929309 217.986941 363.092061 219.048459 365.708439 219.132915 
C 368.324818 219.217371 371.181209 218.31787 373.648524 216.632516 
C 376.11584 214.947163 377.992634 212.613558 378.865566 210.145652 
C 379.738499 207.677746 379.536297 205.277032 378.303494 203.472239 
C 377.070691 201.667447 374.907939 200.605929 372.291561 200.521473 
C 369.675182 200.437016 366.818791 201.336518 364.351476 203.021871 
z
" style="fill:none;stroke:#b22222;stroke-linejoin:miter;"/>
   </g>
   <g id="patch_5">
    <path clip-path="url(#p40609290ba)" d="M 362.027214 199.61921 
C 358.326241 202.14724 355.511048 205.647647 354.20165 209.349506 
C 352.892252 213.051366 353.195555 216.652437 355.044759 219.359626 
C 356.893964 222.066815 360.138091 223.659091 364.062659 223.785776 
C 367.987227 223.91246 372.271813 222.563208 375.972786 220.035178 
C 379.673759 217.507147 382.488952 214.00674 383.79835 210.304881 
C 385.107748 206.603022 384.804445 203.001951 382.955241 200.294762 
C 381.106036 197.587573 377.861909 195.995296 373.937341 195.868612 
C 370.012773 195.741928 365.728187 197.091179 362.027214 199.61921 
z
" style="fill:none;stroke:#b22222;stroke-linejoin:miter;"/>
   </g>
   <g id="patch_6">
    <path clip-path="url(#p40609290ba)" d="M 367.067288 201.905468 
C 366.923711 200.703739 366.727349 199.558075 366.521449 198.720795 
C 366.315548 197.883515 366.116919 197.422979 365.969308 197.440614 
C 365.821696 197.45825 365.737155 197.952618 365.734302 198.814839 
C 365.731449 199.67706 365.810518 200.836738 365.954094 202.038467 
C 366.097671 203.240196 366.294033 204.385861 366.499934 205.223141 
C 366.705835 206.060421 366.904463 206.520957 367.052075 206.503321 
C 367.199686 206.485685 367.284228 205.991318 367.28708 205.129096 
C 367.289933 204.266875 367.210865 203.107197 367.067288 201.905468 
z
" style="fill:none;stroke:#0000ff;stroke-linejoin:miter;"/>
   </g>
   <g id="patch_7">
    <path clip-path="url(#p40609290ba)" d="M 367.623885 201.838969 
C 367.336732 199.435511 366.944008 197.144183 366.532206 195.469622 
C 366.120404 193.795061 365.723147 192.873989 365.427924 192.909261 
C 365.132702 192.944533 364.963618 193.933268 364.957913 195.657711 
C 364.952207 197.382153 365.110344 199.701509 365.397498 202.104967 
C 365.684651 204.508425 366.077375 206.799753 366.489176 208.474314 
C 366.900978 210.148874 367.298236 211.069946 367.593458 211.034675 
C 367.888681 210.999403 368.057764 210.010667 368.06347 208.286225 
C 368.069176 206.561783 367.911038 204.242427 367.623885 201.838969 
z
" style="fill:none;stroke:#0000ff;stroke-linejoin:miter;"/>
   </g>
   <g id="patch_8">
    <path clip-path="url(#p40609290ba)" d="M 368.180482 201.77247 
C 367.749752 198.167283 367.160666 194.73029 366.542963 192.218449 
C 365.925261 189.706608 365.329374 188.325 364.886541 188.377908 
C 364.443707 188.430815 364.190082 189.913919 364.181523 192.500582 
C 364.172965 195.087246 364.410171 198.566279 364.840901 202.171466 
C 365.271631 205.776653 365.860716 209.213646 366.478419 211.725487 
C 367.096121 214.237328 367.692008 215.618936 368.134842 215.566028 
C 368.577675 215.513121 368.8313 214.030017 368.839859 211.443354 
C 368.848418 208.85669 368.611211 205.377657 368.180482 201.77247 
z
" style="fill:none;stroke:#0000ff;stroke-linejoin:miter;"/>
   </g>
   <g id="matplotlib.axis_1">
    <g id="xtick_1">
     <g id="line2d_1">
      <path clip-path="url(#p40609290ba)" d="M 158.924844 630 
L 158.924844 86.4 
" style="fill:none;stroke:#b0b0b0;stroke-linecap:square;stroke-width:0.8;"/>
     </g>
     <g id="line2d_2">
      <defs>
       <path d="M 0 0 
L 0 3.5 
" id="m01ca6ccc30" style="stroke:#000000;stroke-width:0.8;"/>
      </defs>
      <g>
       <use style="stroke:#000000;stroke-width:0.8;" x="158.924844" xlink:href="#m01ca6ccc30" y="630"/>
      </g>
     </g>
     <g id="text_1">
      <!-- −300 -->
      <defs>
       <path d="M 10.59375 35.5 
L 73.1875 35.5 
L 73.1875 27.203125 
L 10.59375 27.203125 
z
" id="DejaVuSans-8722"/>
       <path d="M 40.578125 39.3125 
Q 47.65625 37.796875 51.625 33 
Q 55.609375 28.21875 55.609375 21.1875 
Q 55.609375 10.40625 48.1875 4.484375 
Q 40.765625 -1.421875 27.09375 -1.421875 
Q 22.515625 -1.421875 17.65625 -0.515625 
Q 12.796875 0.390625 7.625 2.203125 
L 7.625 11.71875 
Q 11.71875 9.328125 16.59375 8.109375 
Q 21.484375 6.890625 26.8125 6.890625 
Q 36.078125 6.890625 40.9375 10.546875 
Q 45.796875 14.203125 45.796875 21.1875 
Q 45.796875 27.640625 41.28125 31.265625 
Q 36.765625 34.90625 28.71875 34.90625 
L 20.21875 34.90625 
L 20.21875 43.015625 
L 29.109375 43.015625 
Q 36.375 43.015625 40.234375 45.921875 
Q 44.09375 48.828125 44.09375 54.296875 
Q 44.09375 59.90625 40.109375 62.90625 
Q 36.140625 65.921875 28.71875 65.921875 
Q 24.65625 65.921875 20.015625 65.03125 
Q 15.375 64.15625 9.8125 62.3125 
L 9.8125 71.09375 
Q 15.4375 72.65625 20.34375 73.4375 
Q 25.25 74.21875 29.59375 74.21875 
Q 40.828125 74.21875 47.359375 69.109375 
Q 53.90625 64.015625 53.90625 55.328125 
Q 53.90625 49.265625 50.4375 45.09375 
Q 46.96875 40.921875 40.578125 39.3125 
z
" id="DejaVuSans-51"/>
       <path d="M 31.78125 66.40625 
Q 24.171875 66.40625 20.328125 58.90625 
Q 16.5 51.421875 16.5 36.375 
Q 16.5 21.390625 20.328125 13.890625 
Q 24.171875 6.390625 31.78125 6.390625 
Q 39.453125 6.390625 43.28125 13.890625 
Q 47.125 21.390625 47.125 36.375 
Q 47.125 51.421875 43.28125 58.90625 
Q 39.453125 66.40625 31.78125 66.40625 
z
M 31.78125 74.21875 
Q 44.046875 74.21875 50.515625 64.515625 
Q 56.984375 54.828125 56.984375 36.375 
Q 56.984375 17.96875 50.515625 8.265625 
Q 44.046875 -1.421875 31.78125 -1.421875 
Q 19.53125 -1.421875 13.0625 8.265625 
Q 6.59375 17.96875 6.59375 36.375 
Q 6.59375 54.828125 13.0625 64.515625 
Q 19.53125 74.21875 31.78125 74.21875 
z
" id="DejaVuSans-48"/>
      </defs>
      <g transform="translate(145.19125 644.598438)scale(0.1 -0.1)">
       <use xlink:href="#DejaVuSans-8722"/>
       <use x="83.789062" xlink:href="#DejaVuSans-51"/>
       <use x="147.412109" xlink:href="#DejaVuSans-48"/>
       <use x="211.035156" xlink:href="#DejaVuSans-48"/>
      </g>
     </g>
    </g>
    <g id="xtick_2">
     <g id="line2d_3">
      <path clip-path="url(#p40609290ba)" d="M 228.440117 630 
L 228.440117 86.4 
" style="fill:none;stroke:#b0b0b0;stroke-linecap:square;stroke-width:0.8;"/>
     </g>
     <g id="line2d_4">
      <g>
       <use style="stroke:#000000;stroke-width:0.8;" x="228.440117" xlink:href="#m01ca6ccc30" y="630"/>
      </g>
     </g>
     <g id="text_2">
      <!-- −200 -->
      <defs>
       <path d="M 19.1875 8.296875 
L 53.609375 8.296875 
L 53.609375 0 
L 7.328125 0 
L 7.328125 8.296875 
Q 12.9375 14.109375 22.625 23.890625 
Q 32.328125 33.6875 34.8125 36.53125 
Q 39.546875 41.84375 41.421875 45.53125 
Q 43.3125 49.21875 43.3125 52.78125 
Q 43.3125 58.59375 39.234375 62.25 
Q 35.15625 65.921875 28.609375 65.921875 
Q 23.96875 65.921875 18.8125 64.3125 
Q 13.671875 62.703125 7.8125 59.421875 
L 7.8125 69.390625 
Q 13.765625 71.78125 18.9375 73 
Q 24.125 74.21875 28.421875 74.21875 
Q 39.75 74.21875 46.484375 68.546875 
Q 53.21875 62.890625 53.21875 53.421875 
Q 53.21875 48.921875 51.53125 44.890625 
Q 49.859375 40.875 45.40625 35.40625 
Q 44.1875 33.984375 37.640625 27.21875 
Q 31.109375 20.453125 19.1875 8.296875 
z
" id="DejaVuSans-50"/>
      </defs>
      <g transform="translate(214.706524 644.598438)scale(0.1 -0.1)">
       <use xlink:href="#DejaVuSans-8722"/>
       <use x="83.789062" xlink:href="#DejaVuSans-50"/>
       <use x="147.412109" xlink:href="#DejaVuSans-48"/>
       <use x="211.035156" xlink:href="#DejaVuSans-48"/>
      </g>
     </g>
    </g>
    <g id="xtick_3">
     <g id="line2d_5">
      <path clip-path="url(#p40609290ba)" d="M 297.955391 630 
L 297.955391 86.4 
" style="fill:none;stroke:#b0b0b0;stroke-linecap:square;stroke-width:0.8;"/>
     </g>
     <g id="line2d_6">
      <g>
       <use style="stroke:#000000;stroke-width:0.8;" x="297.955391" xlink:href="#m01ca6ccc30" y="630"/>
      </g>
     </g>
     <g id="text_3">
      <!-- −100 -->
      <defs>
       <path d="M 12.40625 8.296875 
L 28.515625 8.296875 
L 28.515625 63.921875 
L 10.984375 60.40625 
L 10.984375 69.390625 
L 28.421875 72.90625 
L 38.28125 72.90625 
L 38.28125 8.296875 
L 54.390625 8.296875 
L 54.390625 0 
L 12.40625 0 
z
" id="DejaVuSans-49"/>
      </defs>
      <g transform="translate(284.221797 644.598438)scale(0.1 -0.1)">
       <use xlink:href="#DejaVuSans-8722"/>
       <use x="83.789062" xlink:href="#DejaVuSans-49"/>
       <use x="147.412109" xlink:href="#DejaVuSans-48"/>
       <use x="211.035156" xlink:href="#DejaVuSans-48"/>
      </g>
     </g>
    </g>
    <g id="xtick_4">
     <g id="line2d_7">
      <path clip-path="url(#p40609290ba)" d="M 367.470664 630 
L 367.470664 86.4 
" style="fill:none;stroke:#b0b0b0;stroke-linecap:square;stroke-width:0.8;"/>
     </g>
     <g id="line2d_8">
      <g>
       <use style="stroke:#000000;stroke-width:0.8;" x="367.470664" xlink:href="#m01ca6ccc30" y="630"/>
      </g>
     </g>
     <g id="text_4">
      <!-- 0 -->
      <g transform="translate(364.289414 644.598438)scale(0.1 -0.1)">
       <use xlink:href="#DejaVuSans-48"/>
      </g>
     </g>
    </g>
    <g id="xtick_5">
     <g id="line2d_9">
      <path clip-path="url(#p40609290ba)" d="M 436.985937 630 
L 436.985937 86.4 
" style="fill:none;stroke:#b0b0b0;stroke-linecap:square;stroke-width:0.8;"/>
     </g>
     <g id="line2d_10">
      <g>
       <use style="stroke:#000000;stroke-width:0.8;" x="436.985937" xlink:href="#m01ca6ccc30" y="630"/>
      </g>
     </g>
     <g id="text_5">
      <!-- 100 -->
      <g transform="translate(427.442187 644.598438)scale(0.1 -0.1)">
       <use xlink:href="#DejaVuSans-49"/>
       <use x="63.623047" xlink:href="#DejaVuSans-48"/>
       <use x="127.246094" xlink:href="#DejaVuSans-48"/>
      </g>
     </g>
    </g>
    <g id="xtick_6">
     <g id="line2d_11">
      <path clip-path="url(#p40609290ba)" d="M 506.501211 630 
L 506.501211 86.4 
" style="fill:none;stroke:#b0b0b0;stroke-linecap:square;stroke-width:0.8;"/>
     </g>
     <g id="line2d_12">
      <g>
       <use style="stroke:#000000;stroke-width:0.8;" x="506.501211" xlink:href="#m01ca6ccc30" y="630"/>
      </g>
     </g>
     <g id="text_6">
      <!-- 200 -->
      <g transform="translate(496.957461 644.598438)scale(0.1 -0.1)">
       <use xlink:href="#DejaVuSans-50"/>
       <use x="63.623047" xlink:href="#DejaVuSans-48"/>
       <use x="127.246094" xlink:href="#DejaVuSans-48"/>
      </g>
     </g>
    </g>
    <g id="xtick_7">
     <g id="line2d_13">
      <path clip-path="url(#p40609290ba)" d="M 576.016484 630 
L 576.016484 86.4 
" style="fill:none;stroke:#b0b0b0;stroke-linecap:square;stroke-width:0.8;"/>
     </g>
     <g id="line2d_14">
      <g>
       <use style="stroke:#000000;stroke-width:0.8;" x="576.016484" xlink:href="#m01ca6ccc30" y="630"/>
      </g>
     </g>
     <g id="text_7">
      <!-- 300 -->
      <g transform="translate(566.472734 644.598438)scale(0.1 -0.1)">
       <use xlink:href="#DejaVuSans-51"/>
       <use x="63.623047" xlink:href="#DejaVuSans-48"/>
       <use x="127.246094" xlink:href="#DejaVuSans-48"/>
      </g>
     </g>
    </g>
    <g id="xtick_8">
     <g id="line2d_15">
      <path clip-path="url(#p40609290ba)" d="M 645.531757 630 
L 645.531757 86.4 
" style="fill:none;stroke:#b0b0b0;stroke-linecap:square;stroke-width:0.8;"/>
     </g>
     <g id="line2d_16">
      <g>
       <use style="stroke:#000000;stroke-width:0.8;" x="645.531757" xlink:href="#m01ca6ccc30" y="630"/>
      </g>
     </g>
     <g id="text_8">
      <!-- 400 -->
      <defs>
       <path d="M 37.796875 64.3125 
L 12.890625 25.390625 
L 37.796875 25.390625 
z
M 35.203125 72.90625 
L 47.609375 72.90625 
L 47.609375 25.390625 
L 58.015625 25.390625 
L 58.015625 17.1875 
L 47.609375 17.1875 
L 47.609375 0 
L 37.796875 0 
L 37.796875 17.1875 
L 4.890625 17.1875 
L 4.890625 26.703125 
z
" id="DejaVuSans-52"/>
      </defs>
      <g transform="translate(635.988007 644.598438)scale(0.1 -0.1)">
       <use xlink:href="#DejaVuSans-52"/>
       <use x="63.623047" xlink:href="#DejaVuSans-48"/>
       <use x="127.246094" xlink:href="#DejaVuSans-48"/>
      </g>
     </g>
    </g>
    <g id="text_9">
     <!-- X (cm) -->
     <defs>
      <path d="M 6.296875 72.90625 
L 16.890625 72.90625 
L 35.015625 45.796875 
L 53.21875 72.90625 
L 63.8125 72.90625 
L 40.375 37.890625 
L 65.375 0 
L 54.78125 0 
L 34.28125 31 
L 13.625 0 
L 2.984375 0 
L 29 38.921875 
z
" id="DejaVuSans-88"/>
      <path id="DejaVuSans-32"/>
      <path d="M 31 75.875 
Q 24.46875 64.65625 21.28125 53.65625 
Q 18.109375 42.671875 18.109375 31.390625 
Q 18.109375 20.125 21.3125 9.0625 
Q 24.515625 -2 31 -13.1875 
L 23.1875 -13.1875 
Q 15.875 -1.703125 12.234375 9.375 
Q 8.59375 20.453125 8.59375 31.390625 
Q 8.59375 42.28125 12.203125 53.3125 
Q 15.828125 64.359375 23.1875 75.875 
z
" id="DejaVuSans-40"/>
      <path d="M 48.78125 52.59375 
L 48.78125 44.1875 
Q 44.96875 46.296875 41.140625 47.34375 
Q 37.3125 48.390625 33.40625 48.390625 
Q 24.65625 48.390625 19.8125 42.84375 
Q 14.984375 37.3125 14.984375 27.296875 
Q 14.984375 17.28125 19.8125 11.734375 
Q 24.65625 6.203125 33.40625 6.203125 
Q 37.3125 6.203125 41.140625 7.25 
Q 44.96875 8.296875 48.78125 10.40625 
L 48.78125 2.09375 
Q 45.015625 0.34375 40.984375 -0.53125 
Q 36.96875 -1.421875 32.421875 -1.421875 
Q 20.0625 -1.421875 12.78125 6.34375 
Q 5.515625 14.109375 5.515625 27.296875 
Q 5.515625 40.671875 12.859375 48.328125 
Q 20.21875 56 33.015625 56 
Q 37.15625 56 41.109375 55.140625 
Q 45.0625 54.296875 48.78125 52.59375 
z
" id="DejaVuSans-99"/>
      <path d="M 52 44.1875 
Q 55.375 50.25 60.0625 53.125 
Q 64.75 56 71.09375 56 
Q 79.640625 56 84.28125 50.015625 
Q 88.921875 44.046875 88.921875 33.015625 
L 88.921875 0 
L 79.890625 0 
L 79.890625 32.71875 
Q 79.890625 40.578125 77.09375 44.375 
Q 74.3125 48.1875 68.609375 48.1875 
Q 61.625 48.1875 57.5625 43.546875 
Q 53.515625 38.921875 53.515625 30.90625 
L 53.515625 0 
L 44.484375 0 
L 44.484375 32.71875 
Q 44.484375 40.625 41.703125 44.40625 
Q 38.921875 48.1875 33.109375 48.1875 
Q 26.21875 48.1875 22.15625 43.53125 
Q 18.109375 38.875 18.109375 30.90625 
L 18.109375 0 
L 9.078125 0 
L 9.078125 54.6875 
L 18.109375 54.6875 
L 18.109375 46.1875 
Q 21.1875 51.21875 25.484375 53.609375 
Q 29.78125 56 35.6875 56 
Q 41.65625 56 45.828125 52.96875 
Q 50 49.953125 52 44.1875 
z
" id="DejaVuSans-109"/>
      <path d="M 8.015625 75.875 
L 15.828125 75.875 
Q 23.140625 64.359375 26.78125 53.3125 
Q 30.421875 42.28125 30.421875 31.390625 
Q 30.421875 20.453125 26.78125 9.375 
Q 23.140625 -1.703125 15.828125 -13.1875 
L 8.015625 -13.1875 
Q 14.5 -2 17.703125 9.0625 
Q 20.90625 20.125 20.90625 31.390625 
Q 20.90625 42.671875 17.703125 53.65625 
Q 14.5 64.65625 8.015625 75.875 
z
" id="DejaVuSans-41"/>
     </defs>
     <g transform="translate(352.464844 658.276562)scale(0.1 -0.1)">
      <use xlink:href="#DejaVuSans-88"/>
      <use x="68.505859" xlink:href="#DejaVuSans-32"/>
      <use x="100.292969" xlink:href="#DejaVuSans-40"/>
      <use x="139.306641" xlink:href="#DejaVuSans-99"/>
      <use x="194.287109" xlink:href="#DejaVuSans-109"/>
      <use x="291.699219" xlink:href="#DejaVuSans-41"/>
     </g>
    </g>
   </g>
   <g id="matplotlib.axis_2">
    <g id="ytick_1">
     <g id="line2d_17">
      <path clip-path="url(#p40609290ba)" d="M 90 597.513873 
L 648 597.513873 
" style="fill:none;stroke:#b0b0b0;stroke-linecap:square;stroke-width:0.8;"/>
     </g>
     <g id="line2d_18">
      <defs>
       <path d="M 0 0 
L -3.5 0 
" id="m34a8bb039f" style="stroke:#000000;stroke-width:0.8;"/>
      </defs>
      <g>
       <use style="stroke:#000000;stroke-width:0.8;" x="90" xlink:href="#m34a8bb039f" y="597.513873"/>
      </g>
     </g>
     <g id="text_10">
      <!-- −100 -->
      <g transform="translate(55.532812 601.313092)scale(0.1 -0.1)">
       <use xlink:href="#DejaVuSans-8722"/>
       <use x="83.789062" xlink:href="#DejaVuSans-49"/>
       <use x="147.412109" xlink:href="#DejaVuSans-48"/>
       <use x="211.035156" xlink:href="#DejaVuSans-48"/>
      </g>
     </g>
    </g>
    <g id="ytick_2">
     <g id="line2d_19">
      <path clip-path="url(#p40609290ba)" d="M 90 527.9986 
L 648 527.9986 
" style="fill:none;stroke:#b0b0b0;stroke-linecap:square;stroke-width:0.8;"/>
     </g>
     <g id="line2d_20">
      <g>
       <use style="stroke:#000000;stroke-width:0.8;" x="90" xlink:href="#m34a8bb039f" y="527.9986"/>
      </g>
     </g>
     <g id="text_11">
      <!-- 0 -->
      <g transform="translate(76.6375 531.797819)scale(0.1 -0.1)">
       <use xlink:href="#DejaVuSans-48"/>
      </g>
     </g>
    </g>
    <g id="ytick_3">
     <g id="line2d_21">
      <path clip-path="url(#p40609290ba)" d="M 90 458.483327 
L 648 458.483327 
" style="fill:none;stroke:#b0b0b0;stroke-linecap:square;stroke-width:0.8;"/>
     </g>
     <g id="line2d_22">
      <g>
       <use style="stroke:#000000;stroke-width:0.8;" x="90" xlink:href="#m34a8bb039f" y="458.483327"/>
      </g>
     </g>
     <g id="text_12">
      <!-- 100 -->
      <g transform="translate(63.9125 462.282545)scale(0.1 -0.1)">
       <use xlink:href="#DejaVuSans-49"/>
       <use x="63.623047" xlink:href="#DejaVuSans-48"/>
       <use x="127.246094" xlink:href="#DejaVuSans-48"/>
      </g>
     </g>
    </g>
    <g id="ytick_4">
     <g id="line2d_23">
      <path clip-path="url(#p40609290ba)" d="M 90 388.968053 
L 648 388.968053 
" style="fill:none;stroke:#b0b0b0;stroke-linecap:square;stroke-width:0.8;"/>
     </g>
     <g id="line2d_24">
      <g>
       <use style="stroke:#000000;stroke-width:0.8;" x="90" xlink:href="#m34a8bb039f" y="388.968053"/>
      </g>
     </g>
     <g id="text_13">
      <!-- 200 -->
      <g transform="translate(63.9125 392.767272)scale(0.1 -0.1)">
       <use xlink:href="#DejaVuSans-50"/>
       <use x="63.623047" xlink:href="#DejaVuSans-48"/>
       <use x="127.246094" xlink:href="#DejaVuSans-48"/>
      </g>
     </g>
    </g>
    <g id="ytick_5">
     <g id="line2d_25">
      <path clip-path="url(#p40609290ba)" d="M 90 319.45278 
L 648 319.45278 
" style="fill:none;stroke:#b0b0b0;stroke-linecap:square;stroke-width:0.8;"/>
     </g>
     <g id="line2d_26">
      <g>
       <use style="stroke:#000000;stroke-width:0.8;" x="90" xlink:href="#m34a8bb039f" y="319.45278"/>
      </g>
     </g>
     <g id="text_14">
      <!-- 300 -->
      <g transform="translate(63.9125 323.251999)scale(0.1 -0.1)">
       <use xlink:href="#DejaVuSans-51"/>
       <use x="63.623047" xlink:href="#DejaVuSans-48"/>
       <use x="127.246094" xlink:href="#DejaVuSans-48"/>
      </g>
     </g>
    </g>
    <g id="ytick_6">
     <g id="line2d_27">
      <path clip-path="url(#p40609290ba)" d="M 90 249.937507 
L 648 249.937507 
" style="fill:none;stroke:#b0b0b0;stroke-linecap:square;stroke-width:0.8;"/>
     </g>
     <g id="line2d_28">
      <g>
       <use style="stroke:#000000;stroke-width:0.8;" x="90" xlink:href="#m34a8bb039f" y="249.937507"/>
      </g>
     </g>
     <g id="text_15">
      <!-- 400 -->
      <g transform="translate(63.9125 253.736725)scale(0.1 -0.1)">
       <use xlink:href="#DejaVuSans-52"/>
       <use x="63.623047" xlink:href="#DejaVuSans-48"/>
       <use x="127.246094" xlink:href="#DejaVuSans-48"/>
      </g>
     </g>
    </g>
    <g id="ytick_7">
     <g id="line2d_29">
      <path clip-path="url(#p40609290ba)" d="M 90 180.422233 
L 648 180.422233 
" style="fill:none;stroke:#b0b0b0;stroke-linecap:square;stroke-width:0.8;"/>
     </g>
     <g id="line2d_30">
      <g>
       <use style="stroke:#000000;stroke-width:0.8;" x="90" xlink:href="#m34a8bb039f" y="180.422233"/>
      </g>
     </g>
     <g id="text_16">
      <!-- 500 -->
      <defs>
       <path d="M 10.796875 72.90625 
L 49.515625 72.90625 
L 49.515625 64.59375 
L 19.828125 64.59375 
L 19.828125 46.734375 
Q 21.96875 47.46875 24.109375 47.828125 
Q 26.265625 48.1875 28.421875 48.1875 
Q 40.625 48.1875 47.75 41.5 
Q 54.890625 34.8125 54.890625 23.390625 
Q 54.890625 11.625 47.5625 5.09375 
Q 40.234375 -1.421875 26.90625 -1.421875 
Q 22.3125 -1.421875 17.546875 -0.640625 
Q 12.796875 0.140625 7.71875 1.703125 
L 7.71875 11.625 
Q 12.109375 9.234375 16.796875 8.0625 
Q 21.484375 6.890625 26.703125 6.890625 
Q 35.15625 6.890625 40.078125 11.328125 
Q 45.015625 15.765625 45.015625 23.390625 
Q 45.015625 31 40.078125 35.4375 
Q 35.15625 39.890625 26.703125 39.890625 
Q 22.75 39.890625 18.8125 39.015625 
Q 14.890625 38.140625 10.796875 36.28125 
z
" id="DejaVuSans-53"/>
      </defs>
      <g transform="translate(63.9125 184.221452)scale(0.1 -0.1)">
       <use xlink:href="#DejaVuSans-53"/>
       <use x="63.623047" xlink:href="#DejaVuSans-48"/>
       <use x="127.246094" xlink:href="#DejaVuSans-48"/>
      </g>
     </g>
    </g>
    <g id="ytick_8">
     <g id="line2d_31">
      <path clip-path="url(#p40609290ba)" d="M 90 110.90696 
L 648 110.90696 
" style="fill:none;stroke:#b0b0b0;stroke-linecap:square;stroke-width:0.8;"/>
     </g>
     <g id="line2d_32">
      <g>
       <use style="stroke:#000000;stroke-width:0.8;" x="90" xlink:href="#m34a8bb039f" y="110.90696"/>
      </g>
     </g>
     <g id="text_17">
      <!-- 600 -->
      <defs>
       <path d="M 33.015625 40.375 
Q 26.375 40.375 22.484375 35.828125 
Q 18.609375 31.296875 18.609375 23.390625 
Q 18.609375 15.53125 22.484375 10.953125 
Q 26.375 6.390625 33.015625 6.390625 
Q 39.65625 6.390625 43.53125 10.953125 
Q 47.40625 15.53125 47.40625 23.390625 
Q 47.40625 31.296875 43.53125 35.828125 
Q 39.65625 40.375 33.015625 40.375 
z
M 52.59375 71.296875 
L 52.59375 62.3125 
Q 48.875 64.0625 45.09375 64.984375 
Q 41.3125 65.921875 37.59375 65.921875 
Q 27.828125 65.921875 22.671875 59.328125 
Q 17.53125 52.734375 16.796875 39.40625 
Q 19.671875 43.65625 24.015625 45.921875 
Q 28.375 48.1875 33.59375 48.1875 
Q 44.578125 48.1875 50.953125 41.515625 
Q 57.328125 34.859375 57.328125 23.390625 
Q 57.328125 12.15625 50.6875 5.359375 
Q 44.046875 -1.421875 33.015625 -1.421875 
Q 20.359375 -1.421875 13.671875 8.265625 
Q 6.984375 17.96875 6.984375 36.375 
Q 6.984375 53.65625 15.1875 63.9375 
Q 23.390625 74.21875 37.203125 74.21875 
Q 40.921875 74.21875 44.703125 73.484375 
Q 48.484375 72.75 52.59375 71.296875 
z
" id="DejaVuSans-54"/>
      </defs>
      <g transform="translate(63.9125 114.706179)scale(0.1 -0.1)">
       <use xlink:href="#DejaVuSans-54"/>
       <use x="63.623047" xlink:href="#DejaVuSans-48"/>
       <use x="127.246094" xlink:href="#DejaVuSans-48"/>
      </g>
     </g>
    </g>
    <g id="text_18">
     <!-- Y (cm) -->
     <defs>
      <path d="M -0.203125 72.90625 
L 10.40625 72.90625 
L 30.609375 42.921875 
L 50.6875 72.90625 
L 61.28125 72.90625 
L 35.5 34.71875 
L 35.5 0 
L 25.59375 0 
L 25.59375 34.71875 
z
" id="DejaVuSans-89"/>
     </defs>
     <g transform="translate(49.453125 374.364062)rotate(-90)scale(0.1 -0.1)">
      <use xlink:href="#DejaVuSans-89"/>
      <use x="61.083984" xlink:href="#DejaVuSans-32"/>
      <use x="92.871094" xlink:href="#DejaVuSans-40"/>
      <use x="131.884766" xlink:href="#DejaVuSans-99"/>
      <use x="186.865234" xlink:href="#DejaVuSans-109"/>
      <use x="284.277344" xlink:href="#DejaVuSans-41"/>
     </g>
    </g>
   </g>
   <g id="patch_9">
    <path d="M 90 630 
L 90 86.4 
" style="fill:none;stroke:#000000;stroke-linecap:square;stroke-linejoin:miter;stroke-width:0.8;"/>
   </g>
   <g id="patch_10">
    <path d="M 648 630 
L 648 86.4 
" style="fill:none;stroke:#000000;stroke-linecap:square;stroke-linejoin:miter;stroke-width:0.8;"/>
   </g>
   <g id="patch_11">
    <path d="M 90 630 
L 648 630 
" style="fill:none;stroke:#000000;stroke-linecap:square;stroke-linejoin:miter;stroke-width:0.8;"/>
   </g>
   <g id="patch_12">
    <path d="M 90 86.4 
L 648 86.4 
" style="fill:none;stroke:#000000;stroke-linecap:square;stroke-linejoin:miter;stroke-width:0.8;"/>
   </g>
   <g id="text_19">
    <!-- Uncertainty Ellipse for Measurements of Forward Run -->
    <defs>
     <path d="M 8.6875 72.90625 
L 18.609375 72.90625 
L 18.609375 28.609375 
Q 18.609375 16.890625 22.84375 11.734375 
Q 27.09375 6.59375 36.625 6.59375 
Q 46.09375 6.59375 50.34375 11.734375 
Q 54.59375 16.890625 54.59375 28.609375 
L 54.59375 72.90625 
L 64.5 72.90625 
L 64.5 27.390625 
Q 64.5 13.140625 57.4375 5.859375 
Q 50.390625 -1.421875 36.625 -1.421875 
Q 22.796875 -1.421875 15.734375 5.859375 
Q 8.6875 13.140625 8.6875 27.390625 
z
" id="DejaVuSans-85"/>
     <path d="M 54.890625 33.015625 
L 54.890625 0 
L 45.90625 0 
L 45.90625 32.71875 
Q 45.90625 40.484375 42.875 44.328125 
Q 39.84375 48.1875 33.796875 48.1875 
Q 26.515625 48.1875 22.3125 43.546875 
Q 18.109375 38.921875 18.109375 30.90625 
L 18.109375 0 
L 9.078125 0 
L 9.078125 54.6875 
L 18.109375 54.6875 
L 18.109375 46.1875 
Q 21.34375 51.125 25.703125 53.5625 
Q 30.078125 56 35.796875 56 
Q 45.21875 56 50.046875 50.171875 
Q 54.890625 44.34375 54.890625 33.015625 
z
" id="DejaVuSans-110"/>
     <path d="M 56.203125 29.59375 
L 56.203125 25.203125 
L 14.890625 25.203125 
Q 15.484375 15.921875 20.484375 11.0625 
Q 25.484375 6.203125 34.421875 6.203125 
Q 39.59375 6.203125 44.453125 7.46875 
Q 49.3125 8.734375 54.109375 11.28125 
L 54.109375 2.78125 
Q 49.265625 0.734375 44.1875 -0.34375 
Q 39.109375 -1.421875 33.890625 -1.421875 
Q 20.796875 -1.421875 13.15625 6.1875 
Q 5.515625 13.8125 5.515625 26.8125 
Q 5.515625 40.234375 12.765625 48.109375 
Q 20.015625 56 32.328125 56 
Q 43.359375 56 49.78125 48.890625 
Q 56.203125 41.796875 56.203125 29.59375 
z
M 47.21875 32.234375 
Q 47.125 39.59375 43.09375 43.984375 
Q 39.0625 48.390625 32.421875 48.390625 
Q 24.90625 48.390625 20.390625 44.140625 
Q 15.875 39.890625 15.1875 32.171875 
z
" id="DejaVuSans-101"/>
     <path d="M 41.109375 46.296875 
Q 39.59375 47.171875 37.8125 47.578125 
Q 36.03125 48 33.890625 48 
Q 26.265625 48 22.1875 43.046875 
Q 18.109375 38.09375 18.109375 28.8125 
L 18.109375 0 
L 9.078125 0 
L 9.078125 54.6875 
L 18.109375 54.6875 
L 18.109375 46.1875 
Q 20.953125 51.171875 25.484375 53.578125 
Q 30.03125 56 36.53125 56 
Q 37.453125 56 38.578125 55.875 
Q 39.703125 55.765625 41.0625 55.515625 
z
" id="DejaVuSans-114"/>
     <path d="M 18.3125 70.21875 
L 18.3125 54.6875 
L 36.8125 54.6875 
L 36.8125 47.703125 
L 18.3125 47.703125 
L 18.3125 18.015625 
Q 18.3125 11.328125 20.140625 9.421875 
Q 21.96875 7.515625 27.59375 7.515625 
L 36.8125 7.515625 
L 36.8125 0 
L 27.59375 0 
Q 17.1875 0 13.234375 3.875 
Q 9.28125 7.765625 9.28125 18.015625 
L 9.28125 47.703125 
L 2.6875 47.703125 
L 2.6875 54.6875 
L 9.28125 54.6875 
L 9.28125 70.21875 
z
" id="DejaVuSans-116"/>
     <path d="M 34.28125 27.484375 
Q 23.390625 27.484375 19.1875 25 
Q 14.984375 22.515625 14.984375 16.5 
Q 14.984375 11.71875 18.140625 8.90625 
Q 21.296875 6.109375 26.703125 6.109375 
Q 34.1875 6.109375 38.703125 11.40625 
Q 43.21875 16.703125 43.21875 25.484375 
L 43.21875 27.484375 
z
M 52.203125 31.203125 
L 52.203125 0 
L 43.21875 0 
L 43.21875 8.296875 
Q 40.140625 3.328125 35.546875 0.953125 
Q 30.953125 -1.421875 24.3125 -1.421875 
Q 15.921875 -1.421875 10.953125 3.296875 
Q 6 8.015625 6 15.921875 
Q 6 25.140625 12.171875 29.828125 
Q 18.359375 34.515625 30.609375 34.515625 
L 43.21875 34.515625 
L 43.21875 35.40625 
Q 43.21875 41.609375 39.140625 45 
Q 35.0625 48.390625 27.6875 48.390625 
Q 23 48.390625 18.546875 47.265625 
Q 14.109375 46.140625 10.015625 43.890625 
L 10.015625 52.203125 
Q 14.9375 54.109375 19.578125 55.046875 
Q 24.21875 56 28.609375 56 
Q 40.484375 56 46.34375 49.84375 
Q 52.203125 43.703125 52.203125 31.203125 
z
" id="DejaVuSans-97"/>
     <path d="M 9.421875 54.6875 
L 18.40625 54.6875 
L 18.40625 0 
L 9.421875 0 
z
M 9.421875 75.984375 
L 18.40625 75.984375 
L 18.40625 64.59375 
L 9.421875 64.59375 
z
" id="DejaVuSans-105"/>
     <path d="M 32.171875 -5.078125 
Q 28.375 -14.84375 24.75 -17.8125 
Q 21.140625 -20.796875 15.09375 -20.796875 
L 7.90625 -20.796875 
L 7.90625 -13.28125 
L 13.1875 -13.28125 
Q 16.890625 -13.28125 18.9375 -11.515625 
Q 21 -9.765625 23.484375 -3.21875 
L 25.09375 0.875 
L 2.984375 54.6875 
L 12.5 54.6875 
L 29.59375 11.921875 
L 46.6875 54.6875 
L 56.203125 54.6875 
z
" id="DejaVuSans-121"/>
     <path d="M 9.8125 72.90625 
L 55.90625 72.90625 
L 55.90625 64.59375 
L 19.671875 64.59375 
L 19.671875 43.015625 
L 54.390625 43.015625 
L 54.390625 34.71875 
L 19.671875 34.71875 
L 19.671875 8.296875 
L 56.78125 8.296875 
L 56.78125 0 
L 9.8125 0 
z
" id="DejaVuSans-69"/>
     <path d="M 9.421875 75.984375 
L 18.40625 75.984375 
L 18.40625 0 
L 9.421875 0 
z
" id="DejaVuSans-108"/>
     <path d="M 18.109375 8.203125 
L 18.109375 -20.796875 
L 9.078125 -20.796875 
L 9.078125 54.6875 
L 18.109375 54.6875 
L 18.109375 46.390625 
Q 20.953125 51.265625 25.265625 53.625 
Q 29.59375 56 35.59375 56 
Q 45.5625 56 51.78125 48.09375 
Q 58.015625 40.1875 58.015625 27.296875 
Q 58.015625 14.40625 51.78125 6.484375 
Q 45.5625 -1.421875 35.59375 -1.421875 
Q 29.59375 -1.421875 25.265625 0.953125 
Q 20.953125 3.328125 18.109375 8.203125 
z
M 48.6875 27.296875 
Q 48.6875 37.203125 44.609375 42.84375 
Q 40.53125 48.484375 33.40625 48.484375 
Q 26.265625 48.484375 22.1875 42.84375 
Q 18.109375 37.203125 18.109375 27.296875 
Q 18.109375 17.390625 22.1875 11.75 
Q 26.265625 6.109375 33.40625 6.109375 
Q 40.53125 6.109375 44.609375 11.75 
Q 48.6875 17.390625 48.6875 27.296875 
z
" id="DejaVuSans-112"/>
     <path d="M 44.28125 53.078125 
L 44.28125 44.578125 
Q 40.484375 46.53125 36.375 47.5 
Q 32.28125 48.484375 27.875 48.484375 
Q 21.1875 48.484375 17.84375 46.4375 
Q 14.5 44.390625 14.5 40.28125 
Q 14.5 37.15625 16.890625 35.375 
Q 19.28125 33.59375 26.515625 31.984375 
L 29.59375 31.296875 
Q 39.15625 29.25 43.1875 25.515625 
Q 47.21875 21.78125 47.21875 15.09375 
Q 47.21875 7.46875 41.1875 3.015625 
Q 35.15625 -1.421875 24.609375 -1.421875 
Q 20.21875 -1.421875 15.453125 -0.5625 
Q 10.6875 0.296875 5.421875 2 
L 5.421875 11.28125 
Q 10.40625 8.6875 15.234375 7.390625 
Q 20.0625 6.109375 24.8125 6.109375 
Q 31.15625 6.109375 34.5625 8.28125 
Q 37.984375 10.453125 37.984375 14.40625 
Q 37.984375 18.0625 35.515625 20.015625 
Q 33.0625 21.96875 24.703125 23.78125 
L 21.578125 24.515625 
Q 13.234375 26.265625 9.515625 29.90625 
Q 5.8125 33.546875 5.8125 39.890625 
Q 5.8125 47.609375 11.28125 51.796875 
Q 16.75 56 26.8125 56 
Q 31.78125 56 36.171875 55.265625 
Q 40.578125 54.546875 44.28125 53.078125 
z
" id="DejaVuSans-115"/>
     <path d="M 37.109375 75.984375 
L 37.109375 68.5 
L 28.515625 68.5 
Q 23.6875 68.5 21.796875 66.546875 
Q 19.921875 64.59375 19.921875 59.515625 
L 19.921875 54.6875 
L 34.71875 54.6875 
L 34.71875 47.703125 
L 19.921875 47.703125 
L 19.921875 0 
L 10.890625 0 
L 10.890625 47.703125 
L 2.296875 47.703125 
L 2.296875 54.6875 
L 10.890625 54.6875 
L 10.890625 58.5 
Q 10.890625 67.625 15.140625 71.796875 
Q 19.390625 75.984375 28.609375 75.984375 
z
" id="DejaVuSans-102"/>
     <path d="M 30.609375 48.390625 
Q 23.390625 48.390625 19.1875 42.75 
Q 14.984375 37.109375 14.984375 27.296875 
Q 14.984375 17.484375 19.15625 11.84375 
Q 23.34375 6.203125 30.609375 6.203125 
Q 37.796875 6.203125 41.984375 11.859375 
Q 46.1875 17.53125 46.1875 27.296875 
Q 46.1875 37.015625 41.984375 42.703125 
Q 37.796875 48.390625 30.609375 48.390625 
z
M 30.609375 56 
Q 42.328125 56 49.015625 48.375 
Q 55.71875 40.765625 55.71875 27.296875 
Q 55.71875 13.875 49.015625 6.21875 
Q 42.328125 -1.421875 30.609375 -1.421875 
Q 18.84375 -1.421875 12.171875 6.21875 
Q 5.515625 13.875 5.515625 27.296875 
Q 5.515625 40.765625 12.171875 48.375 
Q 18.84375 56 30.609375 56 
z
" id="DejaVuSans-111"/>
     <path d="M 9.8125 72.90625 
L 24.515625 72.90625 
L 43.109375 23.296875 
L 61.8125 72.90625 
L 76.515625 72.90625 
L 76.515625 0 
L 66.890625 0 
L 66.890625 64.015625 
L 48.09375 14.015625 
L 38.1875 14.015625 
L 19.390625 64.015625 
L 19.390625 0 
L 9.8125 0 
z
" id="DejaVuSans-77"/>
     <path d="M 8.5 21.578125 
L 8.5 54.6875 
L 17.484375 54.6875 
L 17.484375 21.921875 
Q 17.484375 14.15625 20.5 10.265625 
Q 23.53125 6.390625 29.59375 6.390625 
Q 36.859375 6.390625 41.078125 11.03125 
Q 45.3125 15.671875 45.3125 23.6875 
L 45.3125 54.6875 
L 54.296875 54.6875 
L 54.296875 0 
L 45.3125 0 
L 45.3125 8.40625 
Q 42.046875 3.421875 37.71875 1 
Q 33.40625 -1.421875 27.6875 -1.421875 
Q 18.265625 -1.421875 13.375 4.4375 
Q 8.5 10.296875 8.5 21.578125 
z
M 31.109375 56 
z
" id="DejaVuSans-117"/>
     <path d="M 9.8125 72.90625 
L 51.703125 72.90625 
L 51.703125 64.59375 
L 19.671875 64.59375 
L 19.671875 43.109375 
L 48.578125 43.109375 
L 48.578125 34.8125 
L 19.671875 34.8125 
L 19.671875 0 
L 9.8125 0 
z
" id="DejaVuSans-70"/>
     <path d="M 4.203125 54.6875 
L 13.1875 54.6875 
L 24.421875 12.015625 
L 35.59375 54.6875 
L 46.1875 54.6875 
L 57.421875 12.015625 
L 68.609375 54.6875 
L 77.59375 54.6875 
L 63.28125 0 
L 52.6875 0 
L 40.921875 44.828125 
L 29.109375 0 
L 18.5 0 
z
" id="DejaVuSans-119"/>
     <path d="M 45.40625 46.390625 
L 45.40625 75.984375 
L 54.390625 75.984375 
L 54.390625 0 
L 45.40625 0 
L 45.40625 8.203125 
Q 42.578125 3.328125 38.25 0.953125 
Q 33.9375 -1.421875 27.875 -1.421875 
Q 17.96875 -1.421875 11.734375 6.484375 
Q 5.515625 14.40625 5.515625 27.296875 
Q 5.515625 40.1875 11.734375 48.09375 
Q 17.96875 56 27.875 56 
Q 33.9375 56 38.25 53.625 
Q 42.578125 51.265625 45.40625 46.390625 
z
M 14.796875 27.296875 
Q 14.796875 17.390625 18.875 11.75 
Q 22.953125 6.109375 30.078125 6.109375 
Q 37.203125 6.109375 41.296875 11.75 
Q 45.40625 17.390625 45.40625 27.296875 
Q 45.40625 37.203125 41.296875 42.84375 
Q 37.203125 48.484375 30.078125 48.484375 
Q 22.953125 48.484375 18.875 42.84375 
Q 14.796875 37.203125 14.796875 27.296875 
z
" id="DejaVuSans-100"/>
     <path d="M 44.390625 34.1875 
Q 47.5625 33.109375 50.5625 29.59375 
Q 53.5625 26.078125 56.59375 19.921875 
L 66.609375 0 
L 56 0 
L 46.6875 18.703125 
Q 43.0625 26.03125 39.671875 28.421875 
Q 36.28125 30.8125 30.421875 30.8125 
L 19.671875 30.8125 
L 19.671875 0 
L 9.8125 0 
L 9.8125 72.90625 
L 32.078125 72.90625 
Q 44.578125 72.90625 50.734375 67.671875 
Q 56.890625 62.453125 56.890625 51.90625 
Q 56.890625 45.015625 53.6875 40.46875 
Q 50.484375 35.9375 44.390625 34.1875 
z
M 19.671875 64.796875 
L 19.671875 38.921875 
L 32.078125 38.921875 
Q 39.203125 38.921875 42.84375 42.21875 
Q 46.484375 45.515625 46.484375 51.90625 
Q 46.484375 58.296875 42.84375 61.546875 
Q 39.203125 64.796875 32.078125 64.796875 
z
" id="DejaVuSans-82"/>
    </defs>
    <g transform="translate(235.160156 80.4)scale(0.1 -0.1)">
     <use xlink:href="#DejaVuSans-85"/>
     <use x="73.193359" xlink:href="#DejaVuSans-110"/>
     <use x="136.572266" xlink:href="#DejaVuSans-99"/>
     <use x="191.552734" xlink:href="#DejaVuSans-101"/>
     <use x="253.076172" xlink:href="#DejaVuSans-114"/>
     <use x="294.189453" xlink:href="#DejaVuSans-116"/>
     <use x="333.398438" xlink:href="#DejaVuSans-97"/>
     <use x="394.677734" xlink:href="#DejaVuSans-105"/>
     <use x="422.460938" xlink:href="#DejaVuSans-110"/>
     <use x="485.839844" xlink:href="#DejaVuSans-116"/>
     <use x="525.048828" xlink:href="#DejaVuSans-121"/>
     <use x="584.228516" xlink:href="#DejaVuSans-32"/>
     <use x="616.015625" xlink:href="#DejaVuSans-69"/>
     <use x="679.199219" xlink:href="#DejaVuSans-108"/>
     <use x="706.982422" xlink:href="#DejaVuSans-108"/>
     <use x="734.765625" xlink:href="#DejaVuSans-105"/>
     <use x="762.548828" xlink:href="#DejaVuSans-112"/>
     <use x="826.025391" xlink:href="#DejaVuSans-115"/>
     <use x="878.125" xlink:href="#DejaVuSans-101"/>
     <use x="939.648438" xlink:href="#DejaVuSans-32"/>
     <use x="971.435547" xlink:href="#DejaVuSans-102"/>
     <use x="1006.640625" xlink:href="#DejaVuSans-111"/>
     <use x="1067.822266" xlink:href="#DejaVuSans-114"/>
     <use x="1108.935547" xlink:href="#DejaVuSans-32"/>
     <use x="1140.722656" xlink:href="#DejaVuSans-77"/>
     <use x="1227.001953" xlink:href="#DejaVuSans-101"/>
     <use x="1288.525391" xlink:href="#DejaVuSans-97"/>
     <use x="1349.804688" xlink:href="#DejaVuSans-115"/>
     <use x="1401.904297" xlink:href="#DejaVuSans-117"/>
     <use x="1465.283203" xlink:href="#DejaVuSans-114"/>
     <use x="1506.365234" xlink:href="#DejaVuSans-101"/>
     <use x="1567.888672" xlink:href="#DejaVuSans-109"/>
     <use x="1665.300781" xlink:href="#DejaVuSans-101"/>
     <use x="1726.824219" xlink:href="#DejaVuSans-110"/>
     <use x="1790.203125" xlink:href="#DejaVuSans-116"/>
     <use x="1829.412109" xlink:href="#DejaVuSans-115"/>
     <use x="1881.511719" xlink:href="#DejaVuSans-32"/>
     <use x="1913.298828" xlink:href="#DejaVuSans-111"/>
     <use x="1974.480469" xlink:href="#DejaVuSans-102"/>
     <use x="2009.685547" xlink:href="#DejaVuSans-32"/>
     <use x="2041.472656" xlink:href="#DejaVuSans-70"/>
     <use x="2098.945312" xlink:href="#DejaVuSans-111"/>
     <use x="2160.126953" xlink:href="#DejaVuSans-114"/>
     <use x="2201.240234" xlink:href="#DejaVuSans-119"/>
     <use x="2283.027344" xlink:href="#DejaVuSans-97"/>
     <use x="2344.306641" xlink:href="#DejaVuSans-114"/>
     <use x="2385.404297" xlink:href="#DejaVuSans-100"/>
     <use x="2448.880859" xlink:href="#DejaVuSans-32"/>
     <use x="2480.667969" xlink:href="#DejaVuSans-82"/>
     <use x="2550.087891" xlink:href="#DejaVuSans-117"/>
     <use x="2613.466797" xlink:href="#DejaVuSans-110"/>
    </g>
   </g>
   <g id="legend_1">
    <g id="patch_13">
     <path d="M 453.58125 211.825 
L 641 211.825 
Q 643 211.825 643 209.825 
L 643 93.4 
Q 643 91.4 641 91.4 
L 453.58125 91.4 
Q 451.58125 91.4 451.58125 93.4 
L 451.58125 209.825 
Q 451.58125 211.825 453.58125 211.825 
z
" style="fill:#ffffff;opacity:0.8;stroke:#cccccc;stroke-linejoin:miter;"/>
    </g>
    <g id="patch_14">
     <path d="M 455.58125 102.998437 
L 475.58125 102.998437 
L 475.58125 95.998437 
L 455.58125 95.998437 
z
" style="fill:none;stroke:#b22222;stroke-linejoin:miter;"/>
    </g>
    <g id="text_20">
     <!-- $1\sigma$ for forward data -->
     <defs>
      <path d="M 34.671875 47.5625 
Q 27.25 47.5625 22.21875 42.1875 
Q 16.890625 36.578125 15.140625 27.296875 
Q 13.1875 17.484375 16.3125 11.8125 
Q 19.390625 6.203125 26.65625 6.203125 
Q 33.84375 6.203125 39.109375 11.859375 
Q 44.4375 17.53125 46.34375 27.296875 
Q 48.046875 36.234375 45.015625 42.1875 
Q 42.1875 47.5625 34.671875 47.5625 
z
M 36.078125 54.734375 
L 65.921875 54.6875 
L 64.15625 45.703125 
L 54.109375 45.703125 
Q 57.90625 38.09375 55.859375 27.296875 
Q 53.21875 13.875 45.0625 6.25 
Q 36.859375 -1.421875 25.140625 -1.421875 
Q 13.375 -1.421875 8.203125 6.25 
Q 3.03125 13.875 5.671875 27.296875 
Q 8.25 40.765625 16.40625 48.390625 
Q 23.1875 54.734375 36.078125 54.734375 
z
" id="DejaVuSans-Oblique-963"/>
     </defs>
     <g transform="translate(483.58125 102.998437)scale(0.1 -0.1)">
      <use transform="translate(0 0.015625)" xlink:href="#DejaVuSans-49"/>
      <use transform="translate(63.623047 0.015625)" xlink:href="#DejaVuSans-Oblique-963"/>
      <use transform="translate(127.001953 0.015625)" xlink:href="#DejaVuSans-32"/>
      <use transform="translate(158.789062 0.015625)" xlink:href="#DejaVuSans-102"/>
      <use transform="translate(193.994141 0.015625)" xlink:href="#DejaVuSans-111"/>
      <use transform="translate(255.175781 0.015625)" xlink:href="#DejaVuSans-114"/>
      <use transform="translate(296.289062 0.015625)" xlink:href="#DejaVuSans-32"/>
      <use transform="translate(328.076172 0.015625)" xlink:href="#DejaVuSans-102"/>
      <use transform="translate(363.28125 0.015625)" xlink:href="#DejaVuSans-111"/>
      <use transform="translate(424.462891 0.015625)" xlink:href="#DejaVuSans-114"/>
      <use transform="translate(465.576172 0.015625)" xlink:href="#DejaVuSans-119"/>
      <use transform="translate(547.363281 0.015625)" xlink:href="#DejaVuSans-97"/>
      <use transform="translate(608.642578 0.015625)" xlink:href="#DejaVuSans-114"/>
      <use transform="translate(649.755859 0.015625)" xlink:href="#DejaVuSans-100"/>
      <use transform="translate(713.232422 0.015625)" xlink:href="#DejaVuSans-32"/>
      <use transform="translate(745.019531 0.015625)" xlink:href="#DejaVuSans-100"/>
      <use transform="translate(808.496094 0.015625)" xlink:href="#DejaVuSans-97"/>
      <use transform="translate(869.775391 0.015625)" xlink:href="#DejaVuSans-116"/>
      <use transform="translate(908.984375 0.015625)" xlink:href="#DejaVuSans-97"/>
     </g>
    </g>
    <g id="patch_15">
     <path d="M 455.58125 117.676562 
L 475.58125 117.676562 
L 475.58125 110.676562 
L 455.58125 110.676562 
z
" style="fill:none;stroke:#b22222;stroke-linejoin:miter;"/>
    </g>
    <g id="text_21">
     <!-- $2\sigma$ for forward data -->
     <g transform="translate(483.58125 117.676562)scale(0.1 -0.1)">
      <use transform="translate(0 0.015625)" xlink:href="#DejaVuSans-50"/>
      <use transform="translate(63.623047 0.015625)" xlink:href="#DejaVuSans-Oblique-963"/>
      <use transform="translate(127.001953 0.015625)" xlink:href="#DejaVuSans-32"/>
      <use transform="translate(158.789062 0.015625)" xlink:href="#DejaVuSans-102"/>
      <use transform="translate(193.994141 0.015625)" xlink:href="#DejaVuSans-111"/>
      <use transform="translate(255.175781 0.015625)" xlink:href="#DejaVuSans-114"/>
      <use transform="translate(296.289062 0.015625)" xlink:href="#DejaVuSans-32"/>
      <use transform="translate(328.076172 0.015625)" xlink:href="#DejaVuSans-102"/>
      <use transform="translate(363.28125 0.015625)" xlink:href="#DejaVuSans-111"/>
      <use transform="translate(424.462891 0.015625)" xlink:href="#DejaVuSans-114"/>
      <use transform="translate(465.576172 0.015625)" xlink:href="#DejaVuSans-119"/>
      <use transform="translate(547.363281 0.015625)" xlink:href="#DejaVuSans-97"/>
      <use transform="translate(608.642578 0.015625)" xlink:href="#DejaVuSans-114"/>
      <use transform="translate(649.755859 0.015625)" xlink:href="#DejaVuSans-100"/>
      <use transform="translate(713.232422 0.015625)" xlink:href="#DejaVuSans-32"/>
      <use transform="translate(745.019531 0.015625)" xlink:href="#DejaVuSans-100"/>
      <use transform="translate(808.496094 0.015625)" xlink:href="#DejaVuSans-97"/>
      <use transform="translate(869.775391 0.015625)" xlink:href="#DejaVuSans-116"/>
      <use transform="translate(908.984375 0.015625)" xlink:href="#DejaVuSans-97"/>
     </g>
    </g>
    <g id="patch_16">
     <path d="M 455.58125 132.354687 
L 475.58125 132.354687 
L 475.58125 125.354687 
L 455.58125 125.354687 
z
" style="fill:none;stroke:#b22222;stroke-linejoin:miter;"/>
    </g>
    <g id="text_22">
     <!-- $3\sigma$ for forward data -->
     <g transform="translate(483.58125 132.354687)scale(0.1 -0.1)">
      <use transform="translate(0 0.015625)" xlink:href="#DejaVuSans-51"/>
      <use transform="translate(63.623047 0.015625)" xlink:href="#DejaVuSans-Oblique-963"/>
      <use transform="translate(127.001953 0.015625)" xlink:href="#DejaVuSans-32"/>
      <use transform="translate(158.789062 0.015625)" xlink:href="#DejaVuSans-102"/>
      <use transform="translate(193.994141 0.015625)" xlink:href="#DejaVuSans-111"/>
      <use transform="translate(255.175781 0.015625)" xlink:href="#DejaVuSans-114"/>
      <use transform="translate(296.289062 0.015625)" xlink:href="#DejaVuSans-32"/>
      <use transform="translate(328.076172 0.015625)" xlink:href="#DejaVuSans-102"/>
      <use transform="translate(363.28125 0.015625)" xlink:href="#DejaVuSans-111"/>
      <use transform="translate(424.462891 0.015625)" xlink:href="#DejaVuSans-114"/>
      <use transform="translate(465.576172 0.015625)" xlink:href="#DejaVuSans-119"/>
      <use transform="translate(547.363281 0.015625)" xlink:href="#DejaVuSans-97"/>
      <use transform="translate(608.642578 0.015625)" xlink:href="#DejaVuSans-114"/>
      <use transform="translate(649.755859 0.015625)" xlink:href="#DejaVuSans-100"/>
      <use transform="translate(713.232422 0.015625)" xlink:href="#DejaVuSans-32"/>
      <use transform="translate(745.019531 0.015625)" xlink:href="#DejaVuSans-100"/>
      <use transform="translate(808.496094 0.015625)" xlink:href="#DejaVuSans-97"/>
      <use transform="translate(869.775391 0.015625)" xlink:href="#DejaVuSans-116"/>
      <use transform="translate(908.984375 0.015625)" xlink:href="#DejaVuSans-97"/>
     </g>
    </g>
    <g id="patch_17">
     <path d="M 455.58125 147.032812 
L 475.58125 147.032812 
L 475.58125 140.032812 
L 455.58125 140.032812 
z
" style="fill:none;stroke:#0000ff;stroke-linejoin:miter;"/>
    </g>
    <g id="text_23">
     <!-- $1\sigma$ for Encoded data -->
     <g transform="translate(483.58125 147.032812)scale(0.1 -0.1)">
      <use transform="translate(0 0.015625)" xlink:href="#DejaVuSans-49"/>
      <use transform="translate(63.623047 0.015625)" xlink:href="#DejaVuSans-Oblique-963"/>
      <use transform="translate(127.001953 0.015625)" xlink:href="#DejaVuSans-32"/>
      <use transform="translate(158.789062 0.015625)" xlink:href="#DejaVuSans-102"/>
      <use transform="translate(193.994141 0.015625)" xlink:href="#DejaVuSans-111"/>
      <use transform="translate(255.175781 0.015625)" xlink:href="#DejaVuSans-114"/>
      <use transform="translate(296.289062 0.015625)" xlink:href="#DejaVuSans-32"/>
      <use transform="translate(328.076172 0.015625)" xlink:href="#DejaVuSans-69"/>
      <use transform="translate(391.259766 0.015625)" xlink:href="#DejaVuSans-110"/>
      <use transform="translate(454.638672 0.015625)" xlink:href="#DejaVuSans-99"/>
      <use transform="translate(509.619141 0.015625)" xlink:href="#DejaVuSans-111"/>
      <use transform="translate(570.800781 0.015625)" xlink:href="#DejaVuSans-100"/>
      <use transform="translate(634.277344 0.015625)" xlink:href="#DejaVuSans-101"/>
      <use transform="translate(695.800781 0.015625)" xlink:href="#DejaVuSans-100"/>
      <use transform="translate(759.277344 0.015625)" xlink:href="#DejaVuSans-32"/>
      <use transform="translate(791.064453 0.015625)" xlink:href="#DejaVuSans-100"/>
      <use transform="translate(854.541016 0.015625)" xlink:href="#DejaVuSans-97"/>
      <use transform="translate(915.820312 0.015625)" xlink:href="#DejaVuSans-116"/>
      <use transform="translate(955.029297 0.015625)" xlink:href="#DejaVuSans-97"/>
     </g>
    </g>
    <g id="patch_18">
     <path d="M 455.58125 161.710937 
L 475.58125 161.710937 
L 475.58125 154.710937 
L 455.58125 154.710937 
z
" style="fill:none;stroke:#0000ff;stroke-linejoin:miter;"/>
    </g>
    <g id="text_24">
     <!-- $2\sigma$ for Encoded data -->
     <g transform="translate(483.58125 161.710937)scale(0.1 -0.1)">
      <use transform="translate(0 0.015625)" xlink:href="#DejaVuSans-50"/>
      <use transform="translate(63.623047 0.015625)" xlink:href="#DejaVuSans-Oblique-963"/>
      <use transform="translate(127.001953 0.015625)" xlink:href="#DejaVuSans-32"/>
      <use transform="translate(158.789062 0.015625)" xlink:href="#DejaVuSans-102"/>
      <use transform="translate(193.994141 0.015625)" xlink:href="#DejaVuSans-111"/>
      <use transform="translate(255.175781 0.015625)" xlink:href="#DejaVuSans-114"/>
      <use transform="translate(296.289062 0.015625)" xlink:href="#DejaVuSans-32"/>
      <use transform="translate(328.076172 0.015625)" xlink:href="#DejaVuSans-69"/>
      <use transform="translate(391.259766 0.015625)" xlink:href="#DejaVuSans-110"/>
      <use transform="translate(454.638672 0.015625)" xlink:href="#DejaVuSans-99"/>
      <use transform="translate(509.619141 0.015625)" xlink:href="#DejaVuSans-111"/>
      <use transform="translate(570.800781 0.015625)" xlink:href="#DejaVuSans-100"/>
      <use transform="translate(634.277344 0.015625)" xlink:href="#DejaVuSans-101"/>
      <use transform="translate(695.800781 0.015625)" xlink:href="#DejaVuSans-100"/>
      <use transform="translate(759.277344 0.015625)" xlink:href="#DejaVuSans-32"/>
      <use transform="translate(791.064453 0.015625)" xlink:href="#DejaVuSans-100"/>
      <use transform="translate(854.541016 0.015625)" xlink:href="#DejaVuSans-97"/>
      <use transform="translate(915.820312 0.015625)" xlink:href="#DejaVuSans-116"/>
      <use transform="translate(955.029297 0.015625)" xlink:href="#DejaVuSans-97"/>
     </g>
    </g>
    <g id="patch_19">
     <path d="M 455.58125 176.389062 
L 475.58125 176.389062 
L 475.58125 169.389062 
L 455.58125 169.389062 
z
" style="fill:none;stroke:#0000ff;stroke-linejoin:miter;"/>
    </g>
    <g id="text_25">
     <!-- $3\sigma$ for Encoded data -->
     <g transform="translate(483.58125 176.389062)scale(0.1 -0.1)">
      <use transform="translate(0 0.015625)" xlink:href="#DejaVuSans-51"/>
      <use transform="translate(63.623047 0.015625)" xlink:href="#DejaVuSans-Oblique-963"/>
      <use transform="translate(127.001953 0.015625)" xlink:href="#DejaVuSans-32"/>
      <use transform="translate(158.789062 0.015625)" xlink:href="#DejaVuSans-102"/>
      <use transform="translate(193.994141 0.015625)" xlink:href="#DejaVuSans-111"/>
      <use transform="translate(255.175781 0.015625)" xlink:href="#DejaVuSans-114"/>
      <use transform="translate(296.289062 0.015625)" xlink:href="#DejaVuSans-32"/>
      <use transform="translate(328.076172 0.015625)" xlink:href="#DejaVuSans-69"/>
      <use transform="translate(391.259766 0.015625)" xlink:href="#DejaVuSans-110"/>
      <use transform="translate(454.638672 0.015625)" xlink:href="#DejaVuSans-99"/>
      <use transform="translate(509.619141 0.015625)" xlink:href="#DejaVuSans-111"/>
      <use transform="translate(570.800781 0.015625)" xlink:href="#DejaVuSans-100"/>
      <use transform="translate(634.277344 0.015625)" xlink:href="#DejaVuSans-101"/>
      <use transform="translate(695.800781 0.015625)" xlink:href="#DejaVuSans-100"/>
      <use transform="translate(759.277344 0.015625)" xlink:href="#DejaVuSans-32"/>
      <use transform="translate(791.064453 0.015625)" xlink:href="#DejaVuSans-100"/>
      <use transform="translate(854.541016 0.015625)" xlink:href="#DejaVuSans-97"/>
      <use transform="translate(915.820312 0.015625)" xlink:href="#DejaVuSans-116"/>
      <use transform="translate(955.029297 0.015625)" xlink:href="#DejaVuSans-97"/>
     </g>
    </g>
    <g id="PathCollection_4">
     <g>
      <use style="fill:#1f77b4;stroke:#1f77b4;" x="465.58125" xlink:href="#mb9ea432dd0" y="188.442187"/>
     </g>
    </g>
    <g id="text_26">
     <!-- Measurement data for Forward -->
     <g transform="translate(483.58125 191.067187)scale(0.1 -0.1)">
      <use xlink:href="#DejaVuSans-77"/>
      <use x="86.279297" xlink:href="#DejaVuSans-101"/>
      <use x="147.802734" xlink:href="#DejaVuSans-97"/>
      <use x="209.082031" xlink:href="#DejaVuSans-115"/>
      <use x="261.181641" xlink:href="#DejaVuSans-117"/>
      <use x="324.560547" xlink:href="#DejaVuSans-114"/>
      <use x="365.642578" xlink:href="#DejaVuSans-101"/>
      <use x="427.166016" xlink:href="#DejaVuSans-109"/>
      <use x="524.578125" xlink:href="#DejaVuSans-101"/>
      <use x="586.101562" xlink:href="#DejaVuSans-110"/>
      <use x="649.480469" xlink:href="#DejaVuSans-116"/>
      <use x="688.689453" xlink:href="#DejaVuSans-32"/>
      <use x="720.476562" xlink:href="#DejaVuSans-100"/>
      <use x="783.953125" xlink:href="#DejaVuSans-97"/>
      <use x="845.232422" xlink:href="#DejaVuSans-116"/>
      <use x="884.441406" xlink:href="#DejaVuSans-97"/>
      <use x="945.720703" xlink:href="#DejaVuSans-32"/>
      <use x="977.507812" xlink:href="#DejaVuSans-102"/>
      <use x="1012.712891" xlink:href="#DejaVuSans-111"/>
      <use x="1073.894531" xlink:href="#DejaVuSans-114"/>
      <use x="1115.007812" xlink:href="#DejaVuSans-32"/>
      <use x="1146.794922" xlink:href="#DejaVuSans-70"/>
      <use x="1204.267578" xlink:href="#DejaVuSans-111"/>
      <use x="1265.449219" xlink:href="#DejaVuSans-114"/>
      <use x="1306.5625" xlink:href="#DejaVuSans-119"/>
      <use x="1388.349609" xlink:href="#DejaVuSans-97"/>
      <use x="1449.628906" xlink:href="#DejaVuSans-114"/>
      <use x="1490.726562" xlink:href="#DejaVuSans-100"/>
     </g>
    </g>
    <g id="PathCollection_5">
     <g>
      <use style="fill:#ff7f0e;stroke:#ff7f0e;" x="465.58125" xlink:href="#ma30cbc96c6" y="203.120312"/>
     </g>
    </g>
    <g id="text_27">
     <!-- Encoded data for Forward -->
     <g transform="translate(483.58125 205.745312)scale(0.1 -0.1)">
      <use xlink:href="#DejaVuSans-69"/>
      <use x="63.183594" xlink:href="#DejaVuSans-110"/>
      <use x="126.5625" xlink:href="#DejaVuSans-99"/>
      <use x="181.542969" xlink:href="#DejaVuSans-111"/>
      <use x="242.724609" xlink:href="#DejaVuSans-100"/>
      <use x="306.201172" xlink:href="#DejaVuSans-101"/>
      <use x="367.724609" xlink:href="#DejaVuSans-100"/>
      <use x="431.201172" xlink:href="#DejaVuSans-32"/>
      <use x="462.988281" xlink:href="#DejaVuSans-100"/>
      <use x="526.464844" xlink:href="#DejaVuSans-97"/>
      <use x="587.744141" xlink:href="#DejaVuSans-116"/>
      <use x="626.953125" xlink:href="#DejaVuSans-97"/>
      <use x="688.232422" xlink:href="#DejaVuSans-32"/>
      <use x="720.019531" xlink:href="#DejaVuSans-102"/>
      <use x="755.224609" xlink:href="#DejaVuSans-111"/>
      <use x="816.40625" xlink:href="#DejaVuSans-114"/>
      <use x="857.519531" xlink:href="#DejaVuSans-32"/>
      <use x="889.306641" xlink:href="#DejaVuSans-70"/>
      <use x="946.779297" xlink:href="#DejaVuSans-111"/>
      <use x="1007.960938" xlink:href="#DejaVuSans-114"/>
      <use x="1049.074219" xlink:href="#DejaVuSans-119"/>
      <use x="1130.861328" xlink:href="#DejaVuSans-97"/>
      <use x="1192.140625" xlink:href="#DejaVuSans-114"/>
      <use x="1233.238281" xlink:href="#DejaVuSans-100"/>
     </g>
    </g>
   </g>
  </g>
 </g>
 <defs>
  <clipPath id="p40609290ba">
   <rect height="543.6" width="558" x="90" y="86.4"/>
  </clipPath>
 </defs>
</svg>
